NotoAmalgamated-BoldItalic.ufo
<glyph name="exclam" format="2">
  <advance width="304"/>
  <unicode hex="0021"/>
  <outline>
    <contour>
      <point x="61" y="252" type="line"/>
      <point x="221" y="252" type="line"/>
      <point x="345" y="714" type="line"/>
      <point x="137" y="714" type="line"/>
    </contour>
    <contour>
      <point x="97" y="-12" type="curve" smooth="yes"/>
      <point x="165" y="-12"/>
      <point x="213" y="25"/>
      <point x="213" y="100" type="curve" smooth="yes"/>
      <point x="213" y="148"/>
      <point x="181" y="176"/>
      <point x="125" y="176" type="curve" smooth="yes"/>
      <point x="45" y="176"/>
      <point x="6" y="126"/>
      <point x="6" y="62" type="curve" smooth="yes"/>
      <point x="6" y="24"/>
      <point x="28" y="-12"/>
    </contour>
  </outline>
</glyph>
<glyph name="quotedbl" format="2">
  <advance width="454"/>
  <unicode hex="0022"/>
  <outline>
    <contour>
      <point x="304" y="456" type="line"/>
      <point x="430" y="456" type="line"/>
      <point x="507" y="714" type="line"/>
      <point x="340" y="714" type="line"/>
    </contour>
    <contour>
      <point x="89" y="456" type="line"/>
      <point x="214" y="456" type="line"/>
      <point x="291" y="714" type="line"/>
      <point x="124" y="714" type="line"/>
    </contour>
  </outline>
</glyph>
<glyph name="numbersign" format="2">
  <advance width="646"/>
  <unicode hex="0023"/>
  <outline>
    <contour>
      <point x="59" y="0" type="line"/>
      <point x="191" y="0" type="line"/>
      <point x="246" y="192" type="line"/>
      <point x="328" y="192" type="line"/>
      <point x="273" y="0" type="line"/>
      <point x="405" y="0" type="line"/>
      <point x="459" y="192" type="line"/>
      <point x="602" y="192" type="line"/>
      <point x="612" y="308" type="line"/>
      <point x="493" y="308" type="line"/>
      <point x="521" y="406" type="line"/>
      <point x="653" y="406" type="line"/>
      <point x="663" y="524" type="line"/>
      <point x="555" y="524" type="line"/>
      <point x="609" y="714" type="line"/>
      <point x="477" y="714" type="line"/>
      <point x="423" y="524" type="line"/>
      <point x="341" y="524" type="line"/>
      <point x="395" y="714" type="line"/>
      <point x="263" y="714" type="line"/>
      <point x="209" y="524" type="line"/>
      <point x="70" y="524" type="line"/>
      <point x="60" y="406" type="line"/>
      <point x="175" y="406" type="line"/>
      <point x="147" y="308" type="line"/>
      <point x="17" y="308" type="line"/>
      <point x="7" y="192" type="line"/>
      <point x="114" y="192" type="line"/>
    </contour>
    <contour>
      <point x="279" y="308" type="line"/>
      <point x="307" y="406" type="line"/>
      <point x="389" y="406" type="line"/>
      <point x="361" y="308" type="line"/>
    </contour>
  </outline>
</glyph>
<glyph name="dollar" format="2">
  <advance width="580"/>
  <unicode hex="0024"/>
  <outline>
    <contour>
      <point x="199" y="34" type="curve"/>
      <point x="179" y="-59" type="line"/>
      <point x="261" y="-59" type="line"/>
      <point x="280" y="32" type="line"/>
      <point x="420" y="40"/>
      <point x="525" y="115"/>
      <point x="525" y="240" type="curve" smooth="yes"/>
      <point x="525" y="321"/>
      <point x="479" y="369"/>
      <point x="363" y="421" type="curve"/>
      <point x="392" y="556" type="line"/>
      <point x="437" y="551"/>
      <point x="489" y="538"/>
      <point x="525" y="519" type="curve"/>
      <point x="574" y="650" type="line"/>
      <point x="525" y="674"/>
      <point x="475" y="688"/>
      <point x="421" y="693" type="curve"/>
      <point x="436" y="760" type="line"/>
      <point x="354" y="760" type="line"/>
      <point x="340" y="695" type="line"/>
      <point x="188" y="686"/>
      <point x="92" y="616"/>
      <point x="92" y="492" type="curve" smooth="yes"/>
      <point x="92" y="400"/>
      <point x="156" y="347"/>
      <point x="258" y="308" type="curve"/>
      <point x="229" y="172" type="line"/>
      <point x="169" y="177"/>
      <point x="96" y="196"/>
      <point x="27" y="228" type="curve"/>
      <point x="30" y="79" type="line"/>
      <point x="64" y="58"/>
      <point x="118" y="40"/>
    </contour>
    <contour>
      <point x="310" y="175" type="curve"/>
      <point x="332" y="278" type="line"/>
      <point x="352" y="266"/>
      <point x="365" y="251"/>
      <point x="365" y="227" type="curve" smooth="yes"/>
      <point x="365" y="203"/>
      <point x="350" y="184"/>
    </contour>
    <contour>
      <point x="311" y="554" type="curve"/>
      <point x="289" y="455" type="line"/>
      <point x="272" y="465"/>
      <point x="263" y="477"/>
      <point x="263" y="499" type="curve" smooth="yes"/>
      <point x="263" y="525"/>
      <point x="273" y="546"/>
    </contour>
  </outline>
</glyph>
<glyph name="dollar.serif" format="2">
  <advance width="569"/>
  <unicode hex="0024"/>
  <outline>
    <contour>
      <point x="215" y="39" type="curve"/>
      <point x="190" y="-79" type="line"/>
      <point x="250" y="-79" type="line"/>
      <point x="274" y="38" type="line"/>
      <point x="438" y="39"/>
      <point x="527" y="115"/>
      <point x="527" y="230" type="curve" smooth="yes"/>
      <point x="527" y="316"/>
      <point x="486" y="381"/>
      <point x="393" y="429" type="curve" smooth="yes"/>
      <point x="361" y="446" type="line"/>
      <point x="396" y="611" type="line"/>
      <point x="423" y="584"/>
      <point x="443" y="531"/>
      <point x="443" y="484" type="curve"/>
      <point x="550" y="484"/>
      <point x="580" y="520"/>
      <point x="580" y="573" type="curve" smooth="yes"/>
      <point x="580" y="636"/>
      <point x="528" y="677"/>
      <point x="412" y="686" type="curve"/>
      <point x="429" y="760" type="line"/>
      <point x="369" y="760" type="line"/>
      <point x="353" y="689" type="line"/>
      <point x="202" y="686"/>
      <point x="112" y="614"/>
      <point x="112" y="498" type="curve" smooth="yes"/>
      <point x="112" y="411"/>
      <point x="163" y="360"/>
      <point x="270" y="302" type="curve"/>
      <point x="230" y="113" type="line"/>
      <point x="193" y="134"/>
      <point x="167" y="171"/>
      <point x="167" y="268" type="curve"/>
      <point x="65" y="268"/>
      <point x="31" y="228"/>
      <point x="31" y="172" type="curve" smooth="yes"/>
      <point x="31" y="94"/>
      <point x="88" y="50"/>
    </contour>
    <contour>
      <point x="287" y="101" type="curve"/>
      <point x="323" y="268" type="line"/>
      <point x="369" y="229"/>
      <point x="374" y="205"/>
      <point x="374" y="177" type="curve" smooth="yes"/>
      <point x="374" y="129"/>
      <point x="336" y="97"/>
    </contour>
    <contour>
      <point x="337" y="623" type="curve"/>
      <point x="307" y="481" type="line"/>
      <point x="282" y="502"/>
      <point x="267" y="521"/>
      <point x="267" y="557" type="curve" smooth="yes"/>
      <point x="267" y="604"/>
      <point x="303" y="619"/>
    </contour>
  </outline>
</glyph>
<glyph name="percent" format="2">
  <advance width="930"/>
  <unicode hex="0025"/>
  <outline>
    <contour>
      <point x="143" y="0" type="line"/>
      <point x="288" y="0" type="line"/>
      <point x="816" y="714" type="line"/>
      <point x="675" y="714" type="line"/>
    </contour>
    <contour>
      <point x="214" y="276" type="curve" smooth="yes"/>
      <point x="377" y="276"/>
      <point x="427" y="441"/>
      <point x="427" y="556" type="curve" smooth="yes"/>
      <point x="427" y="663"/>
      <point x="375" y="724"/>
      <point x="271" y="724" type="curve" smooth="yes"/>
      <point x="112" y="724"/>
      <point x="56" y="561"/>
      <point x="56" y="444" type="curve" smooth="yes"/>
      <point x="56" y="333"/>
      <point x="112" y="276"/>
    </contour>
    <contour>
      <point x="223" y="394" type="curve" smooth="yes"/>
      <point x="205" y="394"/>
      <point x="197" y="408"/>
      <point x="197" y="435" type="curve" smooth="yes"/>
      <point x="197" y="506"/>
      <point x="226" y="606"/>
      <point x="262" y="606" type="curve" smooth="yes"/>
      <point x="281" y="606"/>
      <point x="288" y="593"/>
      <point x="288" y="565" type="curve" smooth="yes"/>
      <point x="288" y="500"/>
      <point x="262" y="394"/>
    </contour>
    <contour>
      <point x="694" y="-10" type="curve" smooth="yes"/>
      <point x="857" y="-10"/>
      <point x="907" y="155"/>
      <point x="907" y="270" type="curve" smooth="yes"/>
      <point x="907" y="377"/>
      <point x="855" y="438"/>
      <point x="751" y="438" type="curve" smooth="yes"/>
      <point x="592" y="438"/>
      <point x="536" y="275"/>
      <point x="536" y="158" type="curve" smooth="yes"/>
      <point x="536" y="47"/>
      <point x="592" y="-10"/>
    </contour>
    <contour>
      <point x="703" y="108" type="curve" smooth="yes"/>
      <point x="685" y="108"/>
      <point x="677" y="122"/>
      <point x="677" y="149" type="curve" smooth="yes"/>
      <point x="677" y="220"/>
      <point x="706" y="320"/>
      <point x="742" y="320" type="curve" smooth="yes"/>
      <point x="761" y="320"/>
      <point x="768" y="307"/>
      <point x="768" y="279" type="curve" smooth="yes"/>
      <point x="768" y="214"/>
      <point x="742" y="108"/>
    </contour>
  </outline>
</glyph>
<glyph name="ampersand" format="2">
  <advance width="733"/>
  <unicode hex="0026"/>
  <outline>
    <contour>
      <point x="258" y="-10" type="curve" smooth="yes"/>
      <point x="325" y="-10"/>
      <point x="385" y="7"/>
      <point x="428" y="30" type="curve"/>
      <point x="449" y="0" type="line"/>
      <point x="665" y="0" type="line"/>
      <point x="572" y="128" type="line"/>
      <point x="635" y="192"/>
      <point x="695" y="288"/>
      <point x="727" y="401" type="curve"/>
      <point x="540" y="401" type="line"/>
      <point x="526" y="352"/>
      <point x="499" y="294"/>
      <point x="472" y="266" type="curve"/>
      <point x="409" y="357" type="line"/>
      <point x="514" y="411"/>
      <point x="576" y="473"/>
      <point x="576" y="567" type="curve" smooth="yes"/>
      <point x="576" y="670"/>
      <point x="488" y="725"/>
      <point x="373" y="725" type="curve" smooth="yes"/>
      <point x="226" y="725"/>
      <point x="138" y="650"/>
      <point x="138" y="520" type="curve" smooth="yes"/>
      <point x="138" y="489"/>
      <point x="152" y="432"/>
      <point x="179" y="398" type="curve"/>
      <point x="67" y="362"/>
      <point x="4" y="297"/>
      <point x="4" y="188" type="curve" smooth="yes"/>
      <point x="4" y="60"/>
      <point x="103" y="-10"/>
    </contour>
    <contour>
      <point x="279" y="140" type="curve" smooth="yes"/>
      <point x="220" y="140"/>
      <point x="195" y="174"/>
      <point x="195" y="207" type="curve" smooth="yes"/>
      <point x="195" y="239"/>
      <point x="208" y="270"/>
      <point x="252" y="289" type="curve"/>
      <point x="346" y="153" type="line"/>
      <point x="329" y="146"/>
      <point x="306" y="140"/>
    </contour>
    <contour>
      <point x="335" y="463" type="curve"/>
      <point x="315" y="489"/>
      <point x="310" y="519"/>
      <point x="310" y="533" type="curve" smooth="yes"/>
      <point x="310" y="572"/>
      <point x="332" y="596"/>
      <point x="364" y="596" type="curve" smooth="yes"/>
      <point x="388" y="596"/>
      <point x="404" y="577"/>
      <point x="404" y="554" type="curve" smooth="yes"/>
      <point x="404" y="508"/>
      <point x="372" y="478"/>
    </contour>
  </outline>
</glyph>
<glyph name="ampersand.serif" format="2">
  <advance width="844"/>
  <unicode hex="0026"/>
  <outline>
    <contour>
      <point x="278" y="-10" type="curve" smooth="yes"/>
      <point x="374" y="-10"/>
      <point x="448" y="17"/>
      <point x="504" y="59" type="curve"/>
      <point x="547" y="0" type="line"/>
      <point x="768" y="0" type="line"/>
      <point x="780" y="61" type="line"/>
      <point x="775" y="61" type="line" smooth="yes"/>
      <point x="739" y="61"/>
      <point x="704" y="76"/>
      <point x="685" y="101" type="curve" smooth="yes"/>
      <point x="616" y="190" type="line"/>
      <point x="642" y="230"/>
      <point x="662" y="268"/>
      <point x="681" y="302" type="curve" smooth="yes"/>
      <point x="712" y="362"/>
      <point x="755" y="369"/>
      <point x="800" y="369" type="curve" smooth="yes"/>
      <point x="809" y="369" type="line"/>
      <point x="821" y="430" type="line"/>
      <point x="606" y="430" type="line"/>
      <point x="598" y="392" type="line" smooth="yes"/>
      <point x="590" y="352"/>
      <point x="578" y="308"/>
      <point x="560" y="266" type="curve"/>
      <point x="449" y="406" type="line"/>
      <point x="592" y="467"/>
      <point x="627" y="517"/>
      <point x="627" y="594" type="curve" smooth="yes"/>
      <point x="627" y="667"/>
      <point x="570" y="724"/>
      <point x="443" y="724" type="curve" smooth="yes"/>
      <point x="296" y="724"/>
      <point x="211" y="666"/>
      <point x="211" y="552" type="curve" smooth="yes"/>
      <point x="211" y="505"/>
      <point x="228" y="454"/>
      <point x="257" y="403" type="curve"/>
      <point x="138" y="360"/>
      <point x="33" y="313"/>
      <point x="33" y="179" type="curve" smooth="yes"/>
      <point x="33" y="69"/>
      <point x="108" y="-10"/>
    </contour>
    <contour>
      <point x="325" y="65" type="curve" smooth="yes"/>
      <point x="256" y="65"/>
      <point x="216" y="119"/>
      <point x="216" y="191" type="curve" smooth="yes"/>
      <point x="216" y="248"/>
      <point x="240" y="298"/>
      <point x="302" y="339" type="curve"/>
      <point x="460" y="121" type="line"/>
      <point x="422" y="87"/>
      <point x="377" y="65"/>
    </contour>
    <contour>
      <point x="413" y="460" type="curve"/>
      <point x="389" y="493"/>
      <point x="375" y="522"/>
      <point x="375" y="561" type="curve" smooth="yes"/>
      <point x="375" y="620"/>
      <point x="396" y="656"/>
      <point x="441" y="656" type="curve" smooth="yes"/>
      <point x="478" y="656"/>
      <point x="497" y="630"/>
      <point x="497" y="575" type="curve" smooth="yes"/>
      <point x="497" y="522"/>
      <point x="473" y="489"/>
    </contour>
  </outline>
</glyph>
<glyph name="parenleft" format="2">
  <advance width="374"/>
  <unicode hex="0028"/>
  <outline>
    <contour>
      <point x="107" y="-158" type="curve"/>
      <point x="250" y="-158" type="line"/>
      <point x="214" y="-66"/>
      <point x="193" y="58"/>
      <point x="193" y="151" type="curve" smooth="yes"/>
      <point x="193" y="394"/>
      <point x="299" y="580"/>
      <point x="441" y="734" type="curve"/>
      <point x="283" y="734" type="line"/>
      <point x="121" y="567"/>
      <point x="33" y="386"/>
      <point x="33" y="159" type="curve" smooth="yes"/>
      <point x="33" y="55"/>
      <point x="60" y="-75"/>
    </contour>
  </outline>
</glyph>
<glyph name="parenright" format="2">
  <advance width="374"/>
  <unicode hex="0029"/>
  <outline>
    <contour>
      <point x="-65" y="-158" type="curve"/>
      <point x="94" y="-158" type="line"/>
      <point x="256" y="9"/>
      <point x="339" y="190"/>
      <point x="339" y="417" type="curve" smooth="yes"/>
      <point x="339" y="521"/>
      <point x="316" y="645"/>
      <point x="265" y="734" type="curve"/>
      <point x="121" y="734" type="line"/>
      <point x="157" y="642"/>
      <point x="179" y="518"/>
      <point x="179" y="425" type="curve" smooth="yes"/>
      <point x="179" y="182"/>
      <point x="77" y="-4"/>
    </contour>
  </outline>
</glyph>
<glyph name="asterisk" format="2">
  <advance width="542"/>
  <unicode hex="002A"/>
  <outline>
    <contour>
      <point x="338" y="269" type="line"/>
      <point x="477" y="311" type="line"/>
      <point x="405" y="463" type="line"/>
      <point x="556" y="443" type="line"/>
      <point x="567" y="590" type="line"/>
      <point x="387" y="575" type="line"/>
      <point x="444" y="737" type="line"/>
      <point x="294" y="767" type="line"/>
      <point x="279" y="596" type="line"/>
      <point x="123" y="677" type="line"/>
      <point x="74" y="541" type="line"/>
      <point x="220" y="500" type="line"/>
      <point x="96" y="388" type="line"/>
      <point x="218" y="298" type="line"/>
      <point x="299" y="417" type="line"/>
    </contour>
  </outline>
</glyph>
<glyph name="comma" format="2">
  <advance width="306"/>
  <unicode hex="002C"/>
  <outline>
    <contour>
      <point x="-51" y="-129" type="curve"/>
      <point x="90" y="-129" type="line"/>
      <point x="137" y="-56"/>
      <point x="184" y="34"/>
      <point x="215" y="105" type="curve"/>
      <point x="211" y="116" type="line"/>
      <point x="41" y="116" type="line"/>
      <point x="16" y="47"/>
      <point x="-16" y="-50"/>
    </contour>
  </outline>
</glyph>
<glyph name="period" format="2">
  <advance width="306"/>
  <unicode hex="002E"/>
  <outline>
    <contour>
      <point x="85" y="-12" type="curve" smooth="yes"/>
      <point x="159" y="-12"/>
      <point x="207" y="14"/>
      <point x="207" y="100" type="curve" smooth="yes"/>
      <point x="207" y="152"/>
      <point x="171" y="176"/>
      <point x="119" y="176" type="curve" smooth="yes"/>
      <point x="55" y="176"/>
      <point x="0" y="141"/>
      <point x="0" y="62" type="curve" smooth="yes"/>
      <point x="0" y="11"/>
      <point x="34" y="-12"/>
    </contour>
  </outline>
</glyph>
<glyph name="zero" format="2">
  <advance width="580"/>
  <unicode hex="0030"/>
  <outline>
    <contour>
      <point x="239" y="-10" type="curve" smooth="yes"/>
      <point x="459" y="-10"/>
      <point x="565" y="221"/>
      <point x="565" y="480" type="curve" smooth="yes"/>
      <point x="565" y="602"/>
      <point x="510" y="725"/>
      <point x="357" y="725" type="curve" smooth="yes"/>
      <point x="128" y="725"/>
      <point x="31" y="469"/>
      <point x="31" y="227" type="curve" smooth="yes"/>
      <point x="31" y="69"/>
      <point x="108" y="-10"/>
    </contour>
    <contour>
      <point x="258" y="144" type="curve" smooth="yes"/>
      <point x="229" y="144"/>
      <point x="221" y="169"/>
      <point x="221" y="223" type="curve" smooth="yes"/>
      <point x="221" y="367"/>
      <point x="276" y="571"/>
      <point x="335" y="571" type="curve" smooth="yes"/>
      <point x="364" y="571"/>
      <point x="375" y="539"/>
      <point x="375" y="484" type="curve" smooth="yes"/>
      <point x="375" y="345"/>
      <point x="325" y="144"/>
    </contour>
  </outline>
</glyph>
<glyph name="one" format="2">
  <advance width="580"/>
  <unicode hex="0031"/>
  <outline>
    <contour>
      <point x="273" y="390" type="curve" smooth="yes"/>
      <point x="188" y="0" type="line"/>
      <point x="378" y="0" type="line"/>
      <point x="528" y="714" type="line"/>
      <point x="376" y="714" type="line"/>
      <point x="73" y="527" type="line"/>
      <point x="147" y="404" type="line"/>
      <point x="246" y="465" type="line" smooth="yes"/>
      <point x="262" y="475"/>
      <point x="291" y="498"/>
      <point x="310" y="515" type="curve"/>
      <point x="297" y="482"/>
      <point x="281" y="427"/>
    </contour>
  </outline>
</glyph>
<glyph name="two" format="2">
  <advance width="580"/>
  <unicode hex="0032"/>
  <outline>
    <contour>
      <point x="-28" y="0" type="line"/>
      <point x="463" y="0" type="line"/>
      <point x="496" y="159" type="line"/>
      <point x="257" y="159" type="line"/>
      <point x="257" y="165" type="line"/>
      <point x="357" y="251" type="line" smooth="yes"/>
      <point x="503" y="377"/>
      <point x="545" y="451"/>
      <point x="545" y="544" type="curve" smooth="yes"/>
      <point x="545" y="656"/>
      <point x="464" y="724"/>
      <point x="346" y="724" type="curve" smooth="yes"/>
      <point x="238" y="724"/>
      <point x="152" y="682"/>
      <point x="82" y="616" type="curve"/>
      <point x="173" y="490" type="line"/>
      <point x="224" y="537"/>
      <point x="268" y="562"/>
      <point x="310" y="562" type="curve" smooth="yes"/>
      <point x="336" y="562"/>
      <point x="355" y="546"/>
      <point x="355" y="514" type="curve" smooth="yes"/>
      <point x="355" y="478"/>
      <point x="329" y="423"/>
      <point x="234" y="338" type="curve" smooth="yes"/>
      <point x="-2" y="125" type="line"/>
    </contour>
  </outline>
</glyph>
<glyph name="three" format="2">
  <advance width="580"/>
  <unicode hex="0033"/>
  <outline>
    <contour>
      <point x="195" y="-10" type="curve" smooth="yes"/>
      <point x="370" y="-10"/>
      <point x="517" y="55"/>
      <point x="517" y="210" type="curve" smooth="yes"/>
      <point x="517" y="288"/>
      <point x="471" y="351"/>
      <point x="383" y="368" type="curve"/>
      <point x="383" y="372" type="line"/>
      <point x="480" y="392"/>
      <point x="550" y="450"/>
      <point x="550" y="555" type="curve" smooth="yes"/>
      <point x="550" y="661"/>
      <point x="462" y="724"/>
      <point x="334" y="724" type="curve" smooth="yes"/>
      <point x="224" y="724"/>
      <point x="158" y="696"/>
      <point x="89" y="652" type="curve"/>
      <point x="166" y="531" type="line"/>
      <point x="211" y="555"/>
      <point x="254" y="572"/>
      <point x="298" y="572" type="curve" smooth="yes"/>
      <point x="347" y="572"/>
      <point x="364" y="545"/>
      <point x="364" y="522" type="curve" smooth="yes"/>
      <point x="364" y="468"/>
      <point x="305" y="437"/>
      <point x="212" y="437" type="curve" smooth="yes"/>
      <point x="174" y="437" type="line"/>
      <point x="148" y="295" type="line"/>
      <point x="189" y="295" type="line" smooth="yes"/>
      <point x="303" y="295"/>
      <point x="325" y="272"/>
      <point x="325" y="230" type="curve" smooth="yes"/>
      <point x="325" y="166"/>
      <point x="268" y="142"/>
      <point x="191" y="142" type="curve" smooth="yes"/>
      <point x="128" y="142"/>
      <point x="65" y="156"/>
      <point x="7" y="191" type="curve"/>
      <point x="7" y="29" type="line"/>
      <point x="50" y="4"/>
      <point x="124" y="-10"/>
    </contour>
  </outline>
</glyph>
<glyph name="four" format="2">
  <advance width="580"/>
  <unicode hex="0034"/>
  <outline>
    <contour>
      <point x="234" y="0" type="line"/>
      <point x="418" y="0" type="line"/>
      <point x="447" y="138" type="line"/>
      <point x="520" y="138" type="line"/>
      <point x="550" y="282" type="line"/>
      <point x="477" y="282" type="line"/>
      <point x="568" y="714" type="line"/>
      <point x="392" y="714" type="line"/>
      <point x="20" y="263" type="line"/>
      <point x="-5" y="138" type="line"/>
      <point x="263" y="138" type="line"/>
    </contour>
    <contour>
      <point x="191" y="282" type="line"/>
      <point x="286" y="396" type="line" smooth="yes"/>
      <point x="306" y="419"/>
      <point x="330" y="458"/>
      <point x="342" y="480" type="curve"/>
      <point x="346" y="480" type="line"/>
      <point x="342" y="467"/>
      <point x="326" y="411"/>
      <point x="317" y="377" type="curve" smooth="yes"/>
      <point x="293" y="282" type="line"/>
    </contour>
  </outline>
</glyph>
<glyph name="five" format="2">
  <advance width="580"/>
  <unicode hex="0035"/>
  <outline>
    <contour>
      <point x="212" y="-10" type="curve" smooth="yes"/>
      <point x="398" y="-10"/>
      <point x="518" y="76"/>
      <point x="518" y="256" type="curve" smooth="yes"/>
      <point x="518" y="393"/>
      <point x="430" y="468"/>
      <point x="320" y="468" type="curve" smooth="yes"/>
      <point x="312" y="468"/>
      <point x="300" y="468"/>
      <point x="283" y="466" type="curve"/>
      <point x="312" y="556" type="line"/>
      <point x="542" y="556" type="line"/>
      <point x="575" y="714" type="line"/>
      <point x="178" y="714" type="line"/>
      <point x="73" y="348" type="line"/>
      <point x="133" y="303" type="line"/>
      <point x="157" y="312"/>
      <point x="198" y="319"/>
      <point x="232" y="319" type="curve" smooth="yes"/>
      <point x="293" y="319"/>
      <point x="323" y="281"/>
      <point x="323" y="236" type="curve" smooth="yes"/>
      <point x="323" y="170"/>
      <point x="274" y="142"/>
      <point x="188" y="142" type="curve" smooth="yes"/>
      <point x="132" y="142"/>
      <point x="58" y="161"/>
      <point x="10" y="189" type="curve"/>
      <point x="10" y="31" type="line"/>
      <point x="48" y="3"/>
      <point x="139" y="-10"/>
    </contour>
  </outline>
</glyph>
<glyph name="six" format="2">
  <advance width="580"/>
  <unicode hex="0036"/>
  <outline>
    <contour>
      <point x="272" y="-10" type="curve" smooth="yes"/>
      <point x="443" y="-10"/>
      <point x="540" y="115"/>
      <point x="540" y="281" type="curve" smooth="yes"/>
      <point x="540" y="415"/>
      <point x="478" y="477"/>
      <point x="380" y="477" type="curve" smooth="yes"/>
      <point x="298" y="477"/>
      <point x="256" y="436"/>
      <point x="230" y="394" type="curve"/>
      <point x="226" y="394" type="line"/>
      <point x="265" y="517"/>
      <point x="314" y="573"/>
      <point x="468" y="573" type="curve" smooth="yes"/>
      <point x="494" y="573"/>
      <point x="532" y="568"/>
      <point x="557" y="561" type="curve"/>
      <point x="588" y="709" type="line"/>
      <point x="550" y="718"/>
      <point x="511" y="724"/>
      <point x="474" y="724" type="curve" smooth="yes"/>
      <point x="341" y="724"/>
      <point x="262" y="708"/>
      <point x="176" y="628" type="curve" smooth="yes"/>
      <point x="88" y="547"/>
      <point x="39" y="386"/>
      <point x="39" y="249" type="curve" smooth="yes"/>
      <point x="39" y="95"/>
      <point x="109" y="-10"/>
    </contour>
    <contour>
      <point x="274" y="140" type="curve" smooth="yes"/>
      <point x="245" y="140"/>
      <point x="226" y="162"/>
      <point x="226" y="205" type="curve" smooth="yes"/>
      <point x="226" y="226"/>
      <point x="229" y="246"/>
      <point x="234" y="263" type="curve" smooth="yes"/>
      <point x="247" y="303"/>
      <point x="272" y="329"/>
      <point x="303" y="329" type="curve" smooth="yes"/>
      <point x="334" y="329"/>
      <point x="348" y="305"/>
      <point x="348" y="266" type="curve" smooth="yes"/>
      <point x="348" y="203"/>
      <point x="323" y="140"/>
    </contour>
  </outline>
</glyph>
<glyph name="seven" format="2">
  <advance width="580"/>
  <unicode hex="0037"/>
  <outline>
    <contour>
      <point x="17" y="0" type="line"/>
      <point x="236" y="0" type="line"/>
      <point x="599" y="601" type="line"/>
      <point x="624" y="714" type="line"/>
      <point x="121" y="714" type="line"/>
      <point x="87" y="554" type="line"/>
      <point x="367" y="554" type="line"/>
    </contour>
  </outline>
</glyph>
<glyph name="eight" format="2">
  <advance width="580"/>
  <unicode hex="0038"/>
  <outline>
    <contour>
      <point x="262" y="-10" type="curve" smooth="yes"/>
      <point x="422" y="-10"/>
      <point x="520" y="70"/>
      <point x="520" y="205" type="curve" smooth="yes"/>
      <point x="520" y="281"/>
      <point x="488" y="336"/>
      <point x="428" y="382" type="curve"/>
      <point x="517" y="411"/>
      <point x="565" y="486"/>
      <point x="565" y="562" type="curve" smooth="yes"/>
      <point x="565" y="655"/>
      <point x="490" y="725"/>
      <point x="354" y="725" type="curve" smooth="yes"/>
      <point x="193" y="725"/>
      <point x="110" y="630"/>
      <point x="110" y="520" type="curve" smooth="yes"/>
      <point x="110" y="443"/>
      <point x="146" y="401"/>
      <point x="186" y="369" type="curve"/>
      <point x="81" y="332"/>
      <point x="24" y="264"/>
      <point x="24" y="165" type="curve" smooth="yes"/>
      <point x="24" y="69"/>
      <point x="106" y="-10"/>
    </contour>
    <contour>
      <point x="267" y="128" type="curve" smooth="yes"/>
      <point x="235" y="128"/>
      <point x="202" y="148"/>
      <point x="202" y="188" type="curve" smooth="yes"/>
      <point x="202" y="236"/>
      <point x="238" y="272"/>
      <point x="285" y="297" type="curve"/>
      <point x="321" y="273"/>
      <point x="343" y="241"/>
      <point x="343" y="202" type="curve" smooth="yes"/>
      <point x="343" y="155"/>
      <point x="309" y="128"/>
    </contour>
    <contour>
      <point x="329" y="454" type="curve"/>
      <point x="304" y="466"/>
      <point x="287" y="494"/>
      <point x="287" y="520" type="curve" smooth="yes"/>
      <point x="287" y="558"/>
      <point x="314" y="587"/>
      <point x="345" y="587" type="curve" smooth="yes"/>
      <point x="369" y="587"/>
      <point x="391" y="571"/>
      <point x="391" y="539" type="curve" smooth="yes"/>
      <point x="391" y="508"/>
      <point x="371" y="470"/>
    </contour>
  </outline>
</glyph>
<glyph name="nine" format="2">
  <advance width="580"/>
  <unicode hex="0039"/>
  <outline>
    <contour>
      <point x="155" y="-10" type="curve" smooth="yes"/>
      <point x="270" y="-10"/>
      <point x="356" y="27"/>
      <point x="418" y="86" type="curve" smooth="yes"/>
      <point x="517" y="180"/>
      <point x="555" y="328"/>
      <point x="555" y="465" type="curve" smooth="yes"/>
      <point x="555" y="616"/>
      <point x="486" y="724"/>
      <point x="323" y="724" type="curve" smooth="yes"/>
      <point x="136" y="724"/>
      <point x="53" y="587"/>
      <point x="53" y="433" type="curve" smooth="yes"/>
      <point x="53" y="313"/>
      <point x="113" y="235"/>
      <point x="213" y="235" type="curve" smooth="yes"/>
      <point x="295" y="235"/>
      <point x="334" y="278"/>
      <point x="360" y="320" type="curve"/>
      <point x="364" y="320" type="line"/>
      <point x="338" y="201"/>
      <point x="274" y="146"/>
      <point x="151" y="140" type="curve" smooth="yes"/>
      <point x="114" y="138"/>
      <point x="84" y="145"/>
      <point x="52" y="158" type="curve"/>
      <point x="52" y="5" type="line"/>
      <point x="81" y="-4"/>
      <point x="114" y="-10"/>
    </contour>
    <contour>
      <point x="290" y="385" type="curve" smooth="yes"/>
      <point x="260" y="385"/>
      <point x="245" y="408"/>
      <point x="245" y="455" type="curve" smooth="yes"/>
      <point x="245" y="519"/>
      <point x="277" y="574"/>
      <point x="320" y="574" type="curve" smooth="yes"/>
      <point x="351" y="574"/>
      <point x="368" y="543"/>
      <point x="368" y="503" type="curve" smooth="yes"/>
      <point x="368" y="482"/>
      <point x="364" y="463"/>
      <point x="358" y="446" type="curve" smooth="yes"/>
      <point x="345" y="410"/>
      <point x="320" y="385"/>
    </contour>
  </outline>
</glyph>
<glyph name="colon" format="2">
  <advance width="306"/>
  <unicode hex="003A"/>
  <outline>
    <contour>
      <point x="180" y="372" type="curve" smooth="yes"/>
      <point x="254" y="372"/>
      <point x="302" y="398"/>
      <point x="302" y="485" type="curve" smooth="yes"/>
      <point x="302" y="536"/>
      <point x="266" y="560"/>
      <point x="213" y="560" type="curve" smooth="yes"/>
      <point x="149" y="560"/>
      <point x="95" y="526"/>
      <point x="95" y="447" type="curve" smooth="yes"/>
      <point x="95" y="396"/>
      <point x="129" y="372"/>
    </contour>
    <contour>
      <point x="85" y="-12" type="curve" smooth="yes"/>
      <point x="159" y="-12"/>
      <point x="207" y="14"/>
      <point x="207" y="100" type="curve" smooth="yes"/>
      <point x="207" y="152"/>
      <point x="171" y="176"/>
      <point x="119" y="176" type="curve" smooth="yes"/>
      <point x="55" y="176"/>
      <point x="0" y="141"/>
      <point x="0" y="62" type="curve" smooth="yes"/>
      <point x="0" y="11"/>
      <point x="34" y="-12"/>
    </contour>
  </outline>
</glyph>
<glyph name="semicolon" format="2">
  <advance width="306"/>
  <unicode hex="003B"/>
  <outline>
    <contour>
      <point x="-57" y="-129" type="curve"/>
      <point x="84" y="-129" type="line"/>
      <point x="131" y="-56"/>
      <point x="178" y="34"/>
      <point x="209" y="105" type="curve"/>
      <point x="205" y="116" type="line"/>
      <point x="35" y="116" type="line"/>
      <point x="10" y="47"/>
      <point x="-22" y="-50"/>
    </contour>
    <contour>
      <point x="180" y="372" type="curve" smooth="yes"/>
      <point x="254" y="372"/>
      <point x="302" y="398"/>
      <point x="302" y="485" type="curve" smooth="yes"/>
      <point x="302" y="536"/>
      <point x="266" y="560"/>
      <point x="213" y="560" type="curve" smooth="yes"/>
      <point x="149" y="560"/>
      <point x="95" y="526"/>
      <point x="95" y="447" type="curve" smooth="yes"/>
      <point x="95" y="396"/>
      <point x="129" y="372"/>
    </contour>
  </outline>
</glyph>
<glyph name="question" format="2">
  <advance width="488"/>
  <unicode hex="003F"/>
  <outline>
    <contour>
      <point x="122" y="252" type="curve"/>
      <point x="282" y="252" type="line"/>
      <point x="299" y="303"/>
      <point x="307" y="317"/>
      <point x="383" y="363" type="curve" smooth="yes"/>
      <point x="452" y="405"/>
      <point x="518" y="449"/>
      <point x="518" y="559" type="curve" smooth="yes"/>
      <point x="518" y="661"/>
      <point x="436" y="724"/>
      <point x="304" y="724" type="curve" smooth="yes"/>
      <point x="220" y="724"/>
      <point x="141" y="695"/>
      <point x="79" y="658" type="curve"/>
      <point x="137" y="520" type="line"/>
      <point x="199" y="556"/>
      <point x="254" y="573"/>
      <point x="290" y="573" type="curve" smooth="yes"/>
      <point x="324" y="573"/>
      <point x="334" y="559"/>
      <point x="334" y="539" type="curve" smooth="yes"/>
      <point x="334" y="516"/>
      <point x="320" y="498"/>
      <point x="255" y="455" type="curve" smooth="yes"/>
      <point x="170" y="397"/>
      <point x="142" y="361"/>
    </contour>
    <contour>
      <point x="163" y="-12" type="curve" smooth="yes"/>
      <point x="231" y="-12"/>
      <point x="279" y="25"/>
      <point x="279" y="100" type="curve" smooth="yes"/>
      <point x="279" y="148"/>
      <point x="247" y="176"/>
      <point x="191" y="176" type="curve" smooth="yes"/>
      <point x="111" y="176"/>
      <point x="72" y="126"/>
      <point x="72" y="62" type="curve" smooth="yes"/>
      <point x="72" y="24"/>
      <point x="94" y="-12"/>
    </contour>
  </outline>
</glyph>
<glyph name="at" format="2">
  <advance width="897"/>
  <unicode hex="0040"/>
  <outline>
    <contour>
      <point x="381" y="-91" type="curve" smooth="yes"/>
      <point x="467" y="-91"/>
      <point x="558" y="-69"/>
      <point x="613" y="-43" type="curve"/>
      <point x="613" y="67" type="line"/>
      <point x="535" y="36"/>
      <point x="443" y="21"/>
      <point x="379" y="21" type="curve" smooth="yes"/>
      <point x="269" y="21"/>
      <point x="168" y="98"/>
      <point x="168" y="256" type="curve" smooth="yes"/>
      <point x="168" y="473"/>
      <point x="303" y="612"/>
      <point x="486" y="612" type="curve" smooth="yes"/>
      <point x="659" y="612"/>
      <point x="738" y="530"/>
      <point x="738" y="401" type="curve" smooth="yes"/>
      <point x="738" y="269"/>
      <point x="681" y="209"/>
      <point x="627" y="209" type="curve" smooth="yes"/>
      <point x="614" y="209"/>
      <point x="608" y="217"/>
      <point x="608" y="229" type="curve" smooth="yes"/>
      <point x="608" y="248"/>
      <point x="612" y="267"/>
      <point x="619" y="296" type="curve" smooth="yes"/>
      <point x="668" y="498" type="line"/>
      <point x="616" y="518"/>
      <point x="558" y="532"/>
      <point x="504" y="532" type="curve" smooth="yes"/>
      <point x="322" y="532"/>
      <point x="237" y="376"/>
      <point x="237" y="250" type="curve" smooth="yes"/>
      <point x="237" y="160"/>
      <point x="290" y="101"/>
      <point x="366" y="101" type="curve" smooth="yes"/>
      <point x="427" y="101"/>
      <point x="466" y="122"/>
      <point x="497" y="164" type="curve"/>
      <point x="502" y="164" type="line"/>
      <point x="519" y="120"/>
      <point x="557" y="101"/>
      <point x="609" y="101" type="curve" smooth="yes"/>
      <point x="756" y="101"/>
      <point x="866" y="235"/>
      <point x="866" y="404" type="curve" smooth="yes"/>
      <point x="866" y="607"/>
      <point x="726" y="724"/>
      <point x="498" y="724" type="curve" smooth="yes"/>
      <point x="255" y="724"/>
      <point x="40" y="556"/>
      <point x="40" y="244" type="curve" smooth="yes"/>
      <point x="40" y="34"/>
      <point x="179" y="-91"/>
    </contour>
    <contour>
      <point x="411" y="209" type="curve" smooth="yes"/>
      <point x="387" y="209"/>
      <point x="373" y="224"/>
      <point x="373" y="260" type="curve" smooth="yes"/>
      <point x="373" y="323"/>
      <point x="410" y="424"/>
      <point x="494" y="424" type="curve" smooth="yes"/>
      <point x="504" y="424"/>
      <point x="512" y="422"/>
      <point x="519" y="419" type="curve"/>
      <point x="496" y="326" type="line" smooth="yes"/>
      <point x="473" y="236"/>
      <point x="449" y="209"/>
    </contour>
  </outline>
</glyph>
<glyph name="at.serif" format="2">
  <advance width="921"/>
  <unicode hex="0040"/>
  <outline>
    <contour>
      <point x="437" y="-142" type="curve" smooth="yes"/>
      <point x="559" y="-142"/>
      <point x="672" y="-102"/>
      <point x="741" y="-46" type="curve"/>
      <point x="716" y="-7" type="line"/>
      <point x="651" y="-53"/>
      <point x="554" y="-92"/>
      <point x="454" y="-92" type="curve" smooth="yes"/>
      <point x="280" y="-92"/>
      <point x="139" y="5"/>
      <point x="139" y="251" type="curve" smooth="yes"/>
      <point x="139" y="506"/>
      <point x="322" y="663"/>
      <point x="509" y="663" type="curve" smooth="yes"/>
      <point x="666" y="663"/>
      <point x="783" y="572"/>
      <point x="783" y="383" type="curve" smooth="yes"/>
      <point x="783" y="223"/>
      <point x="727" y="139"/>
      <point x="678" y="139" type="curve" smooth="yes"/>
      <point x="664" y="139"/>
      <point x="640" y="144"/>
      <point x="640" y="205" type="curve" smooth="yes"/>
      <point x="640" y="213"/>
      <point x="643" y="253"/>
      <point x="647" y="274" type="curve" smooth="yes"/>
      <point x="682" y="520" type="line"/>
      <point x="658" y="520" type="line"/>
      <point x="615" y="499" type="line"/>
      <point x="593" y="515"/>
      <point x="558" y="529"/>
      <point x="510" y="529" type="curve" smooth="yes"/>
      <point x="309" y="529"/>
      <point x="231" y="355"/>
      <point x="231" y="248" type="curve" smooth="yes"/>
      <point x="231" y="131"/>
      <point x="305" y="77"/>
      <point x="392" y="77" type="curve" smooth="yes"/>
      <point x="463" y="77"/>
      <point x="504" y="121"/>
      <point x="532" y="173" type="curve"/>
      <point x="539" y="173" type="line"/>
      <point x="563" y="99"/>
      <point x="606" y="77"/>
      <point x="665" y="77" type="curve" smooth="yes"/>
      <point x="775" y="77"/>
      <point x="879" y="189"/>
      <point x="879" y="392" type="curve" smooth="yes"/>
      <point x="879" y="573"/>
      <point x="752" y="714"/>
      <point x="516" y="714" type="curve" smooth="yes"/>
      <point x="236" y="714"/>
      <point x="27" y="520"/>
      <point x="27" y="263" type="curve" smooth="yes"/>
      <point x="27" y="-8"/>
      <point x="219" y="-142"/>
    </contour>
    <contour>
      <point x="431" y="139" type="curve" smooth="yes"/>
      <point x="398" y="139"/>
      <point x="376" y="178"/>
      <point x="376" y="241" type="curve" smooth="yes"/>
      <point x="376" y="317"/>
      <point x="413" y="483"/>
      <point x="500" y="483" type="curve" smooth="yes"/>
      <point x="519" y="483"/>
      <point x="543" y="474"/>
      <point x="551" y="456" type="curve"/>
      <point x="510" y="252" type="line" smooth="yes"/>
      <point x="499" y="196"/>
      <point x="480" y="139"/>
    </contour>
  </outline>
</glyph>
<glyph name="A" format="2">
  <advance width="676"/>
  <unicode hex="0041"/>
  <anchor x="279" y="0" name="bottom"/>
  <anchor x="431" y="714" name="top"/>
  <anchor x="749" y="714" name="topright"/>
  <outline>
    <contour>
      <point x="-59" y="0" type="line"/>
      <point x="139" y="0" type="line"/>
      <point x="200" y="134" type="line"/>
      <point x="419" y="134" type="line"/>
      <point x="424" y="0" type="line"/>
      <point x="610" y="0" type="line"/>
      <point x="550" y="714" type="line"/>
      <point x="304" y="714" type="line"/>
    </contour>
    <contour>
      <point x="270" y="286" type="line"/>
      <point x="367" y="495" type="line" smooth="yes"/>
      <point x="381" y="525"/>
      <point x="392" y="553"/>
      <point x="402" y="583" type="curve"/>
      <point x="405" y="583" type="line"/>
      <point x="404" y="555"/>
      <point x="405" y="523"/>
      <point x="406" y="491" type="curve" smooth="yes"/>
      <point x="413" y="286" type="line"/>
    </contour>
  </outline>
</glyph>
<glyph name="B" format="2">
  <advance width="634"/>
  <unicode hex="0042"/>
  <anchor x="292" y="0" name="bottom"/>
  <anchor x="410" y="714" name="top"/>
  <anchor x="707" y="714" name="topright"/>
  <outline>
    <contour>
      <point x="16" y="0" type="line"/>
      <point x="283" y="0" type="line" smooth="yes"/>
      <point x="442" y="0"/>
      <point x="569" y="67"/>
      <point x="569" y="234" type="curve" smooth="yes"/>
      <point x="569" y="302"/>
      <point x="532" y="351"/>
      <point x="475" y="370" type="curve"/>
      <point x="475" y="374" type="line"/>
      <point x="568" y="402"/>
      <point x="620" y="461"/>
      <point x="620" y="558" type="curve" smooth="yes"/>
      <point x="620" y="649"/>
      <point x="558" y="714"/>
      <point x="405" y="714" type="curve" smooth="yes"/>
      <point x="167" y="714" type="line"/>
    </contour>
    <contour>
      <point x="279" y="149" type="curve" smooth="yes"/>
      <point x="239" y="149" type="line"/>
      <point x="271" y="299" type="line"/>
      <point x="304" y="299" type="line" smooth="yes"/>
      <point x="358" y="299"/>
      <point x="377" y="277"/>
      <point x="377" y="232" type="curve" smooth="yes"/>
      <point x="377" y="186"/>
      <point x="337" y="149"/>
    </contour>
    <contour>
      <point x="335" y="440" type="curve" smooth="yes"/>
      <point x="300" y="440" type="line"/>
      <point x="329" y="568" type="line"/>
      <point x="360" y="568" type="line" smooth="yes"/>
      <point x="402" y="568"/>
      <point x="422" y="550"/>
      <point x="422" y="518" type="curve" smooth="yes"/>
      <point x="422" y="472"/>
      <point x="402" y="440"/>
    </contour>
  </outline>
</glyph>
<glyph name="C" format="2">
  <advance width="630"/>
  <unicode hex="0043"/>
  <anchor x="328" y="0" name="bottom"/>
  <anchor x="430" y="714" name="top"/>
  <anchor x="703" y="714" name="topright"/>
  <outline>
    <contour>
      <point x="315" y="-10" type="curve" smooth="yes"/>
      <point x="389" y="-10"/>
      <point x="460" y="3"/>
      <point x="530" y="34" type="curve"/>
      <point x="530" y="192" type="line"/>
      <point x="459" y="162"/>
      <point x="408" y="148"/>
      <point x="350" y="148" type="curve" smooth="yes"/>
      <point x="282" y="148"/>
      <point x="244" y="191"/>
      <point x="244" y="278" type="curve" smooth="yes"/>
      <point x="244" y="425"/>
      <point x="314" y="566"/>
      <point x="430" y="566" type="curve" smooth="yes"/>
      <point x="485" y="566"/>
      <point x="532" y="548"/>
      <point x="593" y="512" type="curve"/>
      <point x="665" y="661" type="line"/>
      <point x="598" y="701"/>
      <point x="525" y="725"/>
      <point x="430" y="725" type="curve" smooth="yes"/>
      <point x="162" y="725"/>
      <point x="51" y="481"/>
      <point x="51" y="268" type="curve" smooth="yes"/>
      <point x="51" y="102"/>
      <point x="136" y="-10"/>
    </contour>
  </outline>
</glyph>
<glyph name="C.serif" format="2">
  <advance width="698"/>
  <unicode hex="0043"/>
  <anchor x="372" y="0" name="bottom"/>
  <anchor x="523" y="714" name="top"/>
  <anchor x="773" y="714" name="topright"/>
  <outline>
    <contour>
      <point x="394" y="-10" type="curve" smooth="yes"/>
      <point x="548" y="-10"/>
      <point x="645" y="67"/>
      <point x="645" y="144" type="curve" smooth="yes"/>
      <point x="645" y="159"/>
      <point x="633" y="173"/>
      <point x="625" y="179" type="curve"/>
      <point x="592" y="134"/>
      <point x="539" y="88"/>
      <point x="448" y="88" type="curve" smooth="yes"/>
      <point x="336" y="88"/>
      <point x="279" y="151"/>
      <point x="279" y="276" type="curve" smooth="yes"/>
      <point x="279" y="432"/>
      <point x="359" y="659"/>
      <point x="496" y="659" type="curve" smooth="yes"/>
      <point x="560" y="659"/>
      <point x="570" y="564"/>
      <point x="570" y="507" type="curve"/>
      <point x="668" y="507"/>
      <point x="743" y="541"/>
      <point x="743" y="615" type="curve" smooth="yes"/>
      <point x="743" y="682"/>
      <point x="679" y="731"/>
      <point x="535" y="731" type="curve" smooth="yes"/>
      <point x="255" y="731"/>
      <point x="71" y="501"/>
      <point x="71" y="260" type="curve" smooth="yes"/>
      <point x="71" y="89"/>
      <point x="190" y="-10"/>
    </contour>
  </outline>
</glyph>
<glyph name="D" format="2">
  <advance width="684"/>
  <unicode hex="0044"/>
  <anchor x="284" y="0" name="bottom"/>
  <anchor x="384" y="357" name="center"/>
  <anchor x="425" y="714" name="top"/>
  <anchor x="757" y="714" name="topright"/>
  <outline>
    <contour>
      <point x="16" y="0" type="line"/>
      <point x="246" y="0" type="line" smooth="yes"/>
      <point x="501" y="0"/>
      <point x="653" y="167"/>
      <point x="653" y="444" type="curve" smooth="yes"/>
      <point x="653" y="620"/>
      <point x="545" y="714"/>
      <point x="370" y="714" type="curve" smooth="yes"/>
      <point x="167" y="714" type="line"/>
    </contour>
    <contour>
      <point x="275" y="158" type="curve" smooth="yes"/>
      <point x="241" y="158" type="line"/>
      <point x="325" y="558" type="line"/>
      <point x="360" y="558" type="line" smooth="yes"/>
      <point x="423" y="558"/>
      <point x="460" y="515"/>
      <point x="460" y="434" type="curve" smooth="yes"/>
      <point x="460" y="269"/>
      <point x="385" y="158"/>
    </contour>
  </outline>
</glyph>
<glyph name="D.serif" format="2">
  <advance width="800"/>
  <unicode hex="0044"/>
  <anchor x="343" y="0" name="bottom"/>
  <anchor x="438" y="357" name="center"/>
  <anchor x="495" y="714" name="top"/>
  <anchor x="875" y="714" name="topright"/>
  <outline>
    <contour>
      <point x="-26" y="0" type="line"/>
      <point x="353" y="0" type="line" smooth="yes"/>
      <point x="634" y="0"/>
      <point x="791" y="204"/>
      <point x="791" y="442" type="curve" smooth="yes"/>
      <point x="791" y="619"/>
      <point x="673" y="714"/>
      <point x="474" y="714" type="curve" smooth="yes"/>
      <point x="125" y="714" type="line"/>
      <point x="112" y="653" type="line"/>
      <point x="125" y="653" type="line" smooth="yes"/>
      <point x="171" y="653"/>
      <point x="196" y="647"/>
      <point x="196" y="623" type="curve" smooth="yes"/>
      <point x="196" y="615"/>
      <point x="192" y="599"/>
      <point x="187" y="578" type="curve" smooth="yes"/>
      <point x="89" y="112" type="line" smooth="yes"/>
      <point x="80" y="68"/>
      <point x="41" y="61"/>
      <point x="2" y="61" type="curve" smooth="yes"/>
      <point x="-13" y="61" type="line"/>
    </contour>
    <contour>
      <point x="295" y="70" type="curve" smooth="yes"/>
      <point x="279" y="70" type="line"/>
      <point x="399" y="645" type="line"/>
      <point x="416" y="645" type="line" smooth="yes"/>
      <point x="517" y="645"/>
      <point x="580" y="583"/>
      <point x="580" y="448" type="curve" smooth="yes"/>
      <point x="580" y="226"/>
      <point x="475" y="70"/>
    </contour>
  </outline>
</glyph>
<glyph name="E" format="2">
  <advance width="562"/>
  <unicode hex="0045"/>
  <anchor x="262" y="0" name="bottom"/>
  <anchor x="384" y="714" name="top"/>
  <anchor x="635" y="714" name="topright"/>
  <outline>
    <contour>
      <point x="16" y="0" type="line"/>
      <point x="440" y="0" type="line"/>
      <point x="473" y="157" type="line"/>
      <point x="240" y="157" type="line"/>
      <point x="268" y="292" type="line"/>
      <point x="485" y="292" type="line"/>
      <point x="520" y="447" type="line"/>
      <point x="303" y="447" type="line"/>
      <point x="326" y="559" type="line"/>
      <point x="559" y="559" type="line"/>
      <point x="591" y="714" type="line"/>
      <point x="167" y="714" type="line"/>
    </contour>
  </outline>
</glyph>
<glyph name="E.serif" format="2">
  <advance width="661"/>
  <unicode hex="0045"/>
  <anchor x="274" y="0" name="bottom"/>
  <anchor x="426" y="714" name="top"/>
  <anchor x="736" y="714" name="topright"/>
  <outline>
    <contour>
      <point x="-25" y="0" type="line"/>
      <point x="577" y="0" type="line"/>
      <point x="625" y="194" type="line"/>
      <point x="540" y="194" type="line"/>
      <point x="524" y="151" type="line" smooth="yes"/>
      <point x="508" y="107"/>
      <point x="474" y="69"/>
      <point x="411" y="69" type="curve" smooth="yes"/>
      <point x="278" y="69" type="line"/>
      <point x="335" y="339" type="line"/>
      <point x="552" y="339" type="line"/>
      <point x="567" y="407" type="line"/>
      <point x="351" y="407" type="line"/>
      <point x="401" y="645" type="line"/>
      <point x="508" y="645" type="line" smooth="yes"/>
      <point x="560" y="645"/>
      <point x="579" y="615"/>
      <point x="579" y="578" type="curve" smooth="yes"/>
      <point x="579" y="573"/>
      <point x="575" y="529"/>
      <point x="574" y="520" type="curve"/>
      <point x="659" y="520" type="line"/>
      <point x="696" y="714" type="line"/>
      <point x="124" y="714" type="line"/>
      <point x="112" y="653" type="line"/>
      <point x="125" y="653" type="line" smooth="yes"/>
      <point x="168" y="653"/>
      <point x="197" y="647"/>
      <point x="197" y="624" type="curve" smooth="yes"/>
      <point x="197" y="616"/>
      <point x="194" y="605"/>
      <point x="192" y="594" type="curve" smooth="yes"/>
      <point x="90" y="116" type="line" smooth="yes"/>
      <point x="80" y="70"/>
      <point x="42" y="61"/>
      <point x="1" y="61" type="curve" smooth="yes"/>
      <point x="-12" y="61" type="line"/>
    </contour>
  </outline>
</glyph>
<glyph name="F" format="2">
  <advance width="569"/>
  <unicode hex="0046"/>
  <anchor x="226" y="0" name="bottom"/>
  <anchor x="378" y="714" name="top"/>
  <anchor x="642" y="714" name="topright"/>
  <outline>
    <contour>
      <point x="16" y="0" type="line"/>
      <point x="207" y="0" type="line"/>
      <point x="262" y="267" type="line"/>
      <point x="476" y="267" type="line"/>
      <point x="510" y="423" type="line"/>
      <point x="297" y="423" type="line"/>
      <point x="325" y="559" type="line"/>
      <point x="555" y="559" type="line"/>
      <point x="588" y="714" type="line"/>
      <point x="167" y="714" type="line"/>
    </contour>
  </outline>
</glyph>
<glyph name="F.serif" format="2">
  <advance width="644"/>
  <unicode hex="0046"/>
  <anchor x="163" y="0" name="bottom"/>
  <anchor x="417" y="714" name="top"/>
  <anchor x="719" y="714" name="topright"/>
  <outline>
    <contour>
      <point x="-25" y="0" type="line"/>
      <point x="343" y="0" type="line"/>
      <point x="357" y="61" type="line"/>
      <point x="343" y="61" type="line" smooth="yes"/>
      <point x="309" y="61"/>
      <point x="282" y="65"/>
      <point x="282" y="86" type="curve" smooth="yes"/>
      <point x="282" y="95"/>
      <point x="285" y="102"/>
      <point x="289" y="121" type="curve" smooth="yes"/>
      <point x="332" y="317" type="line"/>
      <point x="566" y="317" type="line"/>
      <point x="580" y="384" type="line"/>
      <point x="346" y="384" type="line"/>
      <point x="401" y="645" type="line"/>
      <point x="516" y="645" type="line" smooth="yes"/>
      <point x="572" y="645"/>
      <point x="591" y="616"/>
      <point x="591" y="578" type="curve" smooth="yes"/>
      <point x="591" y="573"/>
      <point x="588" y="542"/>
      <point x="586" y="520" type="curve"/>
      <point x="671" y="520" type="line"/>
      <point x="708" y="714" type="line"/>
      <point x="124" y="714" type="line"/>
      <point x="112" y="653" type="line"/>
      <point x="125" y="653" type="line" smooth="yes"/>
      <point x="166" y="653"/>
      <point x="196" y="649"/>
      <point x="196" y="622" type="curve" smooth="yes"/>
      <point x="196" y="606"/>
      <point x="189" y="581"/>
      <point x="184" y="558" type="curve" smooth="yes"/>
      <point x="90" y="116" type="line"/>
      <point x="82" y="69"/>
      <point x="42" y="61"/>
      <point x="1" y="61" type="curve" smooth="yes"/>
      <point x="-12" y="61" type="line"/>
    </contour>
  </outline>
</glyph>
<glyph name="G" format="2">
  <advance width="698"/>
  <unicode hex="0047"/>
  <anchor x="332" y="0" name="bottom"/>
  <anchor x="456" y="714" name="top"/>
  <anchor x="771" y="714" name="topright"/>
  <outline>
    <contour>
      <point x="319" y="-10" type="curve" smooth="yes"/>
      <point x="426" y="-10"/>
      <point x="505" y="8"/>
      <point x="573" y="30" type="curve"/>
      <point x="655" y="418" type="line"/>
      <point x="357" y="418" type="line"/>
      <point x="324" y="269" type="line"/>
      <point x="436" y="269" type="line"/>
      <point x="411" y="156" type="line"/>
      <point x="385" y="151"/>
      <point x="372" y="149"/>
      <point x="346" y="149" type="curve" smooth="yes"/>
      <point x="280" y="149"/>
      <point x="244" y="188"/>
      <point x="244" y="278" type="curve" smooth="yes"/>
      <point x="244" y="389"/>
      <point x="300" y="566"/>
      <point x="467" y="566" type="curve" smooth="yes"/>
      <point x="524" y="566"/>
      <point x="575" y="546"/>
      <point x="616" y="522" type="curve"/>
      <point x="688" y="673" type="line"/>
      <point x="630" y="707"/>
      <point x="552" y="725"/>
      <point x="469" y="725" type="curve" smooth="yes"/>
      <point x="185" y="725"/>
      <point x="51" y="504"/>
      <point x="51" y="275" type="curve" smooth="yes"/>
      <point x="51" y="86"/>
      <point x="157" y="-10"/>
    </contour>
  </outline>
</glyph>
<glyph name="G.serif" format="2">
  <advance width="849"/>
  <unicode hex="0047"/>
  <anchor x="368" y="0" name="bottom"/>
  <anchor x="530" y="714" name="top"/>
  <anchor x="924" y="714" name="topright"/>
  <outline>
    <contour>
      <point x="390" y="-10" type="curve" smooth="yes"/>
      <point x="494" y="-10"/>
      <point x="570" y="5"/>
      <point x="659" y="36" type="curve"/>
      <point x="701" y="235" type="line" smooth="yes"/>
      <point x="710" y="281"/>
      <point x="750" y="288"/>
      <point x="797" y="288" type="curve" smooth="yes"/>
      <point x="802" y="288" type="line"/>
      <point x="814" y="349" type="line"/>
      <point x="432" y="349" type="line"/>
      <point x="419" y="288" type="line"/>
      <point x="435" y="288" type="line" smooth="yes"/>
      <point x="480" y="288"/>
      <point x="507" y="283"/>
      <point x="507" y="258" type="curve" smooth="yes"/>
      <point x="507" y="254"/>
      <point x="505" y="241"/>
      <point x="500" y="220" type="curve" smooth="yes"/>
      <point x="467" y="80" type="line"/>
      <point x="447" y="72"/>
      <point x="420" y="66"/>
      <point x="396" y="66" type="curve" smooth="yes"/>
      <point x="310" y="66"/>
      <point x="276" y="141"/>
      <point x="276" y="249" type="curve" smooth="yes"/>
      <point x="276" y="461"/>
      <point x="381" y="652"/>
      <point x="520" y="652" type="curve" smooth="yes"/>
      <point x="591" y="652"/>
      <point x="623" y="582"/>
      <point x="623" y="494" type="curve"/>
      <point x="720" y="494"/>
      <point x="797" y="533"/>
      <point x="797" y="597" type="curve" smooth="yes"/>
      <point x="797" y="658"/>
      <point x="712" y="724"/>
      <point x="551" y="724" type="curve" smooth="yes"/>
      <point x="261" y="724"/>
      <point x="71" y="516"/>
      <point x="71" y="258" type="curve" smooth="yes"/>
      <point x="71" y="93"/>
      <point x="180" y="-10"/>
    </contour>
  </outline>
</glyph>
<glyph name="H" format="2">
  <advance width="714"/>
  <unicode hex="0048"/>
  <anchor x="297" y="0" name="bottom"/>
  <anchor x="399" y="357" name="center"/>
  <anchor x="440" y="714" name="top"/>
  <anchor x="787" y="714" name="topright"/>
  <outline>
    <contour>
      <point x="16" y="0" type="line"/>
      <point x="207" y="0" type="line"/>
      <point x="269" y="291" type="line"/>
      <point x="438" y="291" type="line"/>
      <point x="377" y="0" type="line"/>
      <point x="568" y="0" type="line"/>
      <point x="719" y="714" type="line"/>
      <point x="528" y="714" type="line"/>
      <point x="473" y="449" type="line"/>
      <point x="303" y="449" type="line"/>
      <point x="358" y="714" type="line"/>
      <point x="167" y="714" type="line"/>
    </contour>
  </outline>
</glyph>
<glyph name="H.serif" format="2">
  <advance width="838"/>
  <unicode hex="0048"/>
  <anchor x="362" y="0" name="bottom"/>
  <anchor x="457" y="357" name="center"/>
  <anchor x="514" y="714" name="top"/>
  <anchor x="913" y="714" name="topright"/>
  <outline>
    <contour>
      <point x="-25" y="0" type="line"/>
      <point x="348" y="0" type="line"/>
      <point x="361" y="61" type="line"/>
      <point x="348" y="61" type="line" smooth="yes"/>
      <point x="294" y="61"/>
      <point x="284" y="71"/>
      <point x="284" y="91" type="curve" smooth="yes"/>
      <point x="284" y="95"/>
      <point x="286" y="104"/>
      <point x="289" y="118" type="curve" smooth="yes"/>
      <point x="336" y="338" type="line"/>
      <point x="550" y="338" type="line"/>
      <point x="503" y="114" type="line" smooth="yes"/>
      <point x="494" y="68"/>
      <point x="458" y="61"/>
      <point x="422" y="61" type="curve" smooth="yes"/>
      <point x="409" y="61" type="line"/>
      <point x="395" y="0" type="line"/>
      <point x="770" y="0" type="line"/>
      <point x="783" y="61" type="line"/>
      <point x="770" y="61" type="line" smooth="yes"/>
      <point x="703" y="61"/>
      <point x="698" y="78"/>
      <point x="698" y="91" type="curve" smooth="yes"/>
      <point x="698" y="95"/>
      <point x="700" y="104"/>
      <point x="703" y="121" type="curve" smooth="yes"/>
      <point x="804" y="600" type="line" smooth="yes"/>
      <point x="813" y="646"/>
      <point x="854" y="653"/>
      <point x="896" y="653" type="curve" smooth="yes"/>
      <point x="909" y="653" type="line"/>
      <point x="921" y="714" type="line"/>
      <point x="546" y="714" type="line"/>
      <point x="534" y="653" type="line"/>
      <point x="547" y="653" type="line" smooth="yes"/>
      <point x="606" y="653"/>
      <point x="611" y="638"/>
      <point x="611" y="625" type="curve" smooth="yes"/>
      <point x="611" y="620"/>
      <point x="609" y="610"/>
      <point x="605" y="592" type="curve" smooth="yes"/>
      <point x="564" y="407" type="line"/>
      <point x="351" y="407" type="line"/>
      <point x="390" y="600" type="line" smooth="yes"/>
      <point x="399" y="646"/>
      <point x="435" y="653"/>
      <point x="474" y="653" type="curve" smooth="yes"/>
      <point x="487" y="653" type="line"/>
      <point x="499" y="714" type="line"/>
      <point x="124" y="714" type="line"/>
      <point x="112" y="653" type="line"/>
      <point x="125" y="653" type="line" smooth="yes"/>
      <point x="195" y="653"/>
      <point x="197" y="640"/>
      <point x="197" y="625" type="curve" smooth="yes"/>
      <point x="197" y="622"/>
      <point x="195" y="610"/>
      <point x="189" y="585" type="curve" smooth="yes"/>
      <point x="89" y="112" type="line" smooth="yes"/>
      <point x="79" y="68"/>
      <point x="41" y="61"/>
      <point x="1" y="61" type="curve" smooth="yes"/>
      <point x="-12" y="61" type="line"/>
    </contour>
  </outline>
</glyph>
<glyph name="I" format="2">
  <advance width="426"/>
  <unicode hex="0049"/>
  <anchor x="154" y="0" name="bottom"/>
  <anchor x="297" y="714" name="top"/>
  <anchor x="499" y="714" name="topright"/>
  <outline>
    <contour>
      <point x="-36" y="0" type="line"/>
      <point x="328" y="0" type="line"/>
      <point x="351" y="109" type="line"/>
      <point x="272" y="148" type="line"/>
      <point x="360" y="562" type="line"/>
      <point x="458" y="604" type="line"/>
      <point x="481" y="714" type="line"/>
      <point x="114" y="714" type="line"/>
      <point x="91" y="604" type="line"/>
      <point x="169" y="562" type="line"/>
      <point x="81" y="148" type="line"/>
      <point x="-13" y="109" type="line"/>
    </contour>
  </outline>
</glyph>
<glyph name="I.serif" format="2">
  <advance width="426"/>
  <unicode hex="0049"/>
  <anchor x="156" y="0" name="bottom"/>
  <anchor x="308" y="714" name="top"/>
  <anchor x="501" y="714" name="topright"/>
  <outline>
    <contour>
      <point x="-25" y="0" type="line"/>
      <point x="358" y="0" type="line"/>
      <point x="371" y="61" type="line"/>
      <point x="358" y="61" type="line" smooth="yes"/>
      <point x="316" y="61"/>
      <point x="284" y="65"/>
      <point x="284" y="91" type="curve" smooth="yes"/>
      <point x="284" y="103"/>
      <point x="289" y="118"/>
      <point x="294" y="143" type="curve" smooth="yes"/>
      <point x="392" y="600" type="line" smooth="yes"/>
      <point x="402" y="646"/>
      <point x="440" y="653"/>
      <point x="484" y="653" type="curve" smooth="yes"/>
      <point x="497" y="653" type="line"/>
      <point x="509" y="714" type="line"/>
      <point x="124" y="714" type="line"/>
      <point x="112" y="653" type="line"/>
      <point x="125" y="653" type="line" smooth="yes"/>
      <point x="168" y="653"/>
      <point x="197" y="649"/>
      <point x="197" y="623" type="curve" smooth="yes"/>
      <point x="197" y="619"/>
      <point x="197" y="609"/>
      <point x="192" y="585" type="curve" smooth="yes"/>
      <point x="89" y="112" type="line" smooth="yes"/>
      <point x="79" y="68"/>
      <point x="41" y="61"/>
      <point x="1" y="61" type="curve" smooth="yes"/>
      <point x="-12" y="61" type="line"/>
    </contour>
  </outline>
</glyph>
<glyph name="J" format="2">
  <advance width="373"/>
  <unicode hex="004A"/>
  <anchor x="-56" y="-225" name="bottom"/>
  <anchor x="280" y="714" name="top"/>
  <anchor x="446" y="714" name="topright"/>
  <outline>
    <contour>
      <point x="-56" y="-225" type="curve" smooth="yes"/>
      <point x="116" y="-225"/>
      <point x="191" y="-155"/>
      <point x="231" y="33" type="curve" smooth="yes"/>
      <point x="377" y="714" type="line"/>
      <point x="186" y="714" type="line"/>
      <point x="45" y="57" type="line" smooth="yes"/>
      <point x="24" y="-42"/>
      <point x="-14" y="-67"/>
      <point x="-75" y="-67" type="curve" smooth="yes"/>
      <point x="-110" y="-67"/>
      <point x="-136" y="-61"/>
      <point x="-160" y="-55" type="curve"/>
      <point x="-160" y="-211" type="line"/>
      <point x="-129" y="-219"/>
      <point x="-90" y="-225"/>
    </contour>
  </outline>
</glyph>
<glyph name="J.serif" format="2">
  <advance width="433"/>
  <unicode hex="004A"/>
  <anchor x="-68" y="-240" name="bottom"/>
  <anchor x="312" y="714" name="top"/>
  <anchor x="508" y="714" name="topright"/>
  <outline>
    <contour>
      <point x="-68" y="-240" type="curve" smooth="yes"/>
      <point x="85" y="-240"/>
      <point x="232" y="-182"/>
      <point x="269" y="1" type="curve" smooth="yes"/>
      <point x="394" y="600" type="line" smooth="yes"/>
      <point x="404" y="646"/>
      <point x="444" y="653"/>
      <point x="488" y="653" type="curve" smooth="yes"/>
      <point x="501" y="653" type="line"/>
      <point x="513" y="714" type="line"/>
      <point x="128" y="714" type="line"/>
      <point x="116" y="653" type="line"/>
      <point x="129" y="653" type="line" smooth="yes"/>
      <point x="171" y="653"/>
      <point x="201" y="649"/>
      <point x="201" y="623" type="curve" smooth="yes"/>
      <point x="201" y="619"/>
      <point x="199" y="610"/>
      <point x="197" y="604" type="curve" smooth="yes"/>
      <point x="69" y="1" type="line" smooth="yes"/>
      <point x="38" y="-143"/>
      <point x="-12" y="-176"/>
      <point x="-81" y="-176" type="curve" smooth="yes"/>
      <point x="-101" y="-176"/>
      <point x="-128" y="-172"/>
      <point x="-146" y="-167" type="curve"/>
      <point x="-160" y="-229" type="line"/>
      <point x="-133" y="-236"/>
      <point x="-108" y="-240"/>
    </contour>
  </outline>
</glyph>
<glyph name="K" format="2">
  <advance width="669"/>
  <unicode hex="004B"/>
  <anchor x="292" y="0" name="bottom"/>
  <anchor x="438" y="714" name="top"/>
  <anchor x="742" y="714" name="topright"/>
  <outline>
    <contour>
      <point x="16" y="0" type="line"/>
      <point x="207" y="0" type="line"/>
      <point x="260" y="255" type="line"/>
      <point x="307" y="282" type="line"/>
      <point x="392" y="0" type="line"/>
      <point x="606" y="0" type="line"/>
      <point x="474" y="385" type="line"/>
      <point x="743" y="714" type="line"/>
      <point x="519" y="714" type="line"/>
      <point x="363" y="509" type="line"/>
      <point x="292" y="409" type="line"/>
      <point x="358" y="714" type="line"/>
      <point x="167" y="714" type="line"/>
    </contour>
  </outline>
</glyph>
<glyph name="K.serif" format="2">
  <advance width="771"/>
  <unicode hex="004B"/>
  <anchor x="329" y="0" name="bottom"/>
  <anchor x="481" y="714" name="top"/>
  <anchor x="846" y="714" name="topright"/>
  <outline>
    <contour>
      <point x="-25" y="0" type="line"/>
      <point x="358" y="0" type="line"/>
      <point x="371" y="61" type="line"/>
      <point x="358" y="61" type="line" smooth="yes"/>
      <point x="316" y="61"/>
      <point x="284" y="65"/>
      <point x="284" y="91" type="curve" smooth="yes"/>
      <point x="284" y="95"/>
      <point x="286" y="103"/>
      <point x="289" y="117" type="curve" smooth="yes"/>
      <point x="328" y="301" type="line"/>
      <point x="428" y="373" type="line"/>
      <point x="339" y="361" type="line"/>
      <point x="411" y="171" type="line" smooth="yes"/>
      <point x="466" y="32"/>
      <point x="499" y="0"/>
      <point x="642" y="0" type="curve" smooth="yes"/>
      <point x="722" y="0" type="line"/>
      <point x="733" y="61" type="line"/>
      <point x="730" y="61" type="line" smooth="yes"/>
      <point x="685" y="61"/>
      <point x="672" y="89"/>
      <point x="635" y="179" type="curve" smooth="yes"/>
      <point x="509" y="480" type="line"/>
      <point x="453" y="393" type="line"/>
      <point x="668" y="579" type="line" smooth="yes"/>
      <point x="732" y="635"/>
      <point x="776" y="654"/>
      <point x="834" y="654" type="curve"/>
      <point x="847" y="714" type="line"/>
      <point x="541" y="714" type="line"/>
      <point x="528" y="654" type="line"/>
      <point x="561" y="654"/>
      <point x="572" y="642"/>
      <point x="572" y="625" type="curve" smooth="yes"/>
      <point x="572" y="607"/>
      <point x="565" y="575"/>
      <point x="511" y="528" type="curve" smooth="yes"/>
      <point x="348" y="392" type="line"/>
      <point x="390" y="600" type="line" smooth="yes"/>
      <point x="399" y="646"/>
      <point x="435" y="653"/>
      <point x="474" y="653" type="curve" smooth="yes"/>
      <point x="487" y="653" type="line"/>
      <point x="499" y="714" type="line"/>
      <point x="124" y="714" type="line"/>
      <point x="112" y="653" type="line"/>
      <point x="125" y="653" type="line" smooth="yes"/>
      <point x="167" y="653"/>
      <point x="197" y="649"/>
      <point x="197" y="623" type="curve" smooth="yes"/>
      <point x="197" y="619"/>
      <point x="195" y="610"/>
      <point x="189" y="585" type="curve" smooth="yes"/>
      <point x="89" y="112" type="line" smooth="yes"/>
      <point x="80" y="68"/>
      <point x="41" y="61"/>
      <point x="1" y="61" type="curve" smooth="yes"/>
      <point x="-12" y="61" type="line"/>
    </contour>
  </outline>
</glyph>
<glyph name="L" format="2">
  <advance width="527"/>
  <unicode hex="004C"/>
  <anchor x="234" y="0" name="bottom"/>
  <anchor x="306" y="357" name="center"/>
  <anchor x="288" y="714" name="top"/>
  <anchor x="510" y="714" name="topright"/>
  <outline>
    <contour>
      <point x="16" y="0" type="line"/>
      <point x="440" y="0" type="line"/>
      <point x="473" y="156" type="line"/>
      <point x="240" y="156" type="line"/>
      <point x="358" y="714" type="line"/>
      <point x="167" y="714" type="line"/>
    </contour>
  </outline>
</glyph>
<glyph name="L.serif" format="2">
  <advance width="677"/>
  <unicode hex="004C"/>
  <anchor x="282" y="0" name="bottom"/>
  <anchor x="377" y="357" name="center"/>
  <anchor x="434" y="714" name="top"/>
  <anchor x="752" y="714" name="topright"/>
  <outline>
    <contour>
      <point x="-25" y="0" type="line"/>
      <point x="598" y="0" type="line"/>
      <point x="655" y="229" type="line"/>
      <point x="583" y="229" type="line"/>
      <point x="570" y="192" type="line" smooth="yes"/>
      <point x="538" y="97"/>
      <point x="507" y="69"/>
      <point x="425" y="69" type="curve" smooth="yes"/>
      <point x="280" y="69" type="line"/>
      <point x="390" y="597" type="line" smooth="yes"/>
      <point x="399" y="645"/>
      <point x="440" y="653"/>
      <point x="484" y="653" type="curve" smooth="yes"/>
      <point x="497" y="653" type="line"/>
      <point x="509" y="714" type="line"/>
      <point x="125" y="714" type="line"/>
      <point x="112" y="653" type="line"/>
      <point x="125" y="653" type="line" smooth="yes"/>
      <point x="167" y="653"/>
      <point x="197" y="649"/>
      <point x="197" y="623" type="curve" smooth="yes"/>
      <point x="197" y="614"/>
      <point x="194" y="602"/>
      <point x="190" y="585" type="curve" smooth="yes"/>
      <point x="89" y="112" type="line" smooth="yes"/>
      <point x="80" y="68"/>
      <point x="41" y="61"/>
      <point x="0" y="61" type="curve" smooth="yes"/>
      <point x="-13" y="61" type="line"/>
    </contour>
  </outline>
</glyph>
<glyph name="M" format="2">
  <advance width="909"/>
  <unicode hex="004D"/>
  <anchor x="378" y="0" name="bottom"/>
  <anchor x="533" y="714" name="top"/>
  <anchor x="982" y="714" name="topright"/>
  <outline>
    <contour>
      <point x="16" y="0" type="line"/>
      <point x="186" y="0" type="line"/>
      <point x="241" y="262" type="line" smooth="yes"/>
      <point x="254" y="326"/>
      <point x="267" y="411"/>
      <point x="283" y="512" type="curve" smooth="yes"/>
      <point x="287" y="512" type="line"/>
      <point x="287" y="0" type="line"/>
      <point x="468" y="0" type="line"/>
      <point x="703" y="512" type="line"/>
      <point x="707" y="512" type="line"/>
      <point x="700" y="479"/>
      <point x="679" y="417"/>
      <point x="647" y="268" type="curve" smooth="yes"/>
      <point x="590" y="0" type="line"/>
      <point x="761" y="0" type="line"/>
      <point x="914" y="714" type="line"/>
      <point x="657" y="714" type="line"/>
      <point x="424" y="207" type="line"/>
      <point x="420" y="207" type="line"/>
      <point x="420" y="714" type="line"/>
      <point x="167" y="714" type="line"/>
    </contour>
  </outline>
</glyph>
<glyph name="M.serif" format="2">
  <advance width="962"/>
  <unicode hex="004D"/>
  <anchor x="424" y="0" name="bottom"/>
  <anchor x="576" y="714" name="top"/>
  <anchor x="1037" y="714" name="topright"/>
  <outline>
    <contour>
      <point x="-25" y="0" type="line"/>
      <point x="228" y="0" type="line"/>
      <point x="241" y="61" type="line"/>
      <point x="235" y="61" type="line" smooth="yes"/>
      <point x="201" y="61"/>
      <point x="171" y="65"/>
      <point x="171" y="91" type="curve" smooth="yes"/>
      <point x="171" y="95"/>
      <point x="173" y="104"/>
      <point x="177" y="124" type="curve" smooth="yes"/>
      <point x="278" y="597" type="line"/>
      <point x="348" y="0" type="line"/>
      <point x="428" y="0" type="line"/>
      <point x="734" y="597" type="line"/>
      <point x="634" y="121" type="line" smooth="yes"/>
      <point x="626" y="69"/>
      <point x="576" y="61"/>
      <point x="533" y="61" type="curve" smooth="yes"/>
      <point x="513" y="61" type="line"/>
      <point x="500" y="0" type="line"/>
      <point x="896" y="0" type="line"/>
      <point x="909" y="61" type="line"/>
      <point x="896" y="61" type="line" smooth="yes"/>
      <point x="854" y="61"/>
      <point x="824" y="65"/>
      <point x="824" y="91" type="curve" smooth="yes"/>
      <point x="824" y="95"/>
      <point x="826" y="104"/>
      <point x="829" y="120" type="curve" smooth="yes"/>
      <point x="930" y="600" type="line" smooth="yes"/>
      <point x="940" y="646"/>
      <point x="980" y="653"/>
      <point x="1022" y="653" type="curve" smooth="yes"/>
      <point x="1035" y="653" type="line"/>
      <point x="1047" y="714" type="line"/>
      <point x="710" y="714" type="line"/>
      <point x="496" y="290" type="line"/>
      <point x="442" y="714" type="line"/>
      <point x="125" y="714" type="line"/>
      <point x="112" y="653" type="line"/>
      <point x="125" y="653" type="line" smooth="yes"/>
      <point x="167" y="653"/>
      <point x="197" y="649"/>
      <point x="197" y="623" type="curve" smooth="yes"/>
      <point x="197" y="616"/>
      <point x="195" y="610"/>
      <point x="190" y="585" type="curve" smooth="yes"/>
      <point x="90" y="116" type="line" smooth="yes"/>
      <point x="80" y="70"/>
      <point x="41" y="61"/>
      <point x="0" y="61" type="curve" smooth="yes"/>
      <point x="-13" y="61" type="line"/>
    </contour>
  </outline>
</glyph>
<glyph name="N" format="2">
  <advance width="790"/>
  <unicode hex="004E"/>
  <anchor x="330" y="0" name="bottom"/>
  <anchor x="493" y="714" name="top"/>
  <anchor x="863" y="714" name="topright"/>
  <outline>
    <contour>
      <point x="16" y="0" type="line"/>
      <point x="186" y="0" type="line"/>
      <point x="249" y="298" type="line" smooth="yes"/>
      <point x="263" y="363"/>
      <point x="275" y="476"/>
      <point x="277" y="502" type="curve"/>
      <point x="281" y="502" type="line"/>
      <point x="422" y="0" type="line"/>
      <point x="644" y="0" type="line"/>
      <point x="795" y="714" type="line"/>
      <point x="625" y="714" type="line"/>
      <point x="561" y="415" type="line" smooth="yes"/>
      <point x="551" y="365"/>
      <point x="538" y="277"/>
      <point x="533" y="234" type="curve" smooth="yes"/>
      <point x="529" y="234" type="line"/>
      <point x="389" y="714" type="line"/>
      <point x="167" y="714" type="line"/>
    </contour>
  </outline>
</glyph>
<glyph name="N.serif" format="2">
  <advance width="806"/>
  <unicode hex="004E"/>
  <anchor x="346" y="0" name="bottom"/>
  <anchor x="498" y="714" name="top"/>
  <anchor x="881" y="714" name="topright"/>
  <outline>
    <contour>
      <point x="-25" y="0" type="line"/>
      <point x="228" y="0" type="line"/>
      <point x="241" y="61" type="line"/>
      <point x="235" y="61" type="line" smooth="yes"/>
      <point x="203" y="61"/>
      <point x="171" y="65"/>
      <point x="171" y="91" type="curve" smooth="yes"/>
      <point x="171" y="95"/>
      <point x="173" y="104"/>
      <point x="177" y="124" type="curve" smooth="yes"/>
      <point x="266" y="551" type="line"/>
      <point x="547" y="0" type="line"/>
      <point x="659" y="0" type="line"/>
      <point x="786" y="602" type="line" smooth="yes"/>
      <point x="795" y="646"/>
      <point x="834" y="653"/>
      <point x="874" y="653" type="curve" smooth="yes"/>
      <point x="887" y="653" type="line"/>
      <point x="900" y="714" type="line"/>
      <point x="647" y="714" type="line"/>
      <point x="635" y="653" type="line"/>
      <point x="641" y="653" type="line" smooth="yes"/>
      <point x="673" y="653"/>
      <point x="704" y="649"/>
      <point x="704" y="623" type="curve" smooth="yes"/>
      <point x="704" y="616"/>
      <point x="701" y="602"/>
      <point x="698" y="590" type="curve" smooth="yes"/>
      <point x="622" y="230" type="line"/>
      <point x="376" y="714" type="line"/>
      <point x="125" y="714" type="line"/>
      <point x="112" y="653" type="line"/>
      <point x="125" y="653" type="line" smooth="yes"/>
      <point x="167" y="653"/>
      <point x="197" y="649"/>
      <point x="197" y="623" type="curve" smooth="yes"/>
      <point x="197" y="616"/>
      <point x="194" y="605"/>
      <point x="190" y="585" type="curve" smooth="yes"/>
      <point x="89" y="112" type="line" smooth="yes"/>
      <point x="80" y="68"/>
      <point x="41" y="61"/>
      <point x="0" y="61" type="curve" smooth="yes"/>
      <point x="-13" y="61" type="line"/>
    </contour>
  </outline>
</glyph>
<glyph name="O.serif" format="2">
  <advance width="829"/>
  <unicode hex="004F"/>
  <anchor x="358" y="0" name="bottom"/>
  <anchor x="453" y="357" name="center"/>
  <anchor x="510" y="714" name="top"/>
  <anchor x="904" y="714" name="topright"/>
  <outline>
    <contour>
      <point x="363" y="-11" type="curve" smooth="yes"/>
      <point x="662" y="-11"/>
      <point x="805" y="266"/>
      <point x="805" y="450" type="curve" smooth="yes"/>
      <point x="805" y="641"/>
      <point x="670" y="725"/>
      <point x="516" y="725" type="curve" smooth="yes"/>
      <point x="222" y="725"/>
      <point x="71" y="458"/>
      <point x="71" y="266" type="curve" smooth="yes"/>
      <point x="71" y="85"/>
      <point x="197" y="-11"/>
    </contour>
    <contour>
      <point x="393" y="63" type="curve" smooth="yes"/>
      <point x="327" y="63"/>
      <point x="274" y="118"/>
      <point x="274" y="245" type="curve" smooth="yes"/>
      <point x="274" y="398"/>
      <point x="340" y="652"/>
      <point x="486" y="652" type="curve" smooth="yes"/>
      <point x="554" y="652"/>
      <point x="605" y="596"/>
      <point x="605" y="470" type="curve" smooth="yes"/>
      <point x="605" y="317"/>
      <point x="538" y="63"/>
    </contour>
  </outline>
</glyph>
<glyph name="P" format="2">
  <advance width="623"/>
  <unicode hex="0050"/>
  <anchor x="253" y="0" name="bottom"/>
  <anchor x="405" y="714" name="top"/>
  <anchor x="696" y="714" name="topright"/>
  <outline>
    <contour>
      <point x="16" y="0" type="line"/>
      <point x="207" y="0" type="line"/>
      <point x="256" y="237" type="line"/>
      <point x="298" y="237" type="line" smooth="yes"/>
      <point x="483" y="237"/>
      <point x="611" y="329"/>
      <point x="611" y="500" type="curve" smooth="yes"/>
      <point x="611" y="620"/>
      <point x="538" y="714"/>
      <point x="349" y="714" type="curve" smooth="yes"/>
      <point x="167" y="714" type="line"/>
    </contour>
    <contour>
      <point x="321" y="393" type="curve" smooth="yes"/>
      <point x="290" y="393" type="line"/>
      <point x="325" y="558" type="line"/>
      <point x="354" y="558" type="line" smooth="yes"/>
      <point x="401" y="558"/>
      <point x="420" y="527"/>
      <point x="420" y="494" type="curve" smooth="yes"/>
      <point x="420" y="436"/>
      <point x="381" y="393"/>
    </contour>
  </outline>
</glyph>
<glyph name="P.serif" format="2">
  <advance width="695"/>
  <unicode hex="0050"/>
  <anchor x="163" y="0" name="bottom"/>
  <anchor x="443" y="714" name="top"/>
  <anchor x="770" y="714" name="topright"/>
  <outline>
    <contour>
      <point x="-25" y="0" type="line"/>
      <point x="378" y="0" type="line"/>
      <point x="391" y="61" type="line"/>
      <point x="358" y="61" type="line" smooth="yes"/>
      <point x="316" y="61"/>
      <point x="284" y="65"/>
      <point x="284" y="91" type="curve" smooth="yes"/>
      <point x="284" y="98"/>
      <point x="287" y="109"/>
      <point x="291" y="127" type="curve" smooth="yes"/>
      <point x="324" y="269" type="line"/>
      <point x="402" y="269" type="line" smooth="yes"/>
      <point x="659" y="269"/>
      <point x="708" y="415"/>
      <point x="708" y="518" type="curve" smooth="yes"/>
      <point x="708" y="646"/>
      <point x="602" y="714"/>
      <point x="433" y="714" type="curve" smooth="yes"/>
      <point x="125" y="714" type="line"/>
      <point x="112" y="653" type="line"/>
      <point x="125" y="653" type="line" smooth="yes"/>
      <point x="167" y="653"/>
      <point x="197" y="649"/>
      <point x="197" y="623" type="curve" smooth="yes"/>
      <point x="197" y="616"/>
      <point x="195" y="607"/>
      <point x="190" y="585" type="curve" smooth="yes"/>
      <point x="89" y="112" type="line" smooth="yes"/>
      <point x="80" y="68"/>
      <point x="41" y="61"/>
      <point x="0" y="61" type="curve" smooth="yes"/>
      <point x="-13" y="61" type="line"/>
    </contour>
    <contour>
      <point x="372" y="335" type="curve" smooth="yes"/>
      <point x="338" y="335" type="line"/>
      <point x="407" y="647" type="line"/>
      <point x="421" y="647" type="line" smooth="yes"/>
      <point x="462" y="647"/>
      <point x="503" y="609"/>
      <point x="503" y="513" type="curve" smooth="yes"/>
      <point x="503" y="409"/>
      <point x="468" y="335"/>
    </contour>
  </outline>
</glyph>
<glyph name="Q" format="2">
  <advance width="737"/>
  <unicode hex="0051"/>
  <anchor x="274" y="-170" name="bottom"/>
  <anchor x="462" y="714" name="top"/>
  <anchor x="810" y="714" name="topright"/>
  <outline>
    <contour>
      <point x="322" y="-10" type="curve"/>
      <point x="401" y="-170" type="line"/>
      <point x="615" y="-170" type="line"/>
      <point x="499" y="36" type="line"/>
      <point x="640" y="116"/>
      <point x="706" y="287"/>
      <point x="706" y="450" type="curve" smooth="yes"/>
      <point x="706" y="616"/>
      <point x="614" y="725"/>
      <point x="441" y="725" type="curve" smooth="yes"/>
      <point x="173" y="725"/>
      <point x="51" y="487"/>
      <point x="51" y="265" type="curve" smooth="yes"/>
      <point x="51" y="99"/>
      <point x="143" y="-10"/>
      <point x="311" y="-10" type="curve" smooth="yes"/>
      <point x="315" y="-10"/>
      <point x="318" y="-10"/>
    </contour>
    <contour>
      <point x="333" y="151" type="curve" smooth="yes"/>
      <point x="277" y="151"/>
      <point x="244" y="189"/>
      <point x="244" y="263" type="curve" smooth="yes"/>
      <point x="244" y="427"/>
      <point x="320" y="565"/>
      <point x="425" y="565" type="curve" smooth="yes"/>
      <point x="481" y="565"/>
      <point x="513" y="526"/>
      <point x="513" y="449" type="curve" smooth="yes"/>
      <point x="513" y="288"/>
      <point x="438" y="151"/>
    </contour>
  </outline>
</glyph>
<glyph name="Q.serif" format="2">
  <advance width="820"/>
  <unicode hex="0051"/>
  <anchor x="302" y="-240" name="bottom"/>
  <anchor x="505" y="714" name="top"/>
  <anchor x="895" y="714" name="topright"/>
  <outline>
    <contour>
      <point x="504" y="-240" type="curve" smooth="yes"/>
      <point x="538" y="-240"/>
      <point x="563" y="-238"/>
      <point x="605" y="-222" type="curve"/>
      <point x="595" y="-174" type="line"/>
      <point x="589" y="-175"/>
      <point x="584" y="-176"/>
      <point x="578" y="-176" type="curve" smooth="yes"/>
      <point x="540" y="-176"/>
      <point x="494" y="-151"/>
      <point x="486" y="5" type="curve"/>
      <point x="699" y="72"/>
      <point x="803" y="294"/>
      <point x="803" y="450" type="curve" smooth="yes"/>
      <point x="803" y="641"/>
      <point x="668" y="725"/>
      <point x="514" y="725" type="curve" smooth="yes"/>
      <point x="220" y="725"/>
      <point x="69" y="458"/>
      <point x="69" y="266" type="curve" smooth="yes"/>
      <point x="69" y="118"/>
      <point x="153" y="28"/>
      <point x="274" y="-1" type="curve"/>
      <point x="283" y="-195"/>
      <point x="402" y="-240"/>
    </contour>
    <contour>
      <point x="391" y="63" type="curve" smooth="yes"/>
      <point x="325" y="63"/>
      <point x="272" y="118"/>
      <point x="272" y="245" type="curve" smooth="yes"/>
      <point x="272" y="398"/>
      <point x="338" y="652"/>
      <point x="484" y="652" type="curve" smooth="yes"/>
      <point x="552" y="652"/>
      <point x="603" y="596"/>
      <point x="603" y="470" type="curve" smooth="yes"/>
      <point x="603" y="317"/>
      <point x="536" y="63"/>
    </contour>
  </outline>
</glyph>
<glyph name="R" format="2">
  <advance width="650"/>
  <unicode hex="0052"/>
  <anchor x="276" y="0" name="bottom"/>
  <anchor x="414" y="714" name="top"/>
  <anchor x="723" y="714" name="topright"/>
  <outline>
    <contour>
      <point x="16" y="0" type="line"/>
      <point x="207" y="0" type="line"/>
      <point x="262" y="260" type="line"/>
      <point x="298" y="260" type="line"/>
      <point x="393" y="0" type="line"/>
      <point x="601" y="0" type="line"/>
      <point x="472" y="299" type="line"/>
      <point x="534" y="326"/>
      <point x="610" y="387"/>
      <point x="610" y="518" type="curve" smooth="yes"/>
      <point x="610" y="649"/>
      <point x="520" y="714"/>
      <point x="356" y="714" type="curve" smooth="yes"/>
      <point x="167" y="714" type="line"/>
    </contour>
    <contour>
      <point x="318" y="405" type="curve" smooth="yes"/>
      <point x="293" y="405" type="line"/>
      <point x="327" y="568" type="line"/>
      <point x="353" y="568" type="line" smooth="yes"/>
      <point x="402" y="568"/>
      <point x="419" y="540"/>
      <point x="419" y="506" type="curve" smooth="yes"/>
      <point x="419" y="433"/>
      <point x="369" y="405"/>
    </contour>
  </outline>
</glyph>
<glyph name="R.serif" format="2">
  <advance width="739"/>
  <unicode hex="0052"/>
  <anchor x="313" y="0" name="bottom"/>
  <anchor x="465" y="714" name="top"/>
  <anchor x="814" y="714" name="topright"/>
  <outline>
    <contour>
      <point x="-25" y="0" type="line"/>
      <point x="378" y="0" type="line"/>
      <point x="391" y="61" type="line"/>
      <point x="358" y="61" type="line" smooth="yes"/>
      <point x="316" y="61"/>
      <point x="284" y="65"/>
      <point x="284" y="91" type="curve" smooth="yes"/>
      <point x="284" y="98"/>
      <point x="286" y="110"/>
      <point x="293" y="140" type="curve" smooth="yes"/>
      <point x="329" y="306" type="line"/>
      <point x="376" y="306" type="line"/>
      <point x="442" y="112" type="line" smooth="yes"/>
      <point x="473" y="15"/>
      <point x="552" y="0"/>
      <point x="702" y="0" type="curve" smooth="yes"/>
      <point x="720" y="0" type="line"/>
      <point x="733" y="61" type="line"/>
      <point x="727" y="61" type="line" smooth="yes"/>
      <point x="687" y="61"/>
      <point x="663" y="88"/>
      <point x="628" y="180" type="curve" smooth="yes"/>
      <point x="561" y="345" type="line"/>
      <point x="641" y="364"/>
      <point x="734" y="416"/>
      <point x="734" y="549" type="curve" smooth="yes"/>
      <point x="734" y="660"/>
      <point x="653" y="714"/>
      <point x="489" y="714" type="curve" smooth="yes"/>
      <point x="125" y="714" type="line"/>
      <point x="112" y="653" type="line"/>
      <point x="125" y="653" type="line" smooth="yes"/>
      <point x="167" y="653"/>
      <point x="197" y="649"/>
      <point x="197" y="623" type="curve" smooth="yes"/>
      <point x="197" y="619"/>
      <point x="195" y="610"/>
      <point x="190" y="585" type="curve" smooth="yes"/>
      <point x="90" y="116" type="line" smooth="yes"/>
      <point x="80" y="70"/>
      <point x="41" y="61"/>
      <point x="0" y="61" type="curve" smooth="yes"/>
      <point x="-13" y="61" type="line"/>
    </contour>
    <contour>
      <point x="392" y="372" type="curve" smooth="yes"/>
      <point x="341" y="372" type="line"/>
      <point x="405" y="647" type="line"/>
      <point x="443" y="647" type="line" smooth="yes"/>
      <point x="494" y="647"/>
      <point x="517" y="617"/>
      <point x="517" y="531" type="curve" smooth="yes"/>
      <point x="517" y="417"/>
      <point x="462" y="372"/>
    </contour>
  </outline>
</glyph>
<glyph name="S" format="2">
  <advance width="548"/>
  <unicode hex="0053"/>
  <anchor x="213" y="0" name="bottom"/>
  <anchor x="359" y="714" name="top"/>
  <anchor x="621" y="714" name="topright"/>
  <outline>
    <contour>
      <point x="205" y="-10" type="curve" smooth="yes"/>
      <point x="379" y="-10"/>
      <point x="477" y="77"/>
      <point x="477" y="219" type="curve" smooth="yes"/>
      <point x="477" y="299"/>
      <point x="443" y="357"/>
      <point x="364" y="416" type="curve" smooth="yes"/>
      <point x="301" y="463"/>
      <point x="285" y="486"/>
      <point x="285" y="516" type="curve" smooth="yes"/>
      <point x="285" y="539"/>
      <point x="296" y="570"/>
      <point x="350" y="570" type="curve" smooth="yes"/>
      <point x="394" y="570"/>
      <point x="447" y="550"/>
      <point x="492" y="527" type="curve"/>
      <point x="558" y="672" type="line"/>
      <point x="499" y="705"/>
      <point x="425" y="724"/>
      <point x="348" y="724" type="curve" smooth="yes"/>
      <point x="197" y="724"/>
      <point x="95" y="631"/>
      <point x="95" y="502" type="curve" smooth="yes"/>
      <point x="95" y="415"/>
      <point x="138" y="357"/>
      <point x="204" y="303" type="curve" smooth="yes"/>
      <point x="248" y="267"/>
      <point x="284" y="241"/>
      <point x="284" y="205" type="curve" smooth="yes"/>
      <point x="284" y="168"/>
      <point x="259" y="147"/>
      <point x="211" y="147" type="curve" smooth="yes"/>
      <point x="151" y="147"/>
      <point x="73" y="176"/>
      <point x="21" y="208" type="curve"/>
      <point x="21" y="37" type="line"/>
      <point x="67" y="7"/>
      <point x="134" y="-10"/>
    </contour>
  </outline>
</glyph>
<glyph name="S.serif" format="2">
  <advance width="617"/>
  <unicode hex="0053"/>
  <anchor x="252" y="0" name="bottom"/>
  <anchor x="404" y="714" name="top"/>
  <anchor x="692" y="714" name="topright"/>
  <outline>
    <contour>
      <point x="284" y="-10" type="curve" smooth="yes"/>
      <point x="456" y="-10"/>
      <point x="569" y="75"/>
      <point x="569" y="223" type="curve" smooth="yes"/>
      <point x="569" y="311"/>
      <point x="523" y="382"/>
      <point x="421" y="433" type="curve" smooth="yes"/>
      <point x="328" y="483"/>
      <point x="281" y="501"/>
      <point x="281" y="569" type="curve" smooth="yes"/>
      <point x="281" y="627"/>
      <point x="322" y="655"/>
      <point x="372" y="655" type="curve" smooth="yes"/>
      <point x="450" y="655"/>
      <point x="473" y="572"/>
      <point x="473" y="509" type="curve"/>
      <point x="583" y="509"/>
      <point x="626" y="545"/>
      <point x="626" y="609" type="curve" smooth="yes"/>
      <point x="626" y="671"/>
      <point x="554" y="724"/>
      <point x="388" y="724" type="curve" smooth="yes"/>
      <point x="220" y="724"/>
      <point x="111" y="636"/>
      <point x="111" y="505" type="curve" smooth="yes"/>
      <point x="111" y="403"/>
      <point x="162" y="342"/>
      <point x="281" y="278" type="curve" smooth="yes"/>
      <point x="375" y="228"/>
      <point x="402" y="197"/>
      <point x="402" y="144" type="curve" smooth="yes"/>
      <point x="402" y="101"/>
      <point x="368" y="60"/>
      <point x="307" y="60" type="curve" smooth="yes"/>
      <point x="241" y="60"/>
      <point x="178" y="101"/>
      <point x="178" y="245" type="curve"/>
      <point x="81" y="245"/>
      <point x="19" y="210"/>
      <point x="19" y="138" type="curve" smooth="yes"/>
      <point x="19" y="51"/>
      <point x="105" y="-10"/>
    </contour>
  </outline>
</glyph>
<glyph name="T" format="2">
  <advance width="552"/>
  <unicode hex="0054"/>
  <anchor x="217" y="0" name="bottom"/>
  <anchor x="318" y="357" name="center"/>
  <anchor x="369" y="714" name="top"/>
  <anchor x="625" y="714" name="topright"/>
  <outline>
    <contour>
      <point x="115" y="0" type="line"/>
      <point x="306" y="0" type="line"/>
      <point x="422" y="556" type="line"/>
      <point x="577" y="556" type="line"/>
      <point x="612" y="714" type="line"/>
      <point x="110" y="714" type="line"/>
      <point x="76" y="556" type="line"/>
      <point x="231" y="556" type="line"/>
    </contour>
  </outline>
</glyph>
<glyph name="T.serif" format="2">
  <advance width="682"/>
  <unicode hex="0054"/>
  <anchor x="284" y="0" name="bottom"/>
  <anchor x="379" y="357" name="center"/>
  <anchor x="436" y="714" name="top"/>
  <anchor x="757" y="714" name="topright"/>
  <outline>
    <contour>
      <point x="113" y="0" type="line"/>
      <point x="481" y="0" type="line"/>
      <point x="494" y="61" type="line"/>
      <point x="488" y="61" type="line" smooth="yes"/>
      <point x="446" y="61"/>
      <point x="414" y="65"/>
      <point x="414" y="91" type="curve" smooth="yes"/>
      <point x="414" y="97"/>
      <point x="416" y="106"/>
      <point x="421" y="128" type="curve" smooth="yes"/>
      <point x="531" y="645" type="line"/>
      <point x="598" y="645" type="line" smooth="yes"/>
      <point x="649" y="645"/>
      <point x="671" y="635"/>
      <point x="671" y="600" type="curve" smooth="yes"/>
      <point x="671" y="594"/>
      <point x="662" y="514"/>
      <point x="661" y="506" type="curve"/>
      <point x="739" y="506" type="line"/>
      <point x="776" y="714" type="line"/>
      <point x="111" y="714" type="line"/>
      <point x="62" y="506" type="line"/>
      <point x="140" y="506" type="line"/>
      <point x="154" y="549" type="line" smooth="yes"/>
      <point x="176" y="617"/>
      <point x="197" y="645"/>
      <point x="261" y="645" type="curve" smooth="yes"/>
      <point x="329" y="645" type="line"/>
      <point x="220" y="116" type="line" smooth="yes"/>
      <point x="210" y="70"/>
      <point x="171" y="61"/>
      <point x="131" y="61" type="curve" smooth="yes"/>
      <point x="125" y="61" type="line"/>
    </contour>
  </outline>
</glyph>
<glyph name="U" format="2">
  <advance width="701"/>
  <unicode hex="0055"/>
  <anchor x="286" y="0" name="bottom"/>
  <anchor x="432" y="714" name="top"/>
  <anchor x="774" y="714" name="topright"/>
  <outline>
    <contour>
      <point x="298" y="-10" type="curve" smooth="yes"/>
      <point x="489" y="-10"/>
      <point x="574" y="85"/>
      <point x="611" y="259" type="curve" smooth="yes"/>
      <point x="708" y="714" type="line"/>
      <point x="517" y="714" type="line"/>
      <point x="424" y="278" type="line" smooth="yes"/>
      <point x="404" y="185"/>
      <point x="373" y="150"/>
      <point x="316" y="150" type="curve" smooth="yes"/>
      <point x="275" y="150"/>
      <point x="253" y="173"/>
      <point x="253" y="212" type="curve" smooth="yes"/>
      <point x="253" y="229"/>
      <point x="256" y="249"/>
      <point x="260" y="268" type="curve" smooth="yes"/>
      <point x="355" y="714" type="line"/>
      <point x="164" y="714" type="line"/>
      <point x="67" y="263" type="line" smooth="yes"/>
      <point x="63" y="242"/>
      <point x="61" y="217"/>
      <point x="61" y="197" type="curve" smooth="yes"/>
      <point x="61" y="77"/>
      <point x="149" y="-10"/>
    </contour>
  </outline>
</glyph>
<glyph name="U.serif" format="2">
  <advance width="760"/>
  <unicode hex="0055"/>
  <anchor x="323" y="0" name="bottom"/>
  <anchor x="475" y="714" name="top"/>
  <anchor x="835" y="714" name="topright"/>
  <outline>
    <contour>
      <point x="354" y="-10" type="curve" smooth="yes"/>
      <point x="530" y="-10"/>
      <point x="626" y="71"/>
      <point x="661" y="232" type="curve" smooth="yes"/>
      <point x="738" y="600" type="line" smooth="yes"/>
      <point x="746" y="646"/>
      <point x="786" y="653"/>
      <point x="829" y="653" type="curve" smooth="yes"/>
      <point x="842" y="653" type="line"/>
      <point x="855" y="714" type="line"/>
      <point x="583" y="714" type="line"/>
      <point x="571" y="653" type="line"/>
      <point x="584" y="653" type="line" smooth="yes"/>
      <point x="626" y="653"/>
      <point x="656" y="649"/>
      <point x="656" y="623" type="curve" smooth="yes"/>
      <point x="656" y="619"/>
      <point x="654" y="605"/>
      <point x="652" y="592" type="curve" smooth="yes"/>
      <point x="580" y="258" type="line" smooth="yes"/>
      <point x="558" y="148"/>
      <point x="520" y="69"/>
      <point x="406" y="69" type="curve" smooth="yes"/>
      <point x="334" y="69"/>
      <point x="298" y="103"/>
      <point x="298" y="170" type="curve" smooth="yes"/>
      <point x="298" y="198"/>
      <point x="306" y="237"/>
      <point x="310" y="252" type="curve" smooth="yes"/>
      <point x="387" y="603" type="line" smooth="yes"/>
      <point x="396" y="646"/>
      <point x="436" y="653"/>
      <point x="480" y="653" type="curve" smooth="yes"/>
      <point x="493" y="653" type="line"/>
      <point x="506" y="714" type="line"/>
      <point x="119" y="714" type="line"/>
      <point x="107" y="653" type="line"/>
      <point x="120" y="653" type="line" smooth="yes"/>
      <point x="162" y="653"/>
      <point x="192" y="649"/>
      <point x="192" y="623" type="curve" smooth="yes"/>
      <point x="192" y="619"/>
      <point x="190" y="610"/>
      <point x="184" y="585" type="curve" smooth="yes"/>
      <point x="112" y="252" type="line" smooth="yes"/>
      <point x="107" y="229"/>
      <point x="101" y="184"/>
      <point x="101" y="163" type="curve" smooth="yes"/>
      <point x="101" y="53"/>
      <point x="191" y="-10"/>
    </contour>
  </outline>
</glyph>
<glyph name="V" format="2">
  <advance width="617"/>
  <unicode hex="0056"/>
  <anchor x="228" y="0" name="bottom"/>
  <anchor x="375" y="714" name="top"/>
  <anchor x="690" y="714" name="topright"/>
  <outline>
    <contour>
      <point x="124" y="0" type="line"/>
      <point x="337" y="0" type="line"/>
      <point x="691" y="714" type="line"/>
      <point x="489" y="714" type="line"/>
      <point x="318" y="321" type="line" smooth="yes"/>
      <point x="304" y="291"/>
      <point x="281" y="225"/>
      <point x="269" y="173" type="curve"/>
      <point x="265" y="173" type="line"/>
      <point x="272" y="213"/>
      <point x="274" y="302"/>
      <point x="272" y="354" type="curve" smooth="yes"/>
      <point x="260" y="714" type="line"/>
      <point x="73" y="714" type="line"/>
    </contour>
  </outline>
</glyph>
<glyph name="V.serif" format="2">
  <advance width="722"/>
  <unicode hex="0056"/>
  <anchor x="304" y="0" name="bottom"/>
  <anchor x="456" y="714" name="top"/>
  <anchor x="797" y="714" name="topright"/>
  <outline>
    <contour>
      <point x="165" y="609" type="curve" smooth="yes"/>
      <point x="248" y="0" type="line"/>
      <point x="368" y="0" type="line"/>
      <point x="701" y="594" type="line" smooth="yes"/>
      <point x="732" y="647"/>
      <point x="742" y="653"/>
      <point x="781" y="653" type="curve" smooth="yes"/>
      <point x="809" y="653" type="line"/>
      <point x="821" y="714" type="line"/>
      <point x="550" y="714" type="line"/>
      <point x="539" y="653" type="line"/>
      <point x="562" y="653" type="line" smooth="yes"/>
      <point x="600" y="653"/>
      <point x="621" y="651"/>
      <point x="621" y="632" type="curve" smooth="yes"/>
      <point x="621" y="621"/>
      <point x="617" y="607"/>
      <point x="604" y="585" type="curve" smooth="yes"/>
      <point x="465" y="335" type="line" smooth="yes"/>
      <point x="435" y="282"/>
      <point x="414" y="226"/>
      <point x="402" y="199" type="curve"/>
      <point x="402" y="226"/>
      <point x="401" y="332"/>
      <point x="396" y="368" type="curve" smooth="yes"/>
      <point x="369" y="587" type="line" smooth="yes"/>
      <point x="368" y="596"/>
      <point x="367" y="610"/>
      <point x="367" y="621" type="curve" smooth="yes"/>
      <point x="367" y="653"/>
      <point x="393" y="653"/>
      <point x="436" y="653" type="curve" smooth="yes"/>
      <point x="459" y="653" type="line"/>
      <point x="472" y="714" type="line"/>
      <point x="99" y="714" type="line"/>
      <point x="87" y="653" type="line"/>
      <point x="100" y="653" type="line" smooth="yes"/>
      <point x="129" y="653"/>
      <point x="159" y="649"/>
    </contour>
  </outline>
</glyph>
<glyph name="W" format="2">
  <advance width="935"/>
  <unicode hex="0057"/>
  <anchor x="400" y="0" name="bottom"/>
  <anchor x="546" y="714" name="top"/>
  <anchor x="1008" y="714" name="topright"/>
  <outline>
    <contour>
      <point x="98" y="0" type="line"/>
      <point x="310" y="0" type="line"/>
      <point x="420" y="259" type="line" smooth="yes"/>
      <point x="445" y="317"/>
      <point x="467" y="375"/>
      <point x="487" y="437" type="curve"/>
      <point x="491" y="437" type="line"/>
      <point x="487" y="383"/>
      <point x="485" y="325"/>
      <point x="485" y="274" type="curve" smooth="yes"/>
      <point x="485" y="0" type="line"/>
      <point x="710" y="0" type="line"/>
      <point x="1020" y="714" type="line"/>
      <point x="831" y="714" type="line"/>
      <point x="696" y="372" type="line" smooth="yes"/>
      <point x="674" y="316"/>
      <point x="645" y="232"/>
      <point x="630" y="180" type="curve"/>
      <point x="626" y="180" type="line"/>
      <point x="630" y="227"/>
      <point x="631" y="294"/>
      <point x="631" y="327" type="curve" smooth="yes"/>
      <point x="631" y="714" type="line"/>
      <point x="467" y="714" type="line"/>
      <point x="303" y="337" type="line" smooth="yes"/>
      <point x="282" y="289"/>
      <point x="259" y="232"/>
      <point x="245" y="188" type="curve"/>
      <point x="241" y="188" type="line"/>
      <point x="246" y="232"/>
      <point x="249" y="299"/>
      <point x="250" y="356" type="curve" smooth="yes"/>
      <point x="255" y="714" type="line"/>
      <point x="74" y="714" type="line"/>
    </contour>
  </outline>
</glyph>
<glyph name="W.serif" format="2">
  <advance width="1083"/>
  <unicode hex="0057"/>
  <anchor x="485" y="0" name="bottom"/>
  <anchor x="637" y="714" name="top"/>
  <anchor x="1158" y="714" name="topright"/>
  <outline>
    <contour>
      <point x="162" y="609" type="curve" smooth="yes"/>
      <point x="218" y="0" type="line"/>
      <point x="366" y="0" type="line"/>
      <point x="590" y="420" type="line"/>
      <point x="677" y="0" type="line"/>
      <point x="807" y="0" type="line"/>
      <point x="1076" y="584" type="line" smooth="yes"/>
      <point x="1102" y="639"/>
      <point x="1118" y="653"/>
      <point x="1157" y="653" type="curve" smooth="yes"/>
      <point x="1185" y="653" type="line"/>
      <point x="1197" y="714" type="line"/>
      <point x="924" y="714" type="line"/>
      <point x="912" y="653" type="line"/>
      <point x="935" y="653" type="line" smooth="yes"/>
      <point x="973" y="653"/>
      <point x="989" y="652"/>
      <point x="989" y="636" type="curve" smooth="yes"/>
      <point x="989" y="622"/>
      <point x="984" y="600"/>
      <point x="977" y="585" type="curve" smooth="yes"/>
      <point x="888" y="374" type="line" smooth="yes"/>
      <point x="866" y="324"/>
      <point x="835" y="247"/>
      <point x="825" y="204" type="curve"/>
      <point x="824" y="245"/>
      <point x="811" y="302"/>
      <point x="799" y="363" type="curve" smooth="yes"/>
      <point x="724" y="707" type="line"/>
      <point x="650" y="707" type="line"/>
      <point x="432" y="306" type="line" smooth="yes"/>
      <point x="407" y="259"/>
      <point x="394" y="237"/>
      <point x="386" y="207" type="curve"/>
      <point x="386" y="247"/>
      <point x="379" y="356"/>
      <point x="377" y="373" type="curve" smooth="yes"/>
      <point x="362" y="570" type="line" smooth="yes"/>
      <point x="361" y="596"/>
      <point x="360" y="610"/>
      <point x="360" y="621" type="curve" smooth="yes"/>
      <point x="360" y="653"/>
      <point x="386" y="653"/>
      <point x="429" y="653" type="curve" smooth="yes"/>
      <point x="452" y="653" type="line"/>
      <point x="464" y="714" type="line"/>
      <point x="96" y="714" type="line"/>
      <point x="84" y="653" type="line"/>
      <point x="97" y="653" type="line" smooth="yes"/>
      <point x="126" y="653"/>
      <point x="158" y="649"/>
    </contour>
  </outline>
</glyph>
<glyph name="X" format="2">
  <advance width="663"/>
  <unicode hex="0058"/>
  <anchor x="273" y="0" name="bottom"/>
  <anchor x="401" y="714" name="top"/>
  <anchor x="736" y="714" name="topright"/>
  <outline>
    <contour>
      <point x="-61" y="0" type="line"/>
      <point x="156" y="0" type="line"/>
      <point x="321" y="243" type="line"/>
      <point x="392" y="0" type="line"/>
      <point x="603" y="0" type="line"/>
      <point x="475" y="360" type="line"/>
      <point x="738" y="714" type="line"/>
      <point x="519" y="714" type="line"/>
      <point x="368" y="485" type="line"/>
      <point x="308" y="714" type="line"/>
      <point x="105" y="714" type="line"/>
      <point x="214" y="379" type="line"/>
    </contour>
  </outline>
</glyph>
<glyph name="X.serif" format="2">
  <advance width="785"/>
  <unicode hex="0058"/>
  <anchor x="336" y="0" name="bottom"/>
  <anchor x="488" y="714" name="top"/>
  <anchor x="860" y="714" name="topright"/>
  <outline>
    <contour>
      <point x="-37" y="0" type="line"/>
      <point x="226" y="0" type="line"/>
      <point x="239" y="61" type="line"/>
      <point x="231" y="61" type="line" smooth="yes"/>
      <point x="192" y="61"/>
      <point x="184" y="74"/>
      <point x="184" y="93" type="curve" smooth="yes"/>
      <point x="184" y="112"/>
      <point x="199" y="134"/>
      <point x="224" y="158" type="curve" smooth="yes"/>
      <point x="420" y="351" type="line"/>
      <point x="339" y="330" type="line"/>
      <point x="406" y="185" type="line" smooth="yes"/>
      <point x="426" y="140"/>
      <point x="434" y="115"/>
      <point x="434" y="96" type="curve" smooth="yes"/>
      <point x="434" y="73"/>
      <point x="422" y="61"/>
      <point x="382" y="61" type="curve" smooth="yes"/>
      <point x="364" y="61" type="line"/>
      <point x="352" y="0" type="line"/>
      <point x="726" y="0" type="line"/>
      <point x="739" y="61" type="line"/>
      <point x="726" y="61" type="line" smooth="yes"/>
      <point x="701" y="61"/>
      <point x="675" y="73"/>
      <point x="657" y="114" type="curve" smooth="yes"/>
      <point x="516" y="429" type="line"/>
      <point x="468" y="330" type="line"/>
      <point x="719" y="585" type="line" smooth="yes"/>
      <point x="770" y="638"/>
      <point x="793" y="653"/>
      <point x="832" y="653" type="curve" smooth="yes"/>
      <point x="841" y="653" type="line"/>
      <point x="853" y="714" type="line"/>
      <point x="610" y="714" type="line"/>
      <point x="597" y="653" type="line"/>
      <point x="600" y="653" type="line" smooth="yes"/>
      <point x="631" y="653"/>
      <point x="648" y="645"/>
      <point x="648" y="628" type="curve" smooth="yes"/>
      <point x="648" y="606"/>
      <point x="632" y="586"/>
      <point x="616" y="570" type="curve" smooth="yes"/>
      <point x="440" y="392" type="line"/>
      <point x="526" y="404" type="line"/>
      <point x="453" y="565" type="line" smooth="yes"/>
      <point x="440" y="593"/>
      <point x="435" y="612"/>
      <point x="435" y="625" type="curve" smooth="yes"/>
      <point x="435" y="643"/>
      <point x="449" y="653"/>
      <point x="482" y="653" type="curve" smooth="yes"/>
      <point x="505" y="653" type="line"/>
      <point x="517" y="714" type="line"/>
      <point x="142" y="714" type="line"/>
      <point x="129" y="653" type="line"/>
      <point x="136" y="653" type="line" smooth="yes"/>
      <point x="174" y="653"/>
      <point x="192" y="652"/>
      <point x="214" y="602" type="curve" smooth="yes"/>
      <point x="347" y="310" type="line"/>
      <point x="391" y="416" type="line"/>
      <point x="108" y="133" type="line" smooth="yes"/>
      <point x="55" y="80"/>
      <point x="30" y="61"/>
      <point x="-10" y="61" type="curve" smooth="yes"/>
      <point x="-24" y="61" type="line"/>
    </contour>
  </outline>
</glyph>
<glyph name="Y" format="2">
  <advance width="604"/>
  <unicode hex="0059"/>
  <anchor x="243" y="0" name="bottom"/>
  <anchor x="371" y="714" name="top"/>
  <anchor x="677" y="714" name="topright"/>
  <outline>
    <contour>
      <point x="137" y="0" type="line"/>
      <point x="328" y="0" type="line"/>
      <point x="387" y="277" type="line"/>
      <point x="686" y="714" type="line"/>
      <point x="473" y="714" type="line"/>
      <point x="321" y="449" type="line"/>
      <point x="277" y="714" type="line"/>
      <point x="80" y="714" type="line"/>
      <point x="196" y="277" type="line"/>
    </contour>
  </outline>
</glyph>
<glyph name="Y.serif" format="2">
  <advance width="743"/>
  <unicode hex="0059"/>
  <anchor x="315" y="0" name="bottom"/>
  <anchor x="467" y="714" name="top"/>
  <anchor x="818" y="714" name="topright"/>
  <outline>
    <contour>
      <point x="115" y="0" type="line"/>
      <point x="526" y="0" type="line"/>
      <point x="539" y="61" type="line"/>
      <point x="514" y="61" type="line" smooth="yes"/>
      <point x="472" y="61"/>
      <point x="440" y="65"/>
      <point x="440" y="91" type="curve" smooth="yes"/>
      <point x="440" y="95"/>
      <point x="441" y="100"/>
      <point x="445" y="118" type="curve" smooth="yes"/>
      <point x="468" y="223" type="line"/>
      <point x="727" y="596" type="line" smooth="yes"/>
      <point x="763" y="648"/>
      <point x="777" y="653"/>
      <point x="807" y="653" type="curve" smooth="yes"/>
      <point x="826" y="653" type="line"/>
      <point x="839" y="714" type="line"/>
      <point x="566" y="714" type="line"/>
      <point x="552" y="653" type="line"/>
      <point x="561" y="653" type="line" smooth="yes"/>
      <point x="611" y="653"/>
      <point x="631" y="643"/>
      <point x="631" y="625" type="curve" smooth="yes"/>
      <point x="631" y="602"/>
      <point x="615" y="571"/>
      <point x="607" y="556" type="curve" smooth="yes"/>
      <point x="505" y="405" type="line" smooth="yes"/>
      <point x="472" y="355"/>
      <point x="442" y="302"/>
      <point x="433" y="277" type="curve"/>
      <point x="431" y="310"/>
      <point x="420" y="369"/>
      <point x="413" y="406" type="curve" smooth="yes"/>
      <point x="384" y="552" type="line" smooth="yes"/>
      <point x="376" y="587"/>
      <point x="372" y="614"/>
      <point x="372" y="622" type="curve" smooth="yes"/>
      <point x="372" y="641"/>
      <point x="383" y="653"/>
      <point x="415" y="653" type="curve" smooth="yes"/>
      <point x="457" y="653" type="line"/>
      <point x="469" y="714" type="line"/>
      <point x="103" y="714" type="line"/>
      <point x="91" y="653" type="line"/>
      <point x="104" y="653" type="line" smooth="yes"/>
      <point x="143" y="653"/>
      <point x="153" y="640"/>
      <point x="164" y="600" type="curve" smooth="yes"/>
      <point x="266" y="224" type="line"/>
      <point x="244" y="118" type="line" smooth="yes"/>
      <point x="235" y="72"/>
      <point x="198" y="61"/>
      <point x="157" y="61" type="curve" smooth="yes"/>
      <point x="127" y="61" type="line"/>
    </contour>
  </outline>
</glyph>
<glyph name="Z" format="2">
  <advance width="539"/>
  <unicode hex="005A"/>
  <anchor x="199" y="0" name="bottom"/>
  <anchor x="367" y="714" name="top"/>
  <anchor x="612" y="714" name="topright"/>
  <outline>
    <contour>
      <point x="-45" y="0" type="line"/>
      <point x="460" y="0" type="line"/>
      <point x="493" y="156" type="line"/>
      <point x="228" y="156" type="line"/>
      <point x="570" y="594" type="line"/>
      <point x="595" y="714" type="line"/>
      <point x="114" y="714" type="line"/>
      <point x="81" y="558" type="line"/>
      <point x="315" y="558" type="line"/>
      <point x="-22" y="118" type="line"/>
    </contour>
  </outline>
</glyph>
<glyph name="Z.serif" format="2">
  <advance width="711"/>
  <unicode hex="005A"/>
  <anchor x="299" y="0" name="bottom"/>
  <anchor x="451" y="714" name="top"/>
  <anchor x="786" y="714" name="topright"/>
  <outline>
    <contour>
      <point x="9" y="0" type="line"/>
      <point x="619" y="0" type="line"/>
      <point x="671" y="229" type="line"/>
      <point x="584" y="229" type="line"/>
      <point x="576" y="198" type="line" smooth="yes"/>
      <point x="545" y="91"/>
      <point x="483" y="69"/>
      <point x="422" y="69" type="curve" smooth="yes"/>
      <point x="261" y="69" type="line"/>
      <point x="748" y="656" type="line"/>
      <point x="759" y="714" type="line"/>
      <point x="179" y="714" type="line"/>
      <point x="125" y="485" type="line"/>
      <point x="212" y="485" type="line"/>
      <point x="231" y="554" type="line" smooth="yes"/>
      <point x="250" y="628"/>
      <point x="294" y="645"/>
      <point x="354" y="645" type="curve" smooth="yes"/>
      <point x="504" y="645" type="line"/>
      <point x="19" y="57" type="line"/>
    </contour>
  </outline>
</glyph>
<glyph name="bracketleft" format="2">
  <advance width="360"/>
  <unicode hex="005B"/>
  <outline>
    <contour>
      <point x="-26" y="-168" type="line"/>
      <point x="233" y="-168" type="line"/>
      <point x="259" y="-44" type="line"/>
      <point x="154" y="-44" type="line"/>
      <point x="293" y="610" type="line"/>
      <point x="398" y="610" type="line"/>
      <point x="425" y="734" type="line"/>
      <point x="166" y="734" type="line"/>
    </contour>
  </outline>
</glyph>
<glyph name="bracketright" format="2">
  <advance width="360"/>
  <unicode hex="005D"/>
  <outline>
    <contour>
      <point x="-65" y="-168" type="line"/>
      <point x="192" y="-168" type="line"/>
      <point x="384" y="734" type="line"/>
      <point x="126" y="734" type="line"/>
      <point x="99" y="610" type="line"/>
      <point x="204" y="610" type="line"/>
      <point x="65" y="-44" type="line"/>
      <point x="-39" y="-44" type="line"/>
    </contour>
  </outline>
</glyph>
<glyph name="asciicircum" format="2">
  <advance width="535"/>
  <unicode hex="005E"/>
  <outline>
    <contour>
      <point x="-3" y="245" type="line"/>
      <point x="142" y="245" type="line"/>
      <point x="318" y="523" type="line"/>
      <point x="394" y="245" type="line"/>
      <point x="528" y="245" type="line"/>
      <point x="389" y="714" type="line"/>
      <point x="305" y="714" type="line"/>
    </contour>
  </outline>
</glyph>
<glyph name="underscore" format="2">
  <advance width="450"/>
  <unicode hex="005F"/>
  <outline>
    <contour>
      <point x="-90" y="-185" type="line"/>
      <point x="364" y="-185" type="line"/>
      <point x="392" y="-65" type="line"/>
      <point x="-62" y="-65" type="line"/>
    </contour>
  </outline>
</glyph>
<glyph name="grave" format="2">
  <advance width="353"/>
  <unicode hex="0060"/>
  <anchor x="282" y="553" name="_top"/>
  <outline>
    <contour>
      <point x="268" y="606" type="curve"/>
      <point x="383" y="606" type="line"/>
      <point x="383" y="618" type="line"/>
      <point x="360" y="669"/>
      <point x="345" y="723"/>
      <point x="337" y="766" type="curve"/>
      <point x="144" y="766" type="line"/>
      <point x="144" y="756" type="line"/>
      <point x="168" y="707"/>
      <point x="224" y="647"/>
    </contour>
  </outline>
</glyph>
<glyph name="grave.serif" format="2">
  <advance width="375"/>
  <unicode hex="0060"/>
  <outline>
    <contour>
      <point x="332" y="606" type="curve"/>
      <point x="407" y="606" type="line"/>
      <point x="410" y="619" type="line"/>
      <point x="388" y="643"/>
      <point x="345" y="713"/>
      <point x="329" y="766" type="curve"/>
      <point x="147" y="766" type="line"/>
      <point x="144" y="756" type="line"/>
      <point x="170" y="722"/>
      <point x="263" y="635"/>
    </contour>
  </outline>
</glyph>
<glyph name="a" format="2">
  <advance width="607"/>
  <unicode hex="0061"/>
  <anchor x="245" y="0" name="bottom"/>
  <anchor x="363" y="553" name="top"/>
  <anchor x="646" y="553" name="topright"/>
  <outline>
    <contour>
      <point x="198" y="-10" type="curve" smooth="yes"/>
      <point x="263" y="-10"/>
      <point x="300" y="19"/>
      <point x="329" y="60" type="curve"/>
      <point x="333" y="60" type="line"/>
      <point x="328" y="0" type="line"/>
      <point x="479" y="0" type="line"/>
      <point x="596" y="553" type="line"/>
      <point x="445" y="553" type="line"/>
      <point x="419" y="485" type="line"/>
      <point x="415" y="485" type="line"/>
      <point x="388" y="532"/>
      <point x="350" y="563"/>
      <point x="287" y="563" type="curve" smooth="yes"/>
      <point x="119" y="563"/>
      <point x="41" y="336"/>
      <point x="41" y="201" type="curve" smooth="yes"/>
      <point x="41" y="44"/>
      <point x="113" y="-10"/>
    </contour>
    <contour>
      <point x="276" y="142" type="curve" smooth="yes"/>
      <point x="248" y="142"/>
      <point x="234" y="167"/>
      <point x="234" y="212" type="curve" smooth="yes"/>
      <point x="234" y="307"/>
      <point x="279" y="411"/>
      <point x="331" y="411" type="curve" smooth="yes"/>
      <point x="358" y="411"/>
      <point x="371" y="383"/>
      <point x="371" y="341" type="curve" smooth="yes"/>
      <point x="371" y="321"/>
      <point x="368" y="300"/>
      <point x="365" y="280" type="curve" smooth="yes"/>
      <point x="353" y="209"/>
      <point x="319" y="142"/>
    </contour>
  </outline>
</glyph>
<glyph name="a.serif" format="2">
  <advance width="728"/>
  <unicode hex="0061"/>
  <anchor x="307" y="0" name="bottom"/>
  <anchor x="421" y="536" name="top"/>
  <anchor x="765" y="536" name="topright"/>
  <outline>
    <contour>
      <point x="191" y="-10" type="curve" smooth="yes"/>
      <point x="303" y="-10"/>
      <point x="336" y="38"/>
      <point x="387" y="123" type="curve"/>
      <point x="395" y="123" type="line"/>
      <point x="391" y="102"/>
      <point x="390" y="84"/>
      <point x="390" y="75" type="curve" smooth="yes"/>
      <point x="390" y="16"/>
      <point x="436" y="-10"/>
      <point x="503" y="-10" type="curve"/>
      <point x="591" y="-10"/>
      <point x="636" y="24"/>
      <point x="673" y="50" type="curve"/>
      <point x="648" y="98" type="line"/>
      <point x="630" y="88"/>
      <point x="621" y="81"/>
      <point x="604" y="81" type="curve" smooth="yes"/>
      <point x="584" y="81"/>
      <point x="568" y="96"/>
      <point x="568" y="128" type="curve" smooth="yes"/>
      <point x="568" y="154"/>
      <point x="581" y="207"/>
      <point x="586" y="229" type="curve" smooth="yes"/>
      <point x="651" y="535" type="line"/>
      <point x="582" y="535" type="line"/>
      <point x="522" y="512" type="line"/>
      <point x="490" y="526"/>
      <point x="419" y="546"/>
      <point x="364" y="546" type="curve" smooth="yes"/>
      <point x="151" y="546"/>
      <point x="38" y="329"/>
      <point x="38" y="173" type="curve" smooth="yes"/>
      <point x="38" y="69"/>
      <point x="92" y="-10"/>
    </contour>
    <contour>
      <point x="274" y="83" type="curve" smooth="yes"/>
      <point x="247" y="83"/>
      <point x="227" y="102"/>
      <point x="227" y="174" type="curve" smooth="yes"/>
      <point x="227" y="278"/>
      <point x="280" y="468"/>
      <point x="385" y="468" type="curve" smooth="yes"/>
      <point x="407" y="468"/>
      <point x="428" y="461"/>
      <point x="440" y="446" type="curve"/>
      <point x="406" y="288" type="line" smooth="yes"/>
      <point x="386" y="187"/>
      <point x="326" y="83"/>
    </contour>
  </outline>
</glyph>
<glyph name="b" format="2">
  <advance width="607"/>
  <unicode hex="0062"/>
  <anchor x="250" y="0" name="bottom"/>
  <anchor x="427" y="760" name="top"/>
  <anchor x="690" y="760" name="topright"/>
  <outline>
    <contour>
      <point x="321" y="-10" type="curve" smooth="yes"/>
      <point x="489" y="-10"/>
      <point x="566" y="217"/>
      <point x="566" y="352" type="curve" smooth="yes"/>
      <point x="566" y="509"/>
      <point x="494" y="563"/>
      <point x="409" y="563" type="curve"/>
      <point x="347" y="563"/>
      <point x="323" y="532"/>
      <point x="297" y="500" type="curve"/>
      <point x="293" y="500" type="line"/>
      <point x="305" y="528"/>
      <point x="325" y="586"/>
      <point x="337" y="647" type="curve" smooth="yes"/>
      <point x="361" y="760" type="line"/>
      <point x="172" y="760" type="line"/>
      <point x="11" y="0" type="line"/>
      <point x="161" y="0" type="line"/>
      <point x="185" y="61" type="line"/>
      <point x="189" y="61" type="line"/>
      <point x="228" y="10"/>
      <point x="265" y="-10"/>
    </contour>
    <contour>
      <point x="275" y="142" type="curve"/>
      <point x="249" y="142"/>
      <point x="237" y="170"/>
      <point x="237" y="212" type="curve" smooth="yes"/>
      <point x="237" y="294"/>
      <point x="272" y="411"/>
      <point x="331" y="411" type="curve" smooth="yes"/>
      <point x="359" y="411"/>
      <point x="373" y="386"/>
      <point x="373" y="341" type="curve" smooth="yes"/>
      <point x="373" y="246"/>
      <point x="327" y="142"/>
    </contour>
  </outline>
</glyph>
<glyph name="b.serif" format="2">
  <advance width="668"/>
  <unicode hex="0062"/>
  <anchor x="277" y="0" name="bottom"/>
  <anchor x="439" y="760" name="top"/>
  <anchor x="753" y="760" name="topright"/>
  <outline>
    <contour>
      <point x="291" y="-10" type="curve" smooth="yes"/>
      <point x="504" y="-10"/>
      <point x="631" y="203"/>
      <point x="631" y="365" type="curve" smooth="yes"/>
      <point x="631" y="483"/>
      <point x="560" y="546"/>
      <point x="471" y="546" type="curve" smooth="yes"/>
      <point x="378" y="546"/>
      <point x="324" y="502"/>
      <point x="275" y="400" type="curve"/>
      <point x="270" y="400" type="line"/>
      <point x="281" y="428"/>
      <point x="331" y="557"/>
      <point x="339" y="596" type="curve" smooth="yes"/>
      <point x="374" y="760" type="line"/>
      <point x="94" y="760" type="line"/>
      <point x="82" y="699" type="line"/>
      <point x="116" y="699" type="line" smooth="yes"/>
      <point x="154" y="699"/>
      <point x="156" y="688"/>
      <point x="156" y="668" type="curve" smooth="yes"/>
      <point x="156" y="650"/>
      <point x="153" y="635"/>
      <point x="146" y="602" type="curve" smooth="yes"/>
      <point x="17" y="-3" type="line"/>
      <point x="91" y="-3" type="line"/>
      <point x="157" y="26" type="line"/>
      <point x="183" y="7"/>
      <point x="232" y="-10"/>
    </contour>
    <contour>
      <point x="284" y="68" type="curve" smooth="yes"/>
      <point x="260" y="68"/>
      <point x="241" y="78"/>
      <point x="229" y="90" type="curve"/>
      <point x="269" y="272" type="line" smooth="yes"/>
      <point x="279" y="319"/>
      <point x="331" y="453"/>
      <point x="395" y="453" type="curve" smooth="yes"/>
      <point x="420" y="453"/>
      <point x="441" y="427"/>
      <point x="441" y="352" type="curve" smooth="yes"/>
      <point x="441" y="256"/>
      <point x="389" y="68"/>
    </contour>
  </outline>
</glyph>
<glyph name="c" format="2">
  <advance width="504"/>
  <unicode hex="0063"/>
  <anchor x="230" y="0" name="bottom"/>
  <anchor x="322" y="553" name="top"/>
  <anchor x="543" y="553" name="topright"/>
  <outline>
    <contour>
      <point x="247" y="-10" type="curve" smooth="yes"/>
      <point x="324" y="-10"/>
      <point x="378" y="6"/>
      <point x="430" y="34" type="curve"/>
      <point x="430" y="184" type="line"/>
      <point x="381" y="158"/>
      <point x="339" y="142"/>
      <point x="292" y="142" type="curve" smooth="yes"/>
      <point x="254" y="142"/>
      <point x="231" y="163"/>
      <point x="231" y="228" type="curve" smooth="yes"/>
      <point x="231" y="300"/>
      <point x="268" y="413"/>
      <point x="346" y="413" type="curve" smooth="yes"/>
      <point x="382" y="413"/>
      <point x="423" y="399"/>
      <point x="456" y="384" type="curve"/>
      <point x="516" y="524" type="line"/>
      <point x="460" y="550"/>
      <point x="406" y="563"/>
      <point x="337" y="563" type="curve" smooth="yes"/>
      <point x="157" y="563"/>
      <point x="41" y="411"/>
      <point x="41" y="216" type="curve" smooth="yes"/>
      <point x="41" y="55"/>
      <point x="135" y="-10"/>
    </contour>
  </outline>
</glyph>
<glyph name="c.serif" format="2">
  <advance width="558"/>
  <unicode hex="0063"/>
  <anchor x="252" y="0" name="bottom"/>
  <anchor x="376" y="536" name="top"/>
  <anchor x="595" y="536" name="topright"/>
  <outline>
    <contour>
      <point x="283" y="-10" type="curve" smooth="yes"/>
      <point x="428" y="-10"/>
      <point x="493" y="49"/>
      <point x="493" y="107" type="curve" smooth="yes"/>
      <point x="493" y="134"/>
      <point x="484" y="154"/>
      <point x="474" y="165" type="curve"/>
      <point x="446" y="121"/>
      <point x="409" y="76"/>
      <point x="337" y="76" type="curve" smooth="yes"/>
      <point x="265" y="76"/>
      <point x="227" y="122"/>
      <point x="227" y="199" type="curve" smooth="yes"/>
      <point x="227" y="299"/>
      <point x="272" y="477"/>
      <point x="342" y="477" type="curve" smooth="yes"/>
      <point x="386" y="477"/>
      <point x="412" y="414"/>
      <point x="412" y="338" type="curve"/>
      <point x="523" y="338"/>
      <point x="558" y="389"/>
      <point x="558" y="433" type="curve" smooth="yes"/>
      <point x="558" y="496"/>
      <point x="509" y="546"/>
      <point x="390" y="546" type="curve" smooth="yes"/>
      <point x="158" y="546"/>
      <point x="38" y="345"/>
      <point x="38" y="197" type="curve" smooth="yes"/>
      <point x="38" y="58"/>
      <point x="147" y="-10"/>
    </contour>
  </outline>
</glyph>
<glyph name="d" format="2">
  <advance width="604"/>
  <unicode hex="0064"/>
  <anchor x="247" y="0" name="bottom"/>
  <anchor x="361" y="277" name="center"/>
  <anchor x="405" y="760" name="top"/>
  <anchor x="684" y="760" name="topright"/>
  <outline>
    <contour>
      <point x="198" y="-10" type="curve" smooth="yes"/>
      <point x="268" y="-10"/>
      <point x="302" y="22"/>
      <point x="329" y="60" type="curve"/>
      <point x="333" y="60" type="line"/>
      <point x="328" y="0" type="line"/>
      <point x="479" y="0" type="line"/>
      <point x="640" y="760" type="line"/>
      <point x="449" y="760" type="line"/>
      <point x="419" y="613" type="line" smooth="yes"/>
      <point x="409" y="567"/>
      <point x="406" y="501"/>
      <point x="406" y="489" type="curve"/>
      <point x="402" y="489" type="line"/>
      <point x="372" y="534"/>
      <point x="346" y="563"/>
      <point x="286" y="563" type="curve" smooth="yes"/>
      <point x="118" y="563"/>
      <point x="41" y="336"/>
      <point x="41" y="201" type="curve" smooth="yes"/>
      <point x="41" y="44"/>
      <point x="113" y="-10"/>
    </contour>
    <contour>
      <point x="276" y="142" type="curve" smooth="yes"/>
      <point x="248" y="142"/>
      <point x="234" y="167"/>
      <point x="234" y="212" type="curve" smooth="yes"/>
      <point x="234" y="307"/>
      <point x="280" y="411"/>
      <point x="332" y="411" type="curve" smooth="yes"/>
      <point x="359" y="411"/>
      <point x="371" y="383"/>
      <point x="371" y="341" type="curve" smooth="yes"/>
      <point x="371" y="260"/>
      <point x="334" y="142"/>
    </contour>
  </outline>
</glyph>
<glyph name="d.serif" format="2">
  <advance width="728"/>
  <unicode hex="0064"/>
  <anchor x="307" y="0" name="bottom"/>
  <anchor x="421" y="268" name="center"/>
  <anchor x="469" y="760" name="top"/>
  <anchor x="773" y="760" name="topright"/>
  <outline>
    <contour>
      <point x="197" y="-10" type="curve" smooth="yes"/>
      <point x="281" y="-10"/>
      <point x="336" y="20"/>
      <point x="389" y="123" type="curve"/>
      <point x="395" y="123" type="line"/>
      <point x="393" y="116"/>
      <point x="390" y="99"/>
      <point x="390" y="77" type="curve" smooth="yes"/>
      <point x="390" y="14"/>
      <point x="437" y="-10"/>
      <point x="503" y="-10" type="curve" smooth="yes"/>
      <point x="586" y="-10"/>
      <point x="634" y="21"/>
      <point x="673" y="52" type="curve"/>
      <point x="648" y="98" type="line"/>
      <point x="639" y="92"/>
      <point x="621" y="81"/>
      <point x="604" y="81" type="curve" smooth="yes"/>
      <point x="583" y="81"/>
      <point x="568" y="93"/>
      <point x="568" y="121" type="curve" smooth="yes"/>
      <point x="568" y="143"/>
      <point x="576" y="179"/>
      <point x="583" y="215" type="curve" smooth="yes"/>
      <point x="699" y="760" type="line"/>
      <point x="418" y="760" type="line"/>
      <point x="407" y="699" type="line"/>
      <point x="431" y="699" type="line" smooth="yes"/>
      <point x="479" y="699"/>
      <point x="481" y="686"/>
      <point x="481" y="669" type="curve" smooth="yes"/>
      <point x="481" y="654"/>
      <point x="478" y="638"/>
      <point x="474" y="619" type="curve" smooth="yes"/>
      <point x="466" y="585" type="line" smooth="yes"/>
      <point x="463" y="573"/>
      <point x="456" y="538"/>
      <point x="454" y="521" type="curve"/>
      <point x="428" y="536"/>
      <point x="391" y="546"/>
      <point x="352" y="546" type="curve" smooth="yes"/>
      <point x="151" y="546"/>
      <point x="38" y="329"/>
      <point x="38" y="173" type="curve" smooth="yes"/>
      <point x="38" y="78"/>
      <point x="83" y="-10"/>
    </contour>
    <contour>
      <point x="274" y="83" type="curve" smooth="yes"/>
      <point x="247" y="83"/>
      <point x="227" y="103"/>
      <point x="227" y="174" type="curve" smooth="yes"/>
      <point x="227" y="276"/>
      <point x="282" y="468"/>
      <point x="381" y="468" type="curve" smooth="yes"/>
      <point x="400" y="468"/>
      <point x="426" y="459"/>
      <point x="440" y="446" type="curve"/>
      <point x="406" y="288" type="line" smooth="yes"/>
      <point x="384" y="185"/>
      <point x="326" y="83"/>
    </contour>
  </outline>
</glyph>
<glyph name="e" format="2">
  <advance width="579"/>
  <unicode hex="0065"/>
  <anchor x="260" y="0" name="bottom"/>
  <anchor x="352" y="553" name="top"/>
  <anchor x="618" y="553" name="topright"/>
  <outline>
    <contour>
      <point x="260" y="-10" type="curve" smooth="yes"/>
      <point x="356" y="-10"/>
      <point x="412" y="10"/>
      <point x="471" y="40" type="curve"/>
      <point x="471" y="174" type="line"/>
      <point x="414" y="144"/>
      <point x="367" y="126"/>
      <point x="311" y="126" type="curve" smooth="yes"/>
      <point x="258" y="126"/>
      <point x="231" y="149"/>
      <point x="231" y="198" type="curve" smooth="yes"/>
      <point x="231" y="201"/>
      <point x="231" y="203"/>
      <point x="231" y="206" type="curve"/>
      <point x="260" y="206" type="line" smooth="yes"/>
      <point x="466" y="206"/>
      <point x="557" y="287"/>
      <point x="557" y="409" type="curve" smooth="yes"/>
      <point x="557" y="502"/>
      <point x="482" y="563"/>
      <point x="358" y="563" type="curve" smooth="yes"/>
      <point x="143" y="563"/>
      <point x="41" y="390"/>
      <point x="41" y="209" type="curve" smooth="yes"/>
      <point x="41" y="73"/>
      <point x="120" y="-10"/>
    </contour>
    <contour>
      <point x="264" y="324" type="curve" smooth="yes"/>
      <point x="250" y="324" type="line"/>
      <point x="257" y="375"/>
      <point x="293" y="435"/>
      <point x="337" y="435" type="curve" smooth="yes"/>
      <point x="365" y="435"/>
      <point x="378" y="419"/>
      <point x="378" y="398" type="curve" smooth="yes"/>
      <point x="378" y="364"/>
      <point x="349" y="324"/>
    </contour>
  </outline>
</glyph>
<glyph name="f.serif" format="2">
  <advance width="467"/>
  <unicode hex="0066"/>
  <anchor x="-75" y="-240" name="bottom"/>
  <anchor x="441" y="770" name="top"/>
  <anchor x="644" y="770" name="topright"/>
  <outline>
    <contour>
      <point x="-75" y="-240" type="curve" smooth="yes"/>
      <point x="33" y="-240"/>
      <point x="203" y="-196"/>
      <point x="249" y="21" type="curve" smooth="yes"/>
      <point x="341" y="460" type="line"/>
      <point x="479" y="460" type="line"/>
      <point x="495" y="536" type="line"/>
      <point x="358" y="536" type="line"/>
      <point x="371" y="600" type="line" smooth="yes"/>
      <point x="384" y="668"/>
      <point x="401" y="701"/>
      <point x="435" y="701" type="curve" smooth="yes"/>
      <point x="469" y="701"/>
      <point x="480" y="651"/>
      <point x="480" y="600" type="curve"/>
      <point x="571" y="600"/>
      <point x="619" y="629"/>
      <point x="619" y="673" type="curve" smooth="yes"/>
      <point x="619" y="726"/>
      <point x="557" y="770"/>
      <point x="441" y="770" type="curve" smooth="yes"/>
      <point x="288" y="770"/>
      <point x="207" y="705"/>
      <point x="173" y="571" type="curve" smooth="yes"/>
      <point x="164" y="536" type="line"/>
      <point x="68" y="515" type="line"/>
      <point x="55" y="460" type="line"/>
      <point x="146" y="460" type="line"/>
      <point x="48" y="-9" type="line" smooth="yes"/>
      <point x="20" y="-142"/>
      <point x="-13" y="-172"/>
      <point x="-78" y="-172" type="curve" smooth="yes"/>
      <point x="-93" y="-172"/>
      <point x="-113" y="-168"/>
      <point x="-124" y="-165" type="curve"/>
      <point x="-139" y="-232" type="line"/>
      <point x="-126" y="-236"/>
      <point x="-95" y="-240"/>
    </contour>
  </outline>
</glyph>
<glyph name="g" format="2">
  <advance width="607"/>
  <unicode hex="0067"/>
  <anchor x="194" y="-240" name="bottom"/>
  <anchor x="357" y="553" name="top"/>
  <anchor x="646" y="553" name="topright"/>
  <outline>
    <contour>
      <point x="191" y="-240" type="curve" smooth="yes"/>
      <point x="326" y="-240"/>
      <point x="439" y="-185"/>
      <point x="476" y="-13" type="curve"/>
      <point x="596" y="553" type="line"/>
      <point x="445" y="553" type="line"/>
      <point x="419" y="485" type="line"/>
      <point x="415" y="485" type="line"/>
      <point x="379" y="540"/>
      <point x="349" y="563"/>
      <point x="286" y="563" type="curve" smooth="yes"/>
      <point x="118" y="563"/>
      <point x="41" y="336"/>
      <point x="41" y="199" type="curve" smooth="yes"/>
      <point x="41" y="48"/>
      <point x="104" y="-5"/>
      <point x="187" y="-5" type="curve" smooth="yes"/>
      <point x="250" y="-5"/>
      <point x="282" y="21"/>
      <point x="308" y="54" type="curve"/>
      <point x="312" y="54" type="line"/>
      <point x="307" y="38"/>
      <point x="302" y="19"/>
      <point x="299" y="4" type="curve" smooth="yes"/>
      <point x="294" y="-18" type="line"/>
      <point x="282" y="-64"/>
      <point x="247" y="-96"/>
      <point x="186" y="-96" type="curve" smooth="yes"/>
      <point x="123" y="-96"/>
      <point x="64" y="-81"/>
      <point x="13" y="-54" type="curve"/>
      <point x="13" y="-209" type="line"/>
      <point x="60" y="-226"/>
      <point x="109" y="-240"/>
    </contour>
    <contour>
      <point x="276" y="142" type="curve" smooth="yes"/>
      <point x="248" y="142"/>
      <point x="234" y="167"/>
      <point x="234" y="212" type="curve" smooth="yes"/>
      <point x="234" y="307"/>
      <point x="280" y="411"/>
      <point x="332" y="411" type="curve" smooth="yes"/>
      <point x="359" y="411"/>
      <point x="371" y="383"/>
      <point x="371" y="341" type="curve" smooth="yes"/>
      <point x="371" y="260"/>
      <point x="334" y="142"/>
    </contour>
  </outline>
</glyph>
<glyph name="g.serif" format="2">
  <advance width="598"/>
  <unicode hex="0067"/>
  <anchor x="191" y="-240" name="bottom"/>
  <anchor x="356" y="536" name="top"/>
  <anchor x="635" y="536" name="topright"/>
  <outline>
    <contour>
      <point x="170" y="-240" type="curve" smooth="yes"/>
      <point x="376" y="-240"/>
      <point x="501" y="-156"/>
      <point x="501" y="-34" type="curve" smooth="yes"/>
      <point x="501" y="54"/>
      <point x="443" y="97"/>
      <point x="346" y="105" type="curve" smooth="yes"/>
      <point x="222" y="117" type="line" smooth="yes"/>
      <point x="190" y="120"/>
      <point x="166" y="124"/>
      <point x="166" y="147" type="curve" smooth="yes"/>
      <point x="166" y="161"/>
      <point x="177" y="178"/>
      <point x="209" y="193" type="curve"/>
      <point x="221" y="191"/>
      <point x="261" y="189"/>
      <point x="274" y="189" type="curve" smooth="yes"/>
      <point x="448" y="189"/>
      <point x="524" y="294"/>
      <point x="524" y="396" type="curve" smooth="yes"/>
      <point x="524" y="425"/>
      <point x="511" y="460"/>
      <point x="497" y="478" type="curve"/>
      <point x="512" y="489"/>
      <point x="523" y="492"/>
      <point x="541" y="492" type="curve" smooth="yes"/>
      <point x="567" y="492"/>
      <point x="581" y="476"/>
      <point x="581" y="444" type="curve"/>
      <point x="633" y="444"/>
      <point x="648" y="486"/>
      <point x="648" y="522" type="curve" smooth="yes"/>
      <point x="648" y="553"/>
      <point x="626" y="580"/>
      <point x="581" y="580" type="curve" smooth="yes"/>
      <point x="531" y="580"/>
      <point x="494" y="551"/>
      <point x="461" y="514" type="curve"/>
      <point x="430" y="536"/>
      <point x="387" y="546"/>
      <point x="341" y="546" type="curve" smooth="yes"/>
      <point x="163" y="546"/>
      <point x="77" y="426"/>
      <point x="77" y="333" type="curve" smooth="yes"/>
      <point x="77" y="276"/>
      <point x="103" y="234"/>
      <point x="147" y="212" type="curve"/>
      <point x="69" y="167"/>
      <point x="30" y="127"/>
      <point x="30" y="85" type="curve" smooth="yes"/>
      <point x="30" y="42"/>
      <point x="57" y="16"/>
      <point x="83" y="1" type="curve"/>
      <point x="2" y="-12"/>
      <point x="-75" y="-53"/>
      <point x="-75" y="-115" type="curve" smooth="yes"/>
      <point x="-75" y="-187"/>
      <point x="-10" y="-240"/>
    </contour>
    <contour>
      <point x="183" y="-172" type="curve" smooth="yes"/>
      <point x="92" y="-172"/>
      <point x="72" y="-141"/>
      <point x="72" y="-110" type="curve" smooth="yes"/>
      <point x="72" y="-77"/>
      <point x="111" y="-41"/>
      <point x="161" y="-33" type="curve"/>
      <point x="244" y="-40" type="line" smooth="yes"/>
      <point x="316" y="-46"/>
      <point x="341" y="-61"/>
      <point x="341" y="-95" type="curve" smooth="yes"/>
      <point x="341" y="-135"/>
      <point x="290" y="-172"/>
    </contour>
    <contour>
      <point x="271" y="260" type="curve" smooth="yes"/>
      <point x="243" y="260"/>
      <point x="228" y="277"/>
      <point x="228" y="319" type="curve" smooth="yes"/>
      <point x="228" y="389"/>
      <point x="264" y="472"/>
      <point x="317" y="472" type="curve" smooth="yes"/>
      <point x="346" y="472"/>
      <point x="360" y="454"/>
      <point x="360" y="415" type="curve" smooth="yes"/>
      <point x="360" y="343"/>
      <point x="327" y="260"/>
    </contour>
  </outline>
</glyph>
<glyph name="h" format="2">
  <advance width="622"/>
  <unicode hex="0068"/>
  <anchor x="259" y="0" name="bottom"/>
  <anchor x="370" y="277" name="center"/>
  <anchor x="265" y="760" name="top"/>
  <anchor x="665" y="760" name="topright"/>
  <outline>
    <contour>
      <point x="11" y="0" type="line"/>
      <point x="200" y="0" type="line"/>
      <point x="257" y="270" type="line" smooth="yes"/>
      <point x="278" y="372"/>
      <point x="310" y="413"/>
      <point x="347" y="413" type="curve" smooth="yes"/>
      <point x="367" y="413"/>
      <point x="384" y="399"/>
      <point x="384" y="371" type="curve" smooth="yes"/>
      <point x="384" y="348"/>
      <point x="379" y="319"/>
      <point x="375" y="302" type="curve" smooth="yes"/>
      <point x="312" y="0" type="line"/>
      <point x="501" y="0" type="line"/>
      <point x="563" y="294" type="line" smooth="yes"/>
      <point x="570" y="329"/>
      <point x="575" y="369"/>
      <point x="575" y="406" type="curve" smooth="yes"/>
      <point x="575" y="491"/>
      <point x="532" y="563"/>
      <point x="429" y="563" type="curve" smooth="yes"/>
      <point x="374" y="563"/>
      <point x="330" y="544"/>
      <point x="296" y="500" type="curve"/>
      <point x="292" y="500" type="line"/>
      <point x="306" y="534"/>
      <point x="325" y="591"/>
      <point x="335" y="638" type="curve" smooth="yes"/>
      <point x="361" y="760" type="line"/>
      <point x="172" y="760" type="line"/>
    </contour>
  </outline>
</glyph>
<glyph name="h.serif" format="2">
  <advance width="698"/>
  <unicode hex="0068"/>
  <anchor x="292" y="0" name="bottom"/>
  <anchor x="406" y="268" name="center"/>
  <anchor x="454" y="760" name="top"/>
  <anchor x="783" y="760" name="topright"/>
  <outline>
    <contour>
      <point x="507" y="-10" type="curve" smooth="yes"/>
      <point x="595" y="-10"/>
      <point x="651" y="29"/>
      <point x="683" y="68" type="curve"/>
      <point x="654" y="106" type="line"/>
      <point x="631" y="91"/>
      <point x="620" y="83"/>
      <point x="599" y="83" type="curve" smooth="yes"/>
      <point x="577" y="83"/>
      <point x="564" y="98"/>
      <point x="564" y="125" type="curve" smooth="yes"/>
      <point x="564" y="152"/>
      <point x="571" y="179"/>
      <point x="579" y="215" type="curve" smooth="yes"/>
      <point x="599" y="314" type="line" smooth="yes"/>
      <point x="606" y="349"/>
      <point x="617" y="394"/>
      <point x="617" y="429" type="curve" smooth="yes"/>
      <point x="617" y="491"/>
      <point x="586" y="547"/>
      <point x="491" y="547" type="curve" smooth="yes"/>
      <point x="415" y="547"/>
      <point x="351" y="515"/>
      <point x="296" y="443" type="curve"/>
      <point x="294" y="443" type="line"/>
      <point x="300" y="462"/>
      <point x="309" y="494"/>
      <point x="313" y="513" type="curve" smooth="yes"/>
      <point x="366" y="760" type="line"/>
      <point x="83" y="760" type="line"/>
      <point x="72" y="699" type="line"/>
      <point x="97" y="699" type="line" smooth="yes"/>
      <point x="141" y="699"/>
      <point x="143" y="684"/>
      <point x="143" y="664" type="curve" smooth="yes"/>
      <point x="143" y="653"/>
      <point x="140" y="638"/>
      <point x="137" y="625" type="curve" smooth="yes"/>
      <point x="4" y="0" type="line"/>
      <point x="196" y="0" type="line"/>
      <point x="253" y="238" type="line" smooth="yes"/>
      <point x="270" y="310"/>
      <point x="319" y="445"/>
      <point x="380" y="445" type="curve" smooth="yes"/>
      <point x="409" y="445"/>
      <point x="414" y="413"/>
      <point x="414" y="389" type="curve" smooth="yes"/>
      <point x="414" y="357"/>
      <point x="404" y="307"/>
      <point x="398" y="282" type="curve" smooth="yes"/>
      <point x="381" y="202" type="line" smooth="yes"/>
      <point x="371" y="159"/>
      <point x="367" y="124"/>
      <point x="367" y="99" type="curve" smooth="yes"/>
      <point x="367" y="31"/>
      <point x="418" y="-10"/>
    </contour>
  </outline>
</glyph>
<glyph name="i" format="2">
  <advance width="325"/>
  <unicode hex="0069"/>
  <anchor x="104" y="0" name="bottom"/>
  <anchor x="270" y="777" name="top"/>
  <anchor x="412" y="777" name="topright"/>
  <outline>
    <contour>
      <point x="11" y="0" type="line"/>
      <point x="200" y="0" type="line"/>
      <point x="318" y="553" type="line"/>
      <point x="128" y="553" type="line"/>
    </contour>
    <contour>
      <point x="244" y="606" type="curve" smooth="yes"/>
      <point x="319" y="606"/>
      <point x="354" y="647"/>
      <point x="354" y="708" type="curve" smooth="yes"/>
      <point x="354" y="759"/>
      <point x="311" y="777"/>
      <point x="261" y="777" type="curve" smooth="yes"/>
      <point x="192" y="777"/>
      <point x="151" y="741"/>
      <point x="151" y="675" type="curve" smooth="yes"/>
      <point x="151" y="624"/>
      <point x="191" y="606"/>
    </contour>
  </outline>
</glyph>
<glyph name="i.serif" format="2">
  <advance width="391"/>
  <unicode hex="0069"/>
  <anchor x="139" y="0" name="bottom"/>
  <anchor x="304" y="777" name="top"/>
  <anchor x="479" y="777" name="topright"/>
  <outline>
    <contour>
      <point x="207" y="-10" type="curve" smooth="yes"/>
      <point x="297" y="-10"/>
      <point x="339" y="26"/>
      <point x="373" y="66" type="curve"/>
      <point x="345" y="103" type="line"/>
      <point x="326" y="88"/>
      <point x="315" y="83"/>
      <point x="295" y="83" type="curve" smooth="yes"/>
      <point x="273" y="83"/>
      <point x="259" y="98"/>
      <point x="259" y="123" type="curve" smooth="yes"/>
      <point x="259" y="147"/>
      <point x="262" y="162"/>
      <point x="272" y="208" type="curve" smooth="yes"/>
      <point x="342" y="536" type="line"/>
      <point x="64" y="536" type="line"/>
      <point x="53" y="475" type="line"/>
      <point x="75" y="475" type="line" smooth="yes"/>
      <point x="113" y="475"/>
      <point x="122" y="466"/>
      <point x="122" y="442" type="curve" smooth="yes"/>
      <point x="122" y="422"/>
      <point x="117" y="400"/>
      <point x="112" y="377" type="curve" smooth="yes"/>
      <point x="77" y="210" type="line" smooth="yes"/>
      <point x="63" y="147"/>
      <point x="61" y="117"/>
      <point x="61" y="99" type="curve" smooth="yes"/>
      <point x="61" y="26"/>
      <point x="114" y="-10"/>
    </contour>
    <contour>
      <point x="241" y="619" type="curve" smooth="yes"/>
      <point x="303" y="619"/>
      <point x="362" y="651"/>
      <point x="362" y="708" type="curve" smooth="yes"/>
      <point x="362" y="759"/>
      <point x="315" y="777"/>
      <point x="264" y="777" type="curve" smooth="yes"/>
      <point x="204" y="777"/>
      <point x="147" y="756"/>
      <point x="147" y="686" type="curve" smooth="yes"/>
      <point x="147" y="640"/>
      <point x="189" y="619"/>
    </contour>
  </outline>
</glyph>
<glyph name="j" format="2">
  <advance width="325"/>
  <unicode hex="006A"/>
  <anchor x="-28" y="-240" name="bottom"/>
  <anchor x="270" y="777" name="top"/>
  <anchor x="412" y="777" name="topright"/>
  <outline>
    <contour>
      <point x="-28" y="-240" type="curve" smooth="yes"/>
      <point x="112" y="-240"/>
      <point x="173" y="-146"/>
      <point x="194" y="-46" type="curve" smooth="yes"/>
      <point x="321" y="553" type="line"/>
      <point x="132" y="553" type="line"/>
      <point x="11" y="-16" type="line" smooth="yes"/>
      <point x="0" y="-68"/>
      <point x="-34" y="-88"/>
      <point x="-74" y="-88" type="curve" smooth="yes"/>
      <point x="-91" y="-88"/>
      <point x="-105" y="-87"/>
      <point x="-129" y="-79" type="curve"/>
      <point x="-129" y="-227" type="line"/>
      <point x="-106" y="-234"/>
      <point x="-63" y="-240"/>
    </contour>
    <contour>
      <point x="248" y="606" type="curve" smooth="yes"/>
      <point x="323" y="606"/>
      <point x="358" y="647"/>
      <point x="358" y="708" type="curve" smooth="yes"/>
      <point x="358" y="759"/>
      <point x="315" y="777"/>
      <point x="265" y="777" type="curve" smooth="yes"/>
      <point x="196" y="777"/>
      <point x="155" y="741"/>
      <point x="155" y="675" type="curve" smooth="yes"/>
      <point x="155" y="624"/>
      <point x="195" y="606"/>
    </contour>
  </outline>
</glyph>
<glyph name="j.serif" format="2">
  <advance width="373"/>
  <unicode hex="006A"/>
  <anchor x="-11" y="-240" name="bottom"/>
  <anchor x="295" y="777" name="top"/>
  <anchor x="461" y="777" name="topright"/>
  <outline>
    <contour>
      <point x="-11" y="-240" type="curve" smooth="yes"/>
      <point x="85" y="-240"/>
      <point x="190" y="-186"/>
      <point x="225" y="-8" type="curve" smooth="yes"/>
      <point x="341" y="536" type="line"/>
      <point x="64" y="536" type="line"/>
      <point x="53" y="475" type="line"/>
      <point x="74" y="475" type="line" smooth="yes"/>
      <point x="113" y="475"/>
      <point x="121" y="462"/>
      <point x="121" y="435" type="curve" smooth="yes"/>
      <point x="121" y="419"/>
      <point x="116" y="401"/>
      <point x="111" y="377" type="curve" smooth="yes"/>
      <point x="30" y="-8" type="line" smooth="yes"/>
      <point x="2" y="-141"/>
      <point x="-22" y="-176"/>
      <point x="-82" y="-176" type="curve" smooth="yes"/>
      <point x="-95" y="-176"/>
      <point x="-117" y="-172"/>
      <point x="-126" y="-169" type="curve"/>
      <point x="-140" y="-225" type="line"/>
      <point x="-101" y="-234"/>
      <point x="-69" y="-240"/>
    </contour>
    <contour>
      <point x="240" y="619" type="curve" smooth="yes"/>
      <point x="319" y="619"/>
      <point x="361" y="651"/>
      <point x="361" y="708" type="curve" smooth="yes"/>
      <point x="361" y="759"/>
      <point x="314" y="777"/>
      <point x="263" y="777" type="curve" smooth="yes"/>
      <point x="203" y="777"/>
      <point x="146" y="756"/>
      <point x="146" y="686" type="curve" smooth="yes"/>
      <point x="146" y="640"/>
      <point x="188" y="619"/>
    </contour>
  </outline>
</glyph>
<glyph name="k" format="2">
  <advance width="617"/>
  <unicode hex="006B"/>
  <anchor x="262" y="0" name="bottom"/>
  <anchor x="261" y="760" name="top"/>
  <anchor x="600" y="890" name="topright"/>
  <outline>
    <contour>
      <point x="11" y="0" type="line"/>
      <point x="200" y="0" type="line"/>
      <point x="234" y="165" type="line"/>
      <point x="283" y="191" type="line"/>
      <point x="351" y="0" type="line"/>
      <point x="565" y="0" type="line"/>
      <point x="431" y="303" type="line"/>
      <point x="671" y="553" type="line"/>
      <point x="455" y="553" type="line"/>
      <point x="264" y="326" type="line"/>
      <point x="260" y="326" type="line"/>
      <point x="268" y="348"/>
      <point x="283" y="400"/>
      <point x="291" y="436" type="curve" smooth="yes"/>
      <point x="359" y="760" type="line"/>
      <point x="170" y="760" type="line"/>
    </contour>
  </outline>
</glyph>
<glyph name="k.serif" format="2">
  <advance width="618"/>
  <unicode hex="006B"/>
  <anchor x="252" y="0" name="bottom"/>
  <anchor x="414" y="760" name="top"/>
  <anchor x="603" y="920" name="topright"/>
  <outline>
    <contour>
      <point x="530" y="-5" type="curve" smooth="yes"/>
      <point x="584" y="-5" type="line"/>
      <point x="597" y="56" type="line"/>
      <point x="566" y="56"/>
      <point x="542" y="68"/>
      <point x="494" y="171" type="curve" smooth="yes"/>
      <point x="406" y="361" type="line"/>
      <point x="355" y="274" type="line"/>
      <point x="493" y="401" type="line" smooth="yes"/>
      <point x="556" y="460"/>
      <point x="605" y="480"/>
      <point x="651" y="480" type="curve"/>
      <point x="661" y="536" type="line"/>
      <point x="387" y="536" type="line"/>
      <point x="376" y="480" type="line"/>
      <point x="414" y="480"/>
      <point x="425" y="468"/>
      <point x="425" y="455" type="curve" smooth="yes"/>
      <point x="425" y="448"/>
      <point x="425" y="439"/>
      <point x="390" y="407" type="curve" smooth="yes"/>
      <point x="259" y="287" type="line"/>
      <point x="278" y="363"/>
      <point x="289" y="413"/>
      <point x="302" y="472" type="curve" smooth="yes"/>
      <point x="366" y="760" type="line"/>
      <point x="84" y="760" type="line"/>
      <point x="72" y="699" type="line"/>
      <point x="103" y="699" type="line" smooth="yes"/>
      <point x="135" y="699"/>
      <point x="143" y="694"/>
      <point x="143" y="667" type="curve" smooth="yes"/>
      <point x="143" y="656"/>
      <point x="140" y="639"/>
      <point x="137" y="625" type="curve" smooth="yes"/>
      <point x="4" y="0" type="line"/>
      <point x="196" y="0" type="line"/>
      <point x="240" y="200" type="line"/>
      <point x="343" y="268" type="line"/>
      <point x="258" y="239" type="line"/>
      <point x="322" y="93" type="line" smooth="yes"/>
      <point x="355" y="19"/>
      <point x="411" y="-6"/>
    </contour>
  </outline>
</glyph>
<glyph name="l.serif" format="2">
  <advance width="391"/>
  <unicode hex="006C"/>
  <anchor x="139" y="0" name="bottom"/>
  <anchor x="253" y="268" name="center"/>
  <anchor x="301" y="760" name="top"/>
  <anchor x="476" y="760" name="topright"/>
  <outline>
    <contour>
      <point x="178" y="-10" type="curve" smooth="yes"/>
      <point x="268" y="-10"/>
      <point x="311" y="26"/>
      <point x="345" y="66" type="curve"/>
      <point x="317" y="103" type="line"/>
      <point x="295" y="88"/>
      <point x="283" y="83"/>
      <point x="267" y="83" type="curve" smooth="yes"/>
      <point x="245" y="83"/>
      <point x="231" y="98"/>
      <point x="231" y="123" type="curve" smooth="yes"/>
      <point x="231" y="147"/>
      <point x="233" y="162"/>
      <point x="243" y="208" type="curve" smooth="yes"/>
      <point x="365" y="760" type="line"/>
      <point x="87" y="760" type="line"/>
      <point x="75" y="699" type="line"/>
      <point x="102" y="699" type="line" smooth="yes"/>
      <point x="140" y="699"/>
      <point x="143" y="686"/>
      <point x="143" y="668" type="curve" smooth="yes"/>
      <point x="143" y="656"/>
      <point x="139" y="636"/>
      <point x="135" y="619" type="curve" smooth="yes"/>
      <point x="50" y="217" type="line" smooth="yes"/>
      <point x="36" y="154"/>
      <point x="33" y="127"/>
      <point x="33" y="102" type="curve" smooth="yes"/>
      <point x="33" y="29"/>
      <point x="85" y="-10"/>
    </contour>
  </outline>
</glyph>
<glyph name="m" format="2">
  <advance width="926"/>
  <unicode hex="006D"/>
  <anchor x="413" y="0" name="bottom"/>
  <anchor x="539" y="553" name="top"/>
  <anchor x="965" y="553" name="topright"/>
  <outline>
    <contour>
      <point x="11" y="0" type="line"/>
      <point x="200" y="0" type="line"/>
      <point x="258" y="269" type="line" smooth="yes"/>
      <point x="283" y="383"/>
      <point x="314" y="413"/>
      <point x="351" y="413" type="curve" smooth="yes"/>
      <point x="371" y="413"/>
      <point x="386" y="400"/>
      <point x="386" y="367" type="curve" smooth="yes"/>
      <point x="386" y="351"/>
      <point x="382" y="323"/>
      <point x="379" y="308" type="curve" smooth="yes"/>
      <point x="315" y="0" type="line"/>
      <point x="504" y="0" type="line"/>
      <point x="558" y="265" type="line" smooth="yes"/>
      <point x="578" y="363"/>
      <point x="606" y="413"/>
      <point x="654" y="413" type="curve" smooth="yes"/>
      <point x="675" y="413"/>
      <point x="688" y="399"/>
      <point x="688" y="373" type="curve" smooth="yes"/>
      <point x="688" y="345"/>
      <point x="684" y="321"/>
      <point x="681" y="308" type="curve" smooth="yes"/>
      <point x="618" y="0" type="line"/>
      <point x="807" y="0" type="line"/>
      <point x="868" y="300" type="line" smooth="yes"/>
      <point x="875" y="335"/>
      <point x="879" y="370"/>
      <point x="879" y="400" type="curve" smooth="yes"/>
      <point x="879" y="507"/>
      <point x="830" y="563"/>
      <point x="739" y="563" type="curve" smooth="yes"/>
      <point x="667" y="563"/>
      <point x="613" y="531"/>
      <point x="571" y="462" type="curve"/>
      <point x="567" y="462" type="line"/>
      <point x="550" y="527"/>
      <point x="511" y="563"/>
      <point x="435" y="563" type="curve" smooth="yes"/>
      <point x="359" y="563"/>
      <point x="314" y="535"/>
      <point x="275" y="462" type="curve"/>
      <point x="271" y="462" type="line"/>
      <point x="279" y="553" type="line"/>
      <point x="128" y="553" type="line"/>
    </contour>
  </outline>
</glyph>
<glyph name="m.serif" format="2">
  <advance width="1023"/>
  <unicode hex="006D"/>
  <anchor x="455" y="0" name="bottom"/>
  <anchor x="569" y="536" name="top"/>
  <anchor x="1060" y="536" name="topright"/>
  <outline>
    <contour>
      <point x="832" y="-8" type="curve" smooth="yes"/>
      <point x="920" y="-8"/>
      <point x="976" y="31"/>
      <point x="1008" y="70" type="curve"/>
      <point x="979" y="108" type="line"/>
      <point x="958" y="93"/>
      <point x="945" y="85"/>
      <point x="924" y="85" type="curve" smooth="yes"/>
      <point x="903" y="85"/>
      <point x="890" y="100"/>
      <point x="890" y="128" type="curve" smooth="yes"/>
      <point x="890" y="154"/>
      <point x="896" y="182"/>
      <point x="903" y="217" type="curve" smooth="yes"/>
      <point x="924" y="319" type="line" smooth="yes"/>
      <point x="931" y="355"/>
      <point x="942" y="399"/>
      <point x="942" y="434" type="curve" smooth="yes"/>
      <point x="942" y="490"/>
      <point x="914" y="546"/>
      <point x="823" y="546" type="curve" smooth="yes"/>
      <point x="736" y="546"/>
      <point x="674" y="511"/>
      <point x="628" y="431" type="curve"/>
      <point x="625" y="431" type="line"/>
      <point x="625" y="433"/>
      <point x="625" y="435"/>
      <point x="625" y="436" type="curve" smooth="yes"/>
      <point x="621" y="501"/>
      <point x="595" y="546"/>
      <point x="511" y="546" type="curve" smooth="yes"/>
      <point x="441" y="546"/>
      <point x="382" y="527"/>
      <point x="325" y="452" type="curve"/>
      <point x="320" y="452" type="line"/>
      <point x="334" y="536" type="line"/>
      <point x="67" y="536" type="line"/>
      <point x="58" y="475" type="line"/>
      <point x="83" y="475" type="line" smooth="yes"/>
      <point x="116" y="475"/>
      <point x="124" y="467"/>
      <point x="124" y="445" type="curve" smooth="yes"/>
      <point x="124" y="430"/>
      <point x="119" y="411"/>
      <point x="116" y="395" type="curve" smooth="yes"/>
      <point x="32" y="0" type="line"/>
      <point x="224" y="0" type="line"/>
      <point x="281" y="247" type="line" smooth="yes"/>
      <point x="298" y="316"/>
      <point x="347" y="445"/>
      <point x="401" y="445" type="curve" smooth="yes"/>
      <point x="424" y="445"/>
      <point x="424" y="415"/>
      <point x="424" y="392" type="curve" smooth="yes"/>
      <point x="424" y="385"/>
      <point x="423" y="348"/>
      <point x="410" y="286" type="curve" smooth="yes"/>
      <point x="397" y="222" type="line" smooth="yes"/>
      <point x="384" y="161"/>
      <point x="366" y="68"/>
      <point x="359" y="0" type="curve"/>
      <point x="559" y="0" type="line"/>
      <point x="564" y="65"/>
      <point x="575" y="145"/>
      <point x="582" y="190" type="curve" smooth="yes"/>
      <point x="590" y="241" type="line" smooth="yes"/>
      <point x="597" y="285"/>
      <point x="655" y="450"/>
      <point x="713" y="450" type="curve" smooth="yes"/>
      <point x="738" y="450"/>
      <point x="739" y="418"/>
      <point x="739" y="394" type="curve" smooth="yes"/>
      <point x="739" y="363"/>
      <point x="728" y="313"/>
      <point x="723" y="287" type="curve" smooth="yes"/>
      <point x="706" y="205" type="line" smooth="yes"/>
      <point x="697" y="161"/>
      <point x="692" y="132"/>
      <point x="692" y="105" type="curve" smooth="yes"/>
      <point x="692" y="29"/>
      <point x="743" y="-8"/>
    </contour>
  </outline>
</glyph>
<glyph name="n" format="2">
  <advance width="622"/>
  <unicode hex="006E"/>
  <anchor x="256" y="0" name="bottom"/>
  <anchor x="376" y="553" name="top"/>
  <anchor x="661" y="553" name="topright"/>
  <outline>
    <contour>
      <point x="11" y="0" type="line"/>
      <point x="200" y="0" type="line"/>
      <point x="257" y="270" type="line" smooth="yes"/>
      <point x="277" y="368"/>
      <point x="310" y="413"/>
      <point x="347" y="413" type="curve" smooth="yes"/>
      <point x="367" y="413"/>
      <point x="384" y="399"/>
      <point x="384" y="371" type="curve" smooth="yes"/>
      <point x="384" y="348"/>
      <point x="379" y="319"/>
      <point x="375" y="302" type="curve" smooth="yes"/>
      <point x="312" y="0" type="line"/>
      <point x="501" y="0" type="line"/>
      <point x="563" y="294" type="line" smooth="yes"/>
      <point x="570" y="329"/>
      <point x="575" y="369"/>
      <point x="575" y="406" type="curve" smooth="yes"/>
      <point x="575" y="491"/>
      <point x="532" y="563"/>
      <point x="429" y="563" type="curve" smooth="yes"/>
      <point x="359" y="563"/>
      <point x="313" y="538"/>
      <point x="277" y="476" type="curve"/>
      <point x="273" y="476" type="line"/>
      <point x="279" y="553" type="line"/>
      <point x="128" y="553" type="line"/>
    </contour>
  </outline>
</glyph>
<glyph name="n.serif" format="2">
  <advance width="726"/>
  <unicode hex="006E"/>
  <anchor x="306" y="0" name="bottom"/>
  <anchor x="420" y="536" name="top"/>
  <anchor x="763" y="536" name="topright"/>
  <outline>
    <contour>
      <point x="535" y="-10" type="curve" smooth="yes"/>
      <point x="623" y="-10"/>
      <point x="679" y="29"/>
      <point x="711" y="68" type="curve"/>
      <point x="682" y="106" type="line"/>
      <point x="660" y="90"/>
      <point x="645" y="83"/>
      <point x="627" y="83" type="curve" smooth="yes"/>
      <point x="606" y="83"/>
      <point x="593" y="98"/>
      <point x="593" y="125" type="curve" smooth="yes"/>
      <point x="593" y="152"/>
      <point x="600" y="179"/>
      <point x="607" y="215" type="curve" smooth="yes"/>
      <point x="626" y="314" type="line" smooth="yes"/>
      <point x="633" y="349"/>
      <point x="644" y="394"/>
      <point x="644" y="429" type="curve" smooth="yes"/>
      <point x="644" y="491"/>
      <point x="614" y="546"/>
      <point x="516" y="546" type="curve" smooth="yes"/>
      <point x="431" y="546"/>
      <point x="375" y="517"/>
      <point x="320" y="443" type="curve"/>
      <point x="317" y="443" type="line"/>
      <point x="316" y="536" type="line"/>
      <point x="69" y="536" type="line"/>
      <point x="58" y="475" type="line"/>
      <point x="83" y="475" type="line" smooth="yes"/>
      <point x="121" y="475"/>
      <point x="124" y="463"/>
      <point x="124" y="446" type="curve" smooth="yes"/>
      <point x="124" y="432"/>
      <point x="120" y="411"/>
      <point x="116" y="395" type="curve" smooth="yes"/>
      <point x="32" y="0" type="line"/>
      <point x="224" y="0" type="line"/>
      <point x="272" y="214" type="line" smooth="yes"/>
      <point x="290" y="296"/>
      <point x="348" y="445"/>
      <point x="406" y="445" type="curve" smooth="yes"/>
      <point x="436" y="445"/>
      <point x="440" y="413"/>
      <point x="440" y="389" type="curve" smooth="yes"/>
      <point x="440" y="357"/>
      <point x="430" y="307"/>
      <point x="425" y="282" type="curve" smooth="yes"/>
      <point x="409" y="202" type="line" smooth="yes"/>
      <point x="400" y="159"/>
      <point x="395" y="126"/>
      <point x="395" y="101" type="curve" smooth="yes"/>
      <point x="395" y="33"/>
      <point x="446" y="-10"/>
    </contour>
  </outline>
</glyph>
<glyph name="o" format="2">
  <advance width="607"/>
  <unicode hex="006F"/>
  <anchor x="253" y="0" name="bottom"/>
  <anchor x="363" y="277" name="center"/>
  <anchor x="358" y="553" name="top"/>
  <anchor x="646" y="553" name="topright"/>
  <outline>
    <contour>
      <point x="254" y="-10" type="curve" smooth="yes"/>
      <point x="459" y="-10"/>
      <point x="566" y="161"/>
      <point x="566" y="350" type="curve" smooth="yes"/>
      <point x="566" y="486"/>
      <point x="489" y="563"/>
      <point x="353" y="563" type="curve" smooth="yes"/>
      <point x="148" y="563"/>
      <point x="41" y="392"/>
      <point x="41" y="203" type="curve" smooth="yes"/>
      <point x="41" y="67"/>
      <point x="118" y="-10"/>
    </contour>
    <contour>
      <point x="275" y="132" type="curve" smooth="yes"/>
      <point x="249" y="132"/>
      <point x="234" y="154"/>
      <point x="234" y="197" type="curve" smooth="yes"/>
      <point x="234" y="306"/>
      <point x="275" y="421"/>
      <point x="331" y="421" type="curve" smooth="yes"/>
      <point x="357" y="421"/>
      <point x="373" y="399"/>
      <point x="373" y="356" type="curve" smooth="yes"/>
      <point x="373" y="247"/>
      <point x="331" y="132"/>
    </contour>
  </outline>
</glyph>
<glyph name="o.serif" format="2">
  <advance width="650"/>
  <unicode hex="006F"/>
  <anchor x="268" y="0" name="bottom"/>
  <anchor x="382" y="268" name="center"/>
  <anchor x="382" y="536" name="top"/>
  <anchor x="687" y="536" name="topright"/>
  <outline>
    <contour>
      <point x="265" y="-10" type="curve" smooth="yes"/>
      <point x="506" y="-10"/>
      <point x="611" y="188"/>
      <point x="611" y="334" type="curve" smooth="yes"/>
      <point x="611" y="484"/>
      <point x="510" y="546"/>
      <point x="388" y="546" type="curve" smooth="yes"/>
      <point x="149" y="546"/>
      <point x="38" y="354"/>
      <point x="38" y="202" type="curve" smooth="yes"/>
      <point x="38" y="60"/>
      <point x="131" y="-10"/>
    </contour>
    <contour>
      <point x="288" y="77" type="curve" smooth="yes"/>
      <point x="249" y="77"/>
      <point x="227" y="106"/>
      <point x="227" y="174" type="curve" smooth="yes"/>
      <point x="227" y="280"/>
      <point x="282" y="467"/>
      <point x="364" y="467" type="curve" smooth="yes"/>
      <point x="401" y="467"/>
      <point x="424" y="440"/>
      <point x="424" y="377" type="curve" smooth="yes"/>
      <point x="424" y="281"/>
      <point x="378" y="77"/>
    </contour>
  </outline>
</glyph>
<glyph name="p" format="2">
  <advance width="607"/>
  <unicode hex="0070"/>
  <anchor x="194" y="-240" name="bottom"/>
  <anchor x="363" y="553" name="top"/>
  <anchor x="646" y="553" name="topright"/>
  <outline>
    <contour>
      <point x="-40" y="-240" type="line"/>
      <point x="149" y="-240" type="line"/>
      <point x="174" y="-120" type="line" smooth="yes"/>
      <point x="192" y="-34"/>
      <point x="197" y="9"/>
      <point x="201" y="61" type="curve"/>
      <point x="205" y="61" type="line"/>
      <point x="231" y="18"/>
      <point x="268" y="-10"/>
      <point x="318" y="-10" type="curve" smooth="yes"/>
      <point x="470" y="-10"/>
      <point x="566" y="176"/>
      <point x="566" y="359" type="curve" smooth="yes"/>
      <point x="566" y="489"/>
      <point x="502" y="563"/>
      <point x="403" y="563" type="curve" smooth="yes"/>
      <point x="347" y="563"/>
      <point x="307" y="538"/>
      <point x="277" y="491" type="curve"/>
      <point x="273" y="491" type="line"/>
      <point x="279" y="553" type="line"/>
      <point x="128" y="553" type="line"/>
    </contour>
    <contour>
      <point x="280" y="142" type="curve" smooth="yes"/>
      <point x="253" y="142"/>
      <point x="237" y="170"/>
      <point x="237" y="212" type="curve" smooth="yes"/>
      <point x="237" y="297"/>
      <point x="273" y="411"/>
      <point x="331" y="411" type="curve" smooth="yes"/>
      <point x="359" y="411"/>
      <point x="373" y="386"/>
      <point x="373" y="341" type="curve" smooth="yes"/>
      <point x="373" y="246"/>
      <point x="332" y="142"/>
    </contour>
  </outline>
</glyph>
<glyph name="p.serif" format="2">
  <advance width="657"/>
  <unicode hex="0070"/>
  <anchor x="81" y="-240" name="bottom"/>
  <anchor x="386" y="536" name="top"/>
  <anchor x="694" y="536" name="topright"/>
  <outline>
    <contour>
      <point x="91" y="401" type="curve" smooth="yes"/>
      <point x="-47" y="-240" type="line"/>
      <point x="256" y="-240" type="line"/>
      <point x="265" y="-179" type="line"/>
      <point x="218" y="-179" type="line" smooth="yes"/>
      <point x="180" y="-179"/>
      <point x="168" y="-173"/>
      <point x="168" y="-147" type="curve" smooth="yes"/>
      <point x="168" y="-137"/>
      <point x="169" y="-128"/>
      <point x="173" y="-106" type="curve" smooth="yes"/>
      <point x="187" y="-35" type="line" smooth="yes"/>
      <point x="191" y="-19"/>
      <point x="194" y="2"/>
      <point x="195" y="13" type="curve"/>
      <point x="222" y="-1"/>
      <point x="260" y="-10"/>
      <point x="300" y="-10" type="curve" smooth="yes"/>
      <point x="514" y="-10"/>
      <point x="619" y="195"/>
      <point x="619" y="365" type="curve" smooth="yes"/>
      <point x="619" y="482"/>
      <point x="552" y="546"/>
      <point x="459" y="546" type="curve" smooth="yes"/>
      <point x="359" y="546"/>
      <point x="314" y="491"/>
      <point x="264" y="403" type="curve"/>
      <point x="256" y="403" type="line"/>
      <point x="283" y="536" type="line"/>
      <point x="42" y="536" type="line"/>
      <point x="31" y="475" type="line"/>
      <point x="56" y="475" type="line" smooth="yes"/>
      <point x="94" y="475"/>
      <point x="97" y="464"/>
      <point x="97" y="441" type="curve" smooth="yes"/>
      <point x="97" y="432"/>
      <point x="94" y="417"/>
    </contour>
    <contour>
      <point x="283" y="68" type="curve" smooth="yes"/>
      <point x="257" y="68"/>
      <point x="230" y="80"/>
      <point x="218" y="90" type="curve"/>
      <point x="254" y="261" type="line" smooth="yes"/>
      <point x="268" y="336"/>
      <point x="325" y="453"/>
      <point x="384" y="453" type="curve" smooth="yes"/>
      <point x="421" y="453"/>
      <point x="432" y="403"/>
      <point x="432" y="352" type="curve" smooth="yes"/>
      <point x="432" y="246"/>
      <point x="377" y="68"/>
    </contour>
  </outline>
</glyph>
<glyph name="q.serif" format="2">
  <advance width="683"/>
  <unicode hex="0071"/>
  <anchor x="234" y="-240" name="bottom"/>
  <anchor x="399" y="536" name="top"/>
  <anchor x="720" y="536" name="topright"/>
  <outline>
    <contour>
      <point x="361" y="-40" type="curve" smooth="yes"/>
      <point x="323" y="-240" type="line"/>
      <point x="587" y="-240" type="line"/>
      <point x="599" y="-179" type="line"/>
      <point x="555" y="-179" type="line" smooth="yes"/>
      <point x="525" y="-179"/>
      <point x="508" y="-167"/>
      <point x="508" y="-147" type="curve" smooth="yes"/>
      <point x="508" y="-136"/>
      <point x="512" y="-117"/>
      <point x="516" y="-99" type="curve" smooth="yes"/>
      <point x="652" y="546" type="line"/>
      <point x="591" y="546" type="line"/>
      <point x="525" y="509" type="line"/>
      <point x="488" y="525"/>
      <point x="428" y="546"/>
      <point x="352" y="546" type="curve" smooth="yes"/>
      <point x="160" y="546"/>
      <point x="38" y="340"/>
      <point x="38" y="173" type="curve" smooth="yes"/>
      <point x="38" y="53"/>
      <point x="101" y="-10"/>
      <point x="196" y="-10" type="curve" smooth="yes"/>
      <point x="292" y="-10"/>
      <point x="337" y="33"/>
      <point x="389" y="123" type="curve"/>
      <point x="395" y="123" type="line"/>
      <point x="388" y="92"/>
      <point x="368" y="-2"/>
    </contour>
    <contour>
      <point x="274" y="83" type="curve" smooth="yes"/>
      <point x="247" y="83"/>
      <point x="227" y="109"/>
      <point x="227" y="182" type="curve" smooth="yes"/>
      <point x="227" y="276"/>
      <point x="278" y="468"/>
      <point x="383" y="468" type="curve" smooth="yes"/>
      <point x="411" y="468"/>
      <point x="431" y="458"/>
      <point x="440" y="446" type="curve"/>
      <point x="404" y="290" type="line" smooth="yes"/>
      <point x="387" y="194"/>
      <point x="326" y="83"/>
    </contour>
  </outline>
</glyph>
<glyph name="r" format="2">
  <advance width="437"/>
  <unicode hex="0072"/>
  <anchor x="111" y="0" name="bottom"/>
  <anchor x="303" y="553" name="top"/>
  <anchor x="476" y="553" name="topright"/>
  <outline>
    <contour>
      <point x="11" y="0" type="line"/>
      <point x="200" y="0" type="line"/>
      <point x="252" y="243" type="line" smooth="yes"/>
      <point x="275" y="349"/>
      <point x="319" y="383"/>
      <point x="378" y="383" type="curve" smooth="yes"/>
      <point x="402" y="383"/>
      <point x="424" y="378"/>
      <point x="438" y="372" type="curve"/>
      <point x="479" y="559" type="line"/>
      <point x="473" y="561"/>
      <point x="454" y="563"/>
      <point x="440" y="563" type="curve" smooth="yes"/>
      <point x="365" y="563"/>
      <point x="320" y="539"/>
      <point x="274" y="461" type="curve"/>
      <point x="270" y="461" type="line"/>
      <point x="279" y="553" type="line"/>
      <point x="128" y="553" type="line"/>
    </contour>
  </outline>
</glyph>
<glyph name="r.serif" format="2">
  <advance width="612"/>
  <unicode hex="0072"/>
  <anchor x="121" y="0" name="bottom"/>
  <anchor x="363" y="536" name="top"/>
  <anchor x="649" y="536" name="topright"/>
  <outline>
    <contour>
      <point x="116" y="393" type="curve" smooth="yes"/>
      <point x="32" y="0" type="line"/>
      <point x="224" y="0" type="line"/>
      <point x="262" y="166" type="line" smooth="yes"/>
      <point x="297" y="321"/>
      <point x="368" y="452"/>
      <point x="427" y="452" type="curve" smooth="yes"/>
      <point x="462" y="452"/>
      <point x="475" y="409"/>
      <point x="475" y="338" type="curve"/>
      <point x="565" y="338"/>
      <point x="619" y="374"/>
      <point x="619" y="454" type="curve" smooth="yes"/>
      <point x="619" y="517"/>
      <point x="579" y="546"/>
      <point x="497" y="546" type="curve" smooth="yes"/>
      <point x="412" y="546"/>
      <point x="360" y="510"/>
      <point x="308" y="404" type="curve"/>
      <point x="307" y="404" type="line"/>
      <point x="328" y="536" type="line"/>
      <point x="74" y="536" type="line"/>
      <point x="62" y="475" type="line"/>
      <point x="91" y="475" type="line" smooth="yes"/>
      <point x="119" y="475"/>
      <point x="124" y="463"/>
      <point x="124" y="449" type="curve" smooth="yes"/>
      <point x="124" y="429"/>
      <point x="120" y="413"/>
    </contour>
  </outline>
</glyph>
<glyph name="s" format="2">
  <advance width="502"/>
  <unicode hex="0073"/>
  <anchor x="192" y="0" name="bottom"/>
  <anchor x="290" y="553" name="top"/>
  <anchor x="541" y="553" name="topright"/>
  <outline>
    <contour>
      <point x="189" y="-10" type="curve" smooth="yes"/>
      <point x="339" y="-10"/>
      <point x="435" y="55"/>
      <point x="435" y="192" type="curve" smooth="yes"/>
      <point x="435" y="260"/>
      <point x="400" y="311"/>
      <point x="325" y="348" type="curve" smooth="yes"/>
      <point x="279" y="371"/>
      <point x="260" y="382"/>
      <point x="260" y="401" type="curve" smooth="yes"/>
      <point x="260" y="423"/>
      <point x="274" y="434"/>
      <point x="297" y="434" type="curve" smooth="yes"/>
      <point x="335" y="434"/>
      <point x="386" y="412"/>
      <point x="423" y="388" type="curve"/>
      <point x="482" y="511" type="line"/>
      <point x="426" y="546"/>
      <point x="367" y="563"/>
      <point x="295" y="563" type="curve" smooth="yes"/>
      <point x="140" y="563"/>
      <point x="68" y="492"/>
      <point x="68" y="388" type="curve" smooth="yes"/>
      <point x="68" y="318"/>
      <point x="98" y="272"/>
      <point x="167" y="234" type="curve" smooth="yes"/>
      <point x="234" y="197"/>
      <point x="243" y="185"/>
      <point x="243" y="163" type="curve" smooth="yes"/>
      <point x="243" y="133"/>
      <point x="200" y="129"/>
      <point x="177" y="129" type="curve" smooth="yes"/>
      <point x="124" y="129"/>
      <point x="75" y="140"/>
      <point x="15" y="173" type="curve"/>
      <point x="15" y="21" type="line"/>
      <point x="58" y="1"/>
      <point x="115" y="-10"/>
    </contour>
  </outline>
</glyph>
<glyph name="s.serif" format="2">
  <advance width="551"/>
  <unicode hex="0073"/>
  <anchor x="219" y="0" name="bottom"/>
  <anchor x="333" y="536" name="top"/>
  <anchor x="588" y="536" name="topright"/>
  <outline>
    <contour>
      <point x="218" y="-10" type="curve" smooth="yes"/>
      <point x="401" y="-10"/>
      <point x="487" y="55"/>
      <point x="487" y="171" type="curve" smooth="yes"/>
      <point x="487" y="242"/>
      <point x="454" y="289"/>
      <point x="343" y="339" type="curve" smooth="yes"/>
      <point x="275" y="370"/>
      <point x="237" y="382"/>
      <point x="237" y="425" type="curve" smooth="yes"/>
      <point x="237" y="455"/>
      <point x="260" y="482"/>
      <point x="306" y="482" type="curve" smooth="yes"/>
      <point x="364" y="482"/>
      <point x="379" y="420"/>
      <point x="379" y="367" type="curve"/>
      <point x="469" y="367"/>
      <point x="524" y="392"/>
      <point x="524" y="453" type="curve" smooth="yes"/>
      <point x="524" y="504"/>
      <point x="475" y="546"/>
      <point x="321" y="546" type="curve" smooth="yes"/>
      <point x="165" y="546"/>
      <point x="71" y="486"/>
      <point x="71" y="380" type="curve" smooth="yes"/>
      <point x="71" y="304"/>
      <point x="123" y="257"/>
      <point x="219" y="211" type="curve" smooth="yes"/>
      <point x="285" y="179"/>
      <point x="326" y="166"/>
      <point x="326" y="121" type="curve" smooth="yes"/>
      <point x="326" y="83"/>
      <point x="292" y="59"/>
      <point x="241" y="59" type="curve" smooth="yes"/>
      <point x="174" y="59"/>
      <point x="150" y="125"/>
      <point x="150" y="197" type="curve"/>
      <point x="76" y="197"/>
      <point x="11" y="166"/>
      <point x="11" y="98" type="curve" smooth="yes"/>
      <point x="11" y="30"/>
      <point x="93" y="-10"/>
    </contour>
  </outline>
</glyph>
<glyph name="t" format="2">
  <advance width="457"/>
  <unicode hex="0074"/>
  <anchor x="198" y="0" name="bottom"/>
  <anchor x="218" y="277" name="center"/>
  <anchor x="312" y="664" name="top"/>
  <anchor x="449" y="890" name="topright"/>
  <outline>
    <contour>
      <point x="200" y="-10" type="curve" smooth="yes"/>
      <point x="272" y="-10"/>
      <point x="325" y="3"/>
      <point x="366" y="23" type="curve"/>
      <point x="366" y="165" type="line"/>
      <point x="334" y="152"/>
      <point x="302" y="142"/>
      <point x="277" y="142" type="curve" smooth="yes"/>
      <point x="259" y="142"/>
      <point x="246" y="151"/>
      <point x="246" y="173" type="curve" smooth="yes"/>
      <point x="246" y="184"/>
      <point x="250" y="205"/>
      <point x="254" y="224" type="curve" smooth="yes"/>
      <point x="295" y="411" type="line"/>
      <point x="436" y="411" type="line"/>
      <point x="467" y="553" type="line"/>
      <point x="326" y="553" type="line"/>
      <point x="350" y="664" type="line"/>
      <point x="224" y="664" type="line"/>
      <point x="157" y="547" type="line"/>
      <point x="51" y="504" type="line"/>
      <point x="31" y="411" type="line"/>
      <point x="106" y="411" type="line"/>
      <point x="65" y="215" type="line" smooth="yes"/>
      <point x="59" y="188"/>
      <point x="53" y="150"/>
      <point x="53" y="123" type="curve" smooth="yes"/>
      <point x="53" y="29"/>
      <point x="104" y="-10"/>
    </contour>
  </outline>
</glyph>
<glyph name="t.serif" format="2">
  <advance width="453"/>
  <unicode hex="0074"/>
  <anchor x="170" y="0" name="bottom"/>
  <anchor x="224" y="268" name="center"/>
  <anchor x="310" y="659" name="top"/>
  <anchor x="410" y="1020" name="topright"/>
  <outline>
    <contour>
      <point x="207" y="-10" type="curve" smooth="yes"/>
      <point x="304" y="-10"/>
      <point x="363" y="31"/>
      <point x="410" y="76" type="curve"/>
      <point x="382" y="115" type="line"/>
      <point x="360" y="99"/>
      <point x="334" y="86"/>
      <point x="307" y="86" type="curve" smooth="yes"/>
      <point x="279" y="86"/>
      <point x="259" y="104"/>
      <point x="259" y="132" type="curve" smooth="yes"/>
      <point x="259" y="150"/>
      <point x="261" y="168"/>
      <point x="268" y="200" type="curve" smooth="yes"/>
      <point x="327" y="460" type="line"/>
      <point x="450" y="460" type="line"/>
      <point x="465" y="536" type="line"/>
      <point x="344" y="536" type="line"/>
      <point x="370" y="659" type="line"/>
      <point x="304" y="659" type="line"/>
      <point x="224" y="556"/>
      <point x="122" y="519"/>
      <point x="65" y="519" type="curve"/>
      <point x="53" y="460" type="line"/>
      <point x="131" y="460" type="line"/>
      <point x="71" y="191" type="line" smooth="yes"/>
      <point x="66" y="166"/>
      <point x="61" y="133"/>
      <point x="61" y="109" type="curve" smooth="yes"/>
      <point x="61" y="30"/>
      <point x="129" y="-10"/>
    </contour>
  </outline>
</glyph>
<glyph name="v" format="2">
  <advance width="544"/>
  <unicode hex="0076"/>
  <anchor x="212" y="0" name="bottom"/>
  <anchor x="315" y="553" name="top"/>
  <anchor x="583" y="553" name="topright"/>
  <outline>
    <contour>
      <point x="114" y="0" type="line"/>
      <point x="303" y="0" type="line"/>
      <point x="602" y="553" type="line"/>
      <point x="400" y="553" type="line"/>
      <point x="269" y="267" type="line" smooth="yes"/>
      <point x="261" y="250"/>
      <point x="249" y="220"/>
      <point x="244" y="201" type="curve"/>
      <point x="240" y="201" type="line"/>
      <point x="242" y="222"/>
      <point x="242" y="249"/>
      <point x="241" y="275" type="curve" smooth="yes"/>
      <point x="231" y="553" type="line"/>
      <point x="43" y="553" type="line"/>
    </contour>
  </outline>
</glyph>
<glyph name="v.serif" format="2">
  <advance width="621"/>
  <unicode hex="0076"/>
  <anchor x="254" y="0" name="bottom"/>
  <anchor x="368" y="536" name="top"/>
  <anchor x="658" y="536" name="topright"/>
  <outline>
    <contour>
      <point x="94" y="422" type="curve" smooth="yes"/>
      <point x="166" y="-9" type="line"/>
      <point x="329" y="1" type="line"/>
      <point x="420" y="92"/>
      <point x="590" y="298"/>
      <point x="590" y="455" type="curve" smooth="yes"/>
      <point x="590" y="518"/>
      <point x="552" y="546"/>
      <point x="505" y="546" type="curve" smooth="yes"/>
      <point x="445" y="546"/>
      <point x="416" y="503"/>
      <point x="416" y="451" type="curve"/>
      <point x="453" y="451"/>
      <point x="485" y="438"/>
      <point x="485" y="394" type="curve" smooth="yes"/>
      <point x="485" y="311"/>
      <point x="406" y="194"/>
      <point x="320" y="101" type="curve"/>
      <point x="317" y="101" type="line"/>
      <point x="317" y="134"/>
      <point x="316" y="173"/>
      <point x="306" y="240" type="curve" smooth="yes"/>
      <point x="260" y="536" type="line"/>
      <point x="30" y="536" type="line"/>
      <point x="15" y="475" type="line"/>
      <point x="25" y="475" type="line" smooth="yes"/>
      <point x="64" y="475"/>
      <point x="87" y="464"/>
    </contour>
  </outline>
</glyph>
<glyph name="w" format="2">
  <advance width="823"/>
  <unicode hex="0077"/>
  <anchor x="348" y="0" name="bottom"/>
  <anchor x="455" y="553" name="top"/>
  <anchor x="862" y="553" name="topright"/>
  <outline>
    <contour>
      <point x="82" y="0" type="line"/>
      <point x="281" y="0" type="line"/>
      <point x="372" y="237" type="line" smooth="yes"/>
      <point x="387" y="277"/>
      <point x="411" y="345"/>
      <point x="425" y="400" type="curve"/>
      <point x="429" y="400" type="line"/>
      <point x="423" y="347"/>
      <point x="419" y="270"/>
      <point x="417" y="219" type="curve" smooth="yes"/>
      <point x="410" y="0" type="line"/>
      <point x="616" y="0" type="line"/>
      <point x="879" y="553" type="line"/>
      <point x="691" y="553" type="line"/>
      <point x="580" y="284" type="line" smooth="yes"/>
      <point x="565" y="247"/>
      <point x="555" y="217"/>
      <point x="543" y="177" type="curve"/>
      <point x="539" y="177" type="line"/>
      <point x="544" y="221"/>
      <point x="545" y="261"/>
      <point x="546" y="281" type="curve" smooth="yes"/>
      <point x="560" y="553" type="line"/>
      <point x="361" y="553" type="line"/>
      <point x="255" y="271" type="line" smooth="yes"/>
      <point x="245" y="243"/>
      <point x="234" y="209"/>
      <point x="226" y="177" type="curve"/>
      <point x="222" y="177" type="line"/>
      <point x="225" y="208"/>
      <point x="228" y="247"/>
      <point x="228" y="283" type="curve" smooth="yes"/>
      <point x="228" y="553" type="line"/>
      <point x="50" y="553" type="line"/>
    </contour>
  </outline>
</glyph>
<glyph name="w.serif" format="2">
  <advance width="916"/>
  <unicode hex="0077"/>
  <anchor x="401" y="0" name="bottom"/>
  <anchor x="515" y="536" name="top"/>
  <anchor x="953" y="536" name="topright"/>
  <outline>
    <contour>
      <point x="487" y="-10" type="curve"/>
      <point x="621" y="1" type="line"/>
      <point x="744" y="106"/>
      <point x="891" y="302"/>
      <point x="891" y="454" type="curve" smooth="yes"/>
      <point x="891" y="510"/>
      <point x="861" y="546"/>
      <point x="809" y="546" type="curve" smooth="yes"/>
      <point x="769" y="546"/>
      <point x="727" y="531"/>
      <point x="723" y="466" type="curve"/>
      <point x="747" y="462"/>
      <point x="779" y="437"/>
      <point x="779" y="386" type="curve" smooth="yes"/>
      <point x="779" y="363"/>
      <point x="779" y="286"/>
      <point x="658" y="137" type="curve"/>
      <point x="651" y="137" type="line"/>
      <point x="651" y="194"/>
      <point x="639" y="431"/>
      <point x="627" y="531" type="curve"/>
      <point x="476" y="527" type="line"/>
      <point x="423" y="381"/>
      <point x="369" y="260"/>
      <point x="301" y="158" type="curve"/>
      <point x="292" y="158" type="line"/>
      <point x="286" y="333"/>
      <point x="288" y="402"/>
      <point x="279" y="536" type="curve"/>
      <point x="54" y="536" type="line"/>
      <point x="38" y="475" type="line"/>
      <point x="45" y="475" type="line" smooth="yes"/>
      <point x="80" y="475"/>
      <point x="110" y="462"/>
      <point x="111" y="401" type="curve" smooth="yes"/>
      <point x="123" y="-4" type="line"/>
      <point x="270" y="3" type="line"/>
      <point x="374" y="152"/>
      <point x="422" y="232"/>
      <point x="477" y="373" type="curve"/>
      <point x="485" y="287"/>
      <point x="488" y="113"/>
    </contour>
  </outline>
</glyph>
<glyph name="x" format="2">
  <advance width="566"/>
  <unicode hex="0078"/>
  <anchor x="224" y="0" name="bottom"/>
  <anchor x="340" y="553" name="top"/>
  <anchor x="605" y="553" name="topright"/>
  <outline>
    <contour>
      <point x="-58" y="0" type="line"/>
      <point x="163" y="0" type="line"/>
      <point x="266" y="160" type="line"/>
      <point x="305" y="0" type="line"/>
      <point x="514" y="0" type="line"/>
      <point x="403" y="272" type="line"/>
      <point x="630" y="553" type="line"/>
      <point x="406" y="553" type="line"/>
      <point x="315" y="400" type="line"/>
      <point x="278" y="553" type="line"/>
      <point x="72" y="553" type="line"/>
      <point x="173" y="282" type="line"/>
    </contour>
  </outline>
</glyph>
<glyph name="x.serif" format="2">
  <advance width="647"/>
  <unicode hex="0078"/>
  <anchor x="267" y="0" name="bottom"/>
  <anchor x="381" y="536" name="top"/>
  <anchor x="684" y="536" name="topright"/>
  <outline>
    <contour>
      <point x="-23" y="0" type="line"/>
      <point x="98" y="0" type="line"/>
      <point x="259" y="189" type="line"/>
      <point x="329" y="0" type="line"/>
      <point x="568" y="0" type="line"/>
      <point x="579" y="61" type="line"/>
      <point x="566" y="61" type="line" smooth="yes"/>
      <point x="527" y="61"/>
      <point x="508" y="77"/>
      <point x="482" y="131" type="curve" smooth="yes"/>
      <point x="406" y="296" type="line"/>
      <point x="507" y="405" type="line" smooth="yes"/>
      <point x="558" y="460"/>
      <point x="572" y="475"/>
      <point x="611" y="475" type="curve" smooth="yes"/>
      <point x="633" y="475" type="line"/>
      <point x="643" y="536" type="line"/>
      <point x="521" y="536" type="line"/>
      <point x="378" y="355" type="line"/>
      <point x="312" y="536" type="line"/>
      <point x="84" y="536" type="line"/>
      <point x="72" y="475" type="line"/>
      <point x="83" y="475" type="line" smooth="yes"/>
      <point x="121" y="475"/>
      <point x="144" y="467"/>
      <point x="162" y="422" type="curve" smooth="yes"/>
      <point x="234" y="249" type="line"/>
      <point x="110" y="121" type="line" smooth="yes"/>
      <point x="58" y="69"/>
      <point x="40" y="61"/>
      <point x="2" y="61" type="curve" smooth="yes"/>
      <point x="-11" y="61" type="line"/>
    </contour>
  </outline>
</glyph>
<glyph name="y" format="2">
  <advance width="544"/>
  <unicode hex="0079"/>
  <anchor x="162" y="-240" name="bottom"/>
  <anchor x="314" y="553" name="top"/>
  <anchor x="583" y="553" name="topright"/>
  <outline>
    <contour>
      <point x="12" y="-240" type="curve" smooth="yes"/>
      <point x="138" y="-240"/>
      <point x="213" y="-185"/>
      <point x="273" y="-70" type="curve" smooth="yes"/>
      <point x="600" y="553" type="line"/>
      <point x="397" y="553" type="line"/>
      <point x="288" y="301" type="line" smooth="yes"/>
      <point x="278" y="277"/>
      <point x="263" y="236"/>
      <point x="254" y="206" type="curve"/>
      <point x="250" y="206" type="line"/>
      <point x="251" y="235"/>
      <point x="252" y="265"/>
      <point x="249" y="299" type="curve" smooth="yes"/>
      <point x="230" y="553" type="line"/>
      <point x="40" y="553" type="line"/>
      <point x="119" y="6" type="line"/>
      <point x="108" y="-14" type="line" smooth="yes"/>
      <point x="80" y="-64"/>
      <point x="48" y="-88"/>
      <point x="-10" y="-88" type="curve" smooth="yes"/>
      <point x="-32" y="-88"/>
      <point x="-51" y="-85"/>
      <point x="-63" y="-82" type="curve"/>
      <point x="-63" y="-232" type="line"/>
      <point x="-49" y="-236"/>
      <point x="-26" y="-240"/>
    </contour>
  </outline>
</glyph>
<glyph name="y.serif" format="2">
  <advance width="629"/>
  <unicode hex="0079"/>
  <anchor x="67" y="-240" name="bottom"/>
  <anchor x="342" y="536" name="top"/>
  <anchor x="636" y="536" name="topright"/>
  <outline>
    <contour>
      <point x="-61" y="-240" type="curve" smooth="yes"/>
      <point x="158" y="-240"/>
      <point x="242" y="-129"/>
      <point x="397" y="74" type="curve" smooth="yes"/>
      <point x="521" y="237"/>
      <point x="596" y="357"/>
      <point x="596" y="461" type="curve" smooth="yes"/>
      <point x="596" y="511"/>
      <point x="566" y="546"/>
      <point x="503" y="546" type="curve" smooth="yes"/>
      <point x="449" y="546"/>
      <point x="412" y="506"/>
      <point x="412" y="452" type="curve"/>
      <point x="453" y="452"/>
      <point x="484" y="429"/>
      <point x="484" y="372" type="curve" smooth="yes"/>
      <point x="484" y="307"/>
      <point x="413" y="203"/>
      <point x="331" y="102" type="curve"/>
      <point x="328" y="102" type="line"/>
      <point x="325" y="135"/>
      <point x="314" y="233"/>
      <point x="302" y="285" type="curve" smooth="yes"/>
      <point x="245" y="536" type="line"/>
      <point x="12" y="536" type="line"/>
      <point x="-3" y="475" type="line"/>
      <point x="7" y="475" type="line" smooth="yes"/>
      <point x="46" y="475"/>
      <point x="66" y="462"/>
      <point x="76" y="422" type="curve" smooth="yes"/>
      <point x="196" y="-44" type="line"/>
      <point x="117" y="-132"/>
      <point x="48" y="-174"/>
      <point x="-68" y="-174" type="curve" smooth="yes"/>
      <point x="-109" y="-174"/>
      <point x="-142" y="-165"/>
      <point x="-158" y="-160" type="curve"/>
      <point x="-173" y="-222" type="line"/>
      <point x="-143" y="-233"/>
      <point x="-102" y="-240"/>
    </contour>
  </outline>
</glyph>
<glyph name="z" format="2">
  <advance width="485"/>
  <unicode hex="007A"/>
  <anchor x="191" y="0" name="bottom"/>
  <anchor x="303" y="553" name="top"/>
  <anchor x="524" y="553" name="topright"/>
  <outline>
    <contour>
      <point x="-20" y="0" type="line"/>
      <point x="392" y="0" type="line"/>
      <point x="424" y="146" type="line"/>
      <point x="237" y="146" type="line"/>
      <point x="479" y="435" type="line"/>
      <point x="505" y="553" type="line"/>
      <point x="109" y="553" type="line"/>
      <point x="76" y="407" type="line"/>
      <point x="246" y="407" type="line"/>
      <point x="1" y="108" type="line"/>
    </contour>
  </outline>
</glyph>
<glyph name="z.serif" format="2">
  <advance width="593"/>
  <unicode hex="007A"/>
  <anchor x="240" y="0" name="bottom"/>
  <anchor x="354" y="536" name="top"/>
  <anchor x="630" y="536" name="topright"/>
  <outline>
    <contour>
      <point x="1" y="0" type="line"/>
      <point x="505" y="0" type="line"/>
      <point x="551" y="195" type="line"/>
      <point x="481" y="195" type="line"/>
      <point x="471" y="172" type="line" smooth="yes"/>
      <point x="453" y="129"/>
      <point x="431" y="76"/>
      <point x="385" y="76" type="curve" smooth="yes"/>
      <point x="234" y="76" type="line"/>
      <point x="565" y="476" type="line"/>
      <point x="578" y="536" type="line"/>
      <point x="111" y="536" type="line"/>
      <point x="64" y="359" type="line"/>
      <point x="139" y="359" type="line"/>
      <point x="141" y="363" type="line" smooth="yes"/>
      <point x="167" y="415"/>
      <point x="184" y="460"/>
      <point x="237" y="460" type="curve" smooth="yes"/>
      <point x="344" y="460" type="line"/>
      <point x="14" y="59" type="line"/>
    </contour>
  </outline>
</glyph>
<glyph name="braceleft" format="2">
  <advance width="359"/>
  <unicode hex="007B"/>
  <outline>
    <contour>
      <point x="226" y="-158" type="curve" smooth="yes"/>
      <point x="266" y="-158" type="line"/>
      <point x="266" y="-21" type="line"/>
      <point x="231" y="-21"/>
      <point x="211" y="-9"/>
      <point x="211" y="22" type="curve" smooth="yes"/>
      <point x="211" y="29"/>
      <point x="212" y="36"/>
      <point x="214" y="46" type="curve" smooth="yes"/>
      <point x="231" y="126" type="line" smooth="yes"/>
      <point x="233" y="137"/>
      <point x="236" y="150"/>
      <point x="236" y="162" type="curve" smooth="yes"/>
      <point x="236" y="219"/>
      <point x="211" y="257"/>
      <point x="153" y="276" type="curve"/>
      <point x="153" y="280" type="line"/>
      <point x="220" y="287"/>
      <point x="273" y="313"/>
      <point x="289" y="388" type="curve" smooth="yes"/>
      <point x="315" y="514" type="line" smooth="yes"/>
      <point x="326" y="564"/>
      <point x="353" y="576"/>
      <point x="401" y="577" type="curve"/>
      <point x="431" y="714" type="line"/>
      <point x="368" y="714" type="line" smooth="yes"/>
      <point x="235" y="714"/>
      <point x="190" y="654"/>
      <point x="168" y="556" type="curve" smooth="yes"/>
      <point x="141" y="436" type="line" smooth="yes"/>
      <point x="128" y="376"/>
      <point x="98" y="352"/>
      <point x="18" y="352" type="curve"/>
      <point x="-8" y="212" type="line"/>
      <point x="59" y="212"/>
      <point x="78" y="188"/>
      <point x="78" y="145" type="curve" smooth="yes"/>
      <point x="78" y="139"/>
      <point x="77" y="132"/>
      <point x="75" y="124" type="curve" smooth="yes"/>
      <point x="57" y="39" type="line" smooth="yes"/>
      <point x="52" y="17"/>
      <point x="50" y="-2"/>
      <point x="50" y="-23" type="curve" smooth="yes"/>
      <point x="50" y="-107"/>
      <point x="98" y="-158"/>
    </contour>
  </outline>
</glyph>
<glyph name="bar" format="2">
  <advance width="566"/>
  <unicode hex="007C"/>
  <outline>
    <contour>
      <point x="216" y="-227" type="line"/>
      <point x="348" y="-227" type="line"/>
      <point x="348" y="756" type="line"/>
      <point x="216" y="756" type="line"/>
    </contour>
  </outline>
</glyph>
